<svg width="1529" height="1529" viewBox="0 0 1529 1529" fill="none" xmlns="http://www.w3.org/2000/svg">
<rect x="11.7719" y="11.4433" width="1505.96" height="1505.96" rx="253.835" fill="white"/>
<g clip-path="url(#clip0_276_665)">
<path d="M289.858 1423.16V1370.38H309.612C314.086 1370.38 317.931 1371.11 321.148 1372.57C324.365 1373.98 326.828 1376.04 328.537 1378.75C330.296 1381.42 331.176 1384.66 331.176 1388.48C331.176 1392.2 330.296 1395.41 328.537 1398.13C326.828 1400.79 324.365 1402.85 321.148 1404.31C317.931 1405.77 314.086 1406.5 309.612 1406.5H292.949L295.437 1403.86V1423.16H289.858ZM295.437 1404.31L292.949 1401.6H309.461C314.739 1401.6 318.735 1400.47 321.45 1398.2C324.214 1395.89 325.597 1392.65 325.597 1388.48C325.597 1384.26 324.214 1380.99 321.45 1378.68C318.735 1376.36 314.739 1375.21 309.461 1375.21H292.949L295.437 1372.57V1404.31ZM339.685 1423.16L363.812 1370.38H369.316L393.444 1423.16H387.563L365.396 1373.62H367.658L345.491 1423.16H339.685ZM349.185 1409.06L350.844 1404.54H381.531L383.19 1409.06H349.185ZM409.714 1423.16V1370.38H429.469C433.942 1370.38 437.788 1371.11 441.005 1372.57C444.222 1373.98 446.685 1376.04 448.394 1378.75C450.153 1381.42 451.033 1384.66 451.033 1388.48C451.033 1392.2 450.153 1395.41 448.394 1398.13C446.685 1400.79 444.222 1402.85 441.005 1404.31C437.788 1405.72 433.942 1406.42 429.469 1406.42H412.806L415.294 1403.86V1423.16H409.714ZM445.755 1423.16L432.183 1404.01H438.215L451.862 1423.16H445.755ZM415.294 1404.31L412.806 1401.67H429.318C434.596 1401.67 438.592 1400.52 441.306 1398.2C444.071 1395.89 445.453 1392.65 445.453 1388.48C445.453 1384.26 444.071 1380.99 441.306 1378.68C438.592 1376.36 434.596 1375.21 429.318 1375.21H412.806L415.294 1372.57V1404.31ZM494.662 1423.61C490.691 1423.61 487.022 1422.96 483.654 1421.65C480.286 1420.3 477.371 1418.41 474.908 1416C472.445 1413.59 470.51 1410.75 469.102 1407.48C467.745 1404.21 467.067 1400.64 467.067 1396.77C467.067 1392.9 467.745 1389.33 469.102 1386.07C470.51 1382.8 472.445 1379.96 474.908 1377.55C477.421 1375.13 480.362 1373.27 483.729 1371.97C487.097 1370.61 490.767 1369.93 494.738 1369.93C498.558 1369.93 502.152 1370.58 505.52 1371.89C508.887 1373.15 511.727 1375.06 514.04 1377.62L510.496 1381.16C508.334 1378.95 505.947 1377.37 503.333 1376.41C500.719 1375.41 497.904 1374.91 494.888 1374.91C491.722 1374.91 488.781 1375.46 486.067 1376.57C483.352 1377.62 480.99 1379.15 478.979 1381.16C476.969 1383.12 475.385 1385.44 474.229 1388.1C473.123 1390.71 472.571 1393.61 472.571 1396.77C472.571 1399.94 473.123 1402.85 474.229 1405.52C475.385 1408.13 476.969 1410.44 478.979 1412.45C480.99 1414.41 483.352 1415.95 486.067 1417.05C488.781 1418.11 491.722 1418.64 494.888 1418.64C497.904 1418.64 500.719 1418.13 503.333 1417.13C505.947 1416.12 508.334 1414.52 510.496 1412.3L514.04 1415.85C511.727 1418.41 508.887 1420.35 505.52 1421.65C502.152 1422.96 498.533 1423.61 494.662 1423.61ZM538.45 1393.98H566.347V1398.73H538.45V1393.98ZM539.053 1418.34H570.795V1423.16H533.473V1370.38H569.664V1375.21H539.053V1418.34ZM591.45 1423.16V1370.38H597.03V1423.16H591.45ZM621.742 1423.16V1370.38H641.497C645.97 1370.38 649.815 1371.11 653.032 1372.57C656.249 1373.98 658.712 1376.04 660.421 1378.75C662.181 1381.42 663.06 1384.66 663.06 1388.48C663.06 1392.2 662.181 1395.41 660.421 1398.13C658.712 1400.79 656.249 1402.85 653.032 1404.31C649.815 1405.72 645.97 1406.42 641.497 1406.42H624.834L627.322 1403.86V1423.16H621.742ZM657.783 1423.16L644.211 1404.01H650.243L663.89 1423.16H657.783ZM627.322 1404.31L624.834 1401.67H641.346C646.624 1401.67 650.62 1400.52 653.334 1398.2C656.099 1395.89 657.481 1392.65 657.481 1388.48C657.481 1384.26 656.099 1380.99 653.334 1378.68C650.62 1376.36 646.624 1375.21 641.346 1375.21H624.834L627.322 1372.57V1404.31ZM706.841 1423.61C702.87 1423.61 699.175 1422.96 695.757 1421.65C692.389 1420.3 689.449 1418.41 686.936 1416C684.473 1413.54 682.537 1410.7 681.13 1407.48C679.773 1404.21 679.094 1400.64 679.094 1396.77C679.094 1392.9 679.773 1389.36 681.13 1386.14C682.537 1382.87 684.473 1380.03 686.936 1377.62C689.449 1375.16 692.389 1373.27 695.757 1371.97C699.125 1370.61 702.82 1369.93 706.841 1369.93C710.812 1369.93 714.481 1370.61 717.849 1371.97C721.217 1373.27 724.132 1375.13 726.595 1377.55C729.108 1379.96 731.044 1382.8 732.401 1386.07C733.808 1389.33 734.512 1392.9 734.512 1396.77C734.512 1400.64 733.808 1404.21 732.401 1407.48C731.044 1410.75 729.108 1413.59 726.595 1416C724.132 1418.41 721.217 1420.3 717.849 1421.65C714.481 1422.96 710.812 1423.61 706.841 1423.61ZM706.841 1418.64C710.007 1418.64 712.923 1418.11 715.587 1417.05C718.301 1415.95 720.639 1414.41 722.599 1412.45C724.61 1410.44 726.168 1408.13 727.274 1405.52C728.38 1402.85 728.932 1399.94 728.932 1396.77C728.932 1393.61 728.38 1390.71 727.274 1388.1C726.168 1385.44 724.61 1383.12 722.599 1381.16C720.639 1379.15 718.301 1377.62 715.587 1376.57C712.923 1375.46 710.007 1374.91 706.841 1374.91C703.674 1374.91 700.734 1375.46 698.019 1376.57C695.305 1377.62 692.942 1379.15 690.932 1381.16C688.971 1383.12 687.413 1385.44 686.257 1388.1C685.151 1390.71 684.598 1393.61 684.598 1396.77C684.598 1399.89 685.151 1402.78 686.257 1405.44C687.413 1408.11 688.971 1410.44 690.932 1412.45C692.942 1414.41 695.305 1415.95 698.019 1417.05C700.734 1418.11 703.674 1418.64 706.841 1418.64ZM781.831 1423.16V1370.38H803.319C808.949 1370.38 813.875 1371.51 818.097 1373.78C822.37 1375.99 825.687 1379.08 828.05 1383.05C830.412 1387.02 831.593 1391.59 831.593 1396.77C831.593 1401.95 830.412 1406.52 828.05 1410.49C825.687 1414.47 822.37 1417.58 818.097 1419.84C813.875 1422.06 808.949 1423.16 803.319 1423.16H781.831ZM787.41 1418.34H803.018C807.692 1418.34 811.739 1417.43 815.157 1415.62C818.625 1413.76 821.314 1411.22 823.224 1408.01C825.134 1404.74 826.089 1400.99 826.089 1396.77C826.089 1392.5 825.134 1388.75 823.224 1385.54C821.314 1382.32 818.625 1379.81 815.157 1378C811.739 1376.14 807.692 1375.21 803.018 1375.21H787.41V1418.34ZM851.662 1423.16V1370.38H857.242V1423.16H851.662ZM873.51 1423.16L897.637 1370.38H903.141L927.268 1423.16H921.387L899.22 1373.62H901.482L879.315 1423.16H873.51ZM883.01 1409.06L884.668 1404.54H915.356L917.014 1409.06H883.01ZM943.539 1423.16V1370.38H948.138L972.266 1411.55H969.853L993.754 1370.38H998.354V1423.16H993V1378.75H994.282L972.266 1416.45H969.627L947.46 1378.75H948.892V1423.16H943.539ZM1014.65 1423.16L1038.77 1370.38H1044.28L1068.4 1423.16H1062.52L1040.36 1373.62H1042.62L1020.45 1423.16H1014.65ZM1024.15 1409.06L1025.8 1404.54H1056.49L1058.15 1409.06H1024.15ZM1084.67 1423.16V1370.38H1089.27L1125.69 1416.22H1123.28V1370.38H1128.78V1423.16H1124.18L1087.84 1377.32H1090.25V1423.16H1084.67ZM1163.8 1423.16V1375.21H1145.26V1370.38H1187.93V1375.21H1169.38V1423.16H1163.8ZM1209.36 1393.98H1237.26V1398.73H1209.36V1393.98ZM1209.96 1418.34H1241.71V1423.16H1204.38V1370.38H1240.58V1375.21H1209.96V1418.34Z" fill="#474747"/>
<path d="M896.414 519.195C897.475 553.984 905.881 588.175 921.097 619.586C924.401 610.14 927.575 601.014 929.001 596.036C935.479 573.761 938.264 560.423 939.884 552.445L940.273 550.722C942.735 538.66 944.42 528.321 945.52 519.13L896.414 519.195Z" fill="#1984CF" fill-opacity="0.4"/>
<path d="M1006.23 519.195V521.172C1002.57 550.541 996.329 579.541 987.568 607.842V608.162C979.34 632.222 969.752 655.964 959.127 679.195C961.678 680.487 964.489 681.206 967.355 681.301H1066.87C1070.05 681.286 1073.19 680.496 1076 679.004C1078.8 677.457 1081.18 675.267 1082.93 672.622C1098.67 650.092 1137.55 585.76 1137.55 519.13L1006.23 519.195Z" fill="#1984CF" fill-opacity="0.4"/>
<path d="M904.707 776.269C904.707 780.364 903.477 784.368 901.171 787.775C898.864 791.182 895.587 793.841 891.75 795.416C887.924 797.003 883.697 797.404 879.635 796.565C875.56 795.794 871.814 793.838 868.881 790.948C865.964 788.037 863.961 784.359 863.115 780.354C862.335 776.338 862.767 772.186 864.356 768.409C865.945 764.633 868.621 761.397 872.055 759.101C876.102 756.462 880.949 755.281 885.777 755.759C890.606 756.236 895.118 758.34 898.552 761.718C902.427 765.609 904.631 770.82 904.707 776.269Z" fill="#1984CF" fill-opacity="0.8"/>
<path d="M1094.4 776.268C1094.4 780.363 1093.17 784.367 1090.86 787.774C1088.56 791.181 1085.28 793.84 1081.44 795.415C1077.62 797.002 1073.39 797.403 1069.33 796.563C1065.25 795.794 1061.51 793.837 1058.57 790.947C1055.66 788.035 1053.65 784.357 1052.81 780.352C1052.03 776.337 1052.46 772.185 1054.05 768.408C1055.64 764.631 1058.31 761.396 1061.75 759.1C1065.21 756.855 1069.26 755.658 1073.41 755.654C1076.17 755.581 1078.91 756.103 1081.44 757.186C1084.01 758.201 1086.35 759.721 1088.31 761.652C1090.22 763.476 1091.76 765.642 1092.84 768.036C1093.91 770.651 1094.44 773.45 1094.4 776.268Z" fill="#1984CF" fill-opacity="0.8"/>
<path d="M993.138 519.576H958.348C957.118 530.107 955.174 541.404 952.777 553.21C951.222 560.677 948.436 574.973 941.245 599.545C937.617 611.863 923.559 651.114 920.579 656.985C920.061 656.474 914.748 647.923 912.351 643.71C906.656 633.852 901.572 623.666 897.126 613.203C896.544 611.8 892.656 601.652 892.008 599.865C890.324 595.269 887.603 587.1 886.372 583.654C879.662 562.896 875.166 541.508 872.962 519.831H818.347V546.637H841.8C845.035 564.122 849.759 581.309 855.924 598.014C865.982 626.52 880.306 653.388 898.422 677.726C900.403 680.442 902.567 683.022 904.901 685.45L907.233 688.194C904.317 693.937 901.403 700.192 898.487 705.936C897.515 707.851 896.544 709.318 895.572 711.234C890.195 720.871 884.817 730.891 879.441 740.017H911.185C917.664 729.487 924.79 718.892 930.621 708.106C948.054 674.647 962.889 639.935 974.999 604.268C983.54 576.613 989.61 548.274 993.138 519.576Z" fill="#1984CF" fill-opacity="0.8"/>
<path d="M492.154 692.726C457.041 692.726 436.569 674.983 436.569 633.243V545.935H411.691V518.62H436.569V479.752L471.163 477.837V518.62H514.116V545.935H471.163V632.796C471.163 655.325 480.947 663.941 497.985 663.941C504.731 663.955 511.452 663.162 518.003 661.58L519.947 688.896C510.924 691.507 501.559 692.797 492.154 692.726Z" fill="#1984CF" fill-opacity="0.8"/>
<path d="M627.231 514.278C635.418 514.162 643.592 514.976 651.59 516.704L646.731 545.423C641.216 543.748 635.464 542.951 629.693 543.063C615.852 542.863 602.151 545.811 589.656 551.678V688.894H555.061V530.553C577.531 519.745 602.225 514.176 627.231 514.278Z" fill="#1984CF" fill-opacity="0.8"/>
<path d="M733.543 692.725C688.194 692.725 665.778 671.153 665.778 641.668C665.778 606.693 694.543 589.397 733.543 589.397C745.823 589.455 758.066 590.737 770.082 593.226V579.506C770.082 556.019 757.125 543.062 729.656 543.062C713.772 542.937 698.017 545.863 683.27 551.678L676.467 524.362C694.582 517.847 713.741 514.605 733.025 514.79C780.319 514.79 803.771 538.723 803.771 581.42V677.854C781.942 688.379 757.832 693.484 733.543 692.725ZM769.629 660.111V615.947C759.025 613.402 748.15 612.117 737.237 612.118C715.792 612.118 700.179 619.33 700.179 640.456C700.179 658.197 713.136 667.323 736.264 667.323C747.841 667.904 759.362 665.413 769.629 660.111Z" fill="#1984CF" fill-opacity="0.8"/>
<g filter="url(#filter0_d_276_665)">
<path d="M1196.72 830.66V888.979H1196.71V888.969L1180.45 865.389L1196.72 830.66Z" fill="#A0DAF8"/>
<path d="M1212.99 865.39L1196.72 888.981V830.671L1196.77 830.772L1212.99 865.39Z" fill="#E2F3FD"/>
<path d="M1249.37 870.963L1196.72 888.984L1212.99 865.395L1249.37 870.963Z" fill="#B9E4FA"/>
<path d="M1249.37 870.961L1223.04 897.994L1196.72 888.982L1249.37 870.961Z" fill="#81CFF7"/>
<path d="M1229.26 936.149L1196.72 918.137V888.977L1229.26 936.149Z" fill="#58BFF4"/>
<path d="M1196.71 888.977L1164.18 936.149L1170.39 897.988L1196.71 888.977Z" fill="#5ABFF4"/>
<path d="M1196.71 888.972V888.982L1170.39 897.994L1144.06 870.961L1196.71 888.972Z" fill="#46B7F2"/>
<path d="M1196.71 888.974L1144.06 870.963L1180.45 865.395L1196.71 888.974Z" fill="#82CFF7"/>
<path d="M1229.26 936.149L1229.13 935.968L1196.72 888.977L1223.04 897.988L1229.22 935.917L1229.26 936.149Z" fill="#E2F3FD"/>
<path d="M1196.72 888.977V918.137L1164.18 936.149L1196.71 888.977H1196.72Z" fill="#A0DAF8"/>
</g>
<g filter="url(#filter1_d_276_665)">
<path d="M1030.45 838.854V935.405H1030.43V935.389L1003.51 896.351L1030.45 838.854Z" fill="#A0DAF8"/>
<path d="M1057.39 896.348L1030.45 935.405V838.868L1030.52 839.036L1057.39 896.348Z" fill="#E2F3FD"/>
<path d="M1117.61 905.571L1030.45 935.406L1057.39 896.353L1117.61 905.571Z" fill="#B9E4FA"/>
<path d="M1117.61 905.572L1074.03 950.327L1030.45 935.408L1117.61 905.572Z" fill="#81CFF7"/>
<path d="M1084.31 1013.5L1030.45 983.681V935.403L1084.31 1013.5Z" fill="#58BFF4"/>
<path d="M1030.43 935.403L976.567 1013.5L986.849 950.322L1030.43 935.403Z" fill="#5ABFF4"/>
<path d="M1030.43 935.391V935.408L986.85 950.327L943.27 905.572L1030.43 935.391Z" fill="#46B7F2"/>
<path d="M1030.43 935.39L943.27 905.571L1003.51 896.353L1030.43 935.39Z" fill="#82CFF7"/>
<path d="M1084.31 1013.5L1084.11 1013.2L1030.45 935.403L1074.03 950.322L1084.25 1013.12L1084.31 1013.5Z" fill="#E2F3FD"/>
<path d="M1030.45 935.403V983.681L976.567 1013.5L1030.43 935.403H1030.45Z" fill="#A0DAF8"/>
</g>
<g filter="url(#filter2_d_276_665)">
<path d="M501.331 838.854V935.405H501.315V935.389L474.391 896.351L501.331 838.854Z" fill="#A0DAF8"/>
<path d="M528.27 896.348L501.329 935.405V838.868L501.407 839.036L528.27 896.348Z" fill="#E2F3FD"/>
<path d="M588.493 905.571L501.329 935.406L528.27 896.353L588.493 905.571Z" fill="#B9E4FA"/>
<path d="M588.493 905.572L544.912 950.327L501.329 935.408L588.493 905.572Z" fill="#81CFF7"/>
<path d="M555.194 1013.5L501.329 983.681V935.403L555.194 1013.5Z" fill="#58BFF4"/>
<path d="M501.313 935.403L447.448 1013.5L457.73 950.322L501.313 935.403Z" fill="#5ABFF4"/>
<path d="M501.317 935.391V935.408L457.734 950.327L414.153 905.572L501.317 935.391Z" fill="#46B7F2"/>
<path d="M501.317 935.39L414.153 905.571L474.39 896.353L501.317 935.39Z" fill="#82CFF7"/>
<path d="M555.194 1013.5L554.991 1013.2L501.329 935.403L544.912 950.322L555.133 1013.12L555.194 1013.5Z" fill="#E2F3FD"/>
<path d="M501.33 935.403V983.681L447.448 1013.5L501.313 935.403H501.33Z" fill="#A0DAF8"/>
</g>
<g filter="url(#filter3_d_276_665)">
<path d="M335.827 830.656V888.975H335.816V888.965L319.554 865.385L335.827 830.656Z" fill="#A0DAF8"/>
<path d="M352.098 865.386L335.825 888.977V830.667L335.872 830.768L352.098 865.386Z" fill="#E2F3FD"/>
<path d="M388.473 870.961L335.825 888.982L352.098 865.393L388.473 870.961Z" fill="#B9E4FA"/>
<path d="M388.473 870.959L362.15 897.992L335.825 888.98L388.473 870.959Z" fill="#81CFF7"/>
<path d="M368.36 936.15L335.825 918.138V888.978L368.36 936.15Z" fill="#58BFF4"/>
<path d="M335.816 888.978L303.28 936.15L309.491 897.989L335.816 888.978Z" fill="#5ABFF4"/>
<path d="M335.816 888.97V888.98L309.491 897.992L283.167 870.959L335.816 888.97Z" fill="#46B7F2"/>
<path d="M335.816 888.972L283.167 870.961L319.551 865.393L335.816 888.972Z" fill="#82CFF7"/>
<path d="M368.36 936.15L368.237 935.969L335.825 888.978L362.15 897.989L368.323 935.918L368.36 936.15Z" fill="#E2F3FD"/>
<path d="M335.826 888.978V918.138L303.28 936.15L335.816 888.978H335.826Z" fill="#A0DAF8"/>
</g>
<g filter="url(#filter4_d_276_665)">
<path d="M719.608 972.909L768.132 908.926L816.654 972.909H719.608Z" fill="#B5DFF8"/>
<path d="M635.081 972.909L671.086 908.926L719.608 972.909H635.081Z" fill="#43A7E9"/>
<path d="M901.179 972.909L865.191 908.926L816.652 972.909H901.179Z" fill="#E0F1FB"/>
<path d="M865.194 908.926L816.653 972.909L768.131 908.926H865.194Z" fill="#9ED5F4"/>
<path d="M768.129 908.926L719.607 972.909L671.084 908.926H768.129Z" fill="#7CC4F1"/>
<path d="M635.081 972.908L768.132 1127.03L719.608 972.908H635.081Z" fill="#50AEEA"/>
<path d="M816.653 972.908L768.131 1127.03L901.18 972.908H816.653Z" fill="#56B5ED"/>
<path d="M719.608 972.908L768.132 1127.03L816.654 972.908H719.608Z" fill="#D0EBFA"/>
</g>
</g>
<rect x="11.7719" y="11.4433" width="1505.96" height="1505.96" rx="253.835" stroke="#E0E0E0" stroke-width="22.531"/>
<defs>
<filter id="filter0_d_276_665" x="302.755" y="456.745" width="1414.01" height="1414.19" filterUnits="userSpaceOnUse" color-interpolation-filters="sRGB">
<feFlood flood-opacity="0" result="BackgroundImageFix"/>
<feColorMatrix in="SourceAlpha" type="matrix" values="0 0 0 0 0 0 0 0 0 0 0 0 0 0 0 0 0 0 127 0" result="hardAlpha"/>
<feOffset dx="-186.958" dy="280.437"/>
<feGaussianBlur stdDeviation="327.176"/>
<feComposite in2="hardAlpha" operator="out"/>
<feColorMatrix type="matrix" values="0 0 0 0 0.117647 0 0 0 0 0.403922 0 0 0 0 0.603922 0 0 0 0.16 0"/>
<feBlend mode="normal" in2="BackgroundImageFix" result="effect1_dropShadow_276_665"/>
<feBlend mode="normal" in="SourceGraphic" in2="effect1_dropShadow_276_665" result="shape"/>
</filter>
<filter id="filter1_d_276_665" x="101.961" y="464.94" width="1483.04" height="1483.35" filterUnits="userSpaceOnUse" color-interpolation-filters="sRGB">
<feFlood flood-opacity="0" result="BackgroundImageFix"/>
<feColorMatrix in="SourceAlpha" type="matrix" values="0 0 0 0 0 0 0 0 0 0 0 0 0 0 0 0 0 0 127 0" result="hardAlpha"/>
<feOffset dx="-186.958" dy="280.437"/>
<feGaussianBlur stdDeviation="327.176"/>
<feComposite in2="hardAlpha" operator="out"/>
<feColorMatrix type="matrix" values="0 0 0 0 0.117647 0 0 0 0 0.403922 0 0 0 0 0.603922 0 0 0 0.16 0"/>
<feBlend mode="normal" in2="BackgroundImageFix" result="effect1_dropShadow_276_665"/>
<feBlend mode="normal" in="SourceGraphic" in2="effect1_dropShadow_276_665" result="shape"/>
</filter>
<filter id="filter2_d_276_665" x="-427.156" y="464.94" width="1483.04" height="1483.35" filterUnits="userSpaceOnUse" color-interpolation-filters="sRGB">
<feFlood flood-opacity="0" result="BackgroundImageFix"/>
<feColorMatrix in="SourceAlpha" type="matrix" values="0 0 0 0 0 0 0 0 0 0 0 0 0 0 0 0 0 0 127 0" result="hardAlpha"/>
<feOffset dx="-186.958" dy="280.437"/>
<feGaussianBlur stdDeviation="327.176"/>
<feComposite in2="hardAlpha" operator="out"/>
<feColorMatrix type="matrix" values="0 0 0 0 0.117647 0 0 0 0 0.403922 0 0 0 0 0.603922 0 0 0 0.16 0"/>
<feBlend mode="normal" in2="BackgroundImageFix" result="effect1_dropShadow_276_665"/>
<feBlend mode="normal" in="SourceGraphic" in2="effect1_dropShadow_276_665" result="shape"/>
</filter>
<filter id="filter3_d_276_665" x="-558.142" y="456.741" width="1414.01" height="1414.2" filterUnits="userSpaceOnUse" color-interpolation-filters="sRGB">
<feFlood flood-opacity="0" result="BackgroundImageFix"/>
<feColorMatrix in="SourceAlpha" type="matrix" values="0 0 0 0 0 0 0 0 0 0 0 0 0 0 0 0 0 0 127 0" result="hardAlpha"/>
<feOffset dx="-186.958" dy="280.437"/>
<feGaussianBlur stdDeviation="327.176"/>
<feComposite in2="hardAlpha" operator="out"/>
<feColorMatrix type="matrix" values="0 0 0 0 0.117647 0 0 0 0 0.403922 0 0 0 0 0.603922 0 0 0 0.16 0"/>
<feBlend mode="normal" in2="BackgroundImageFix" result="effect1_dropShadow_276_665"/>
<feBlend mode="normal" in="SourceGraphic" in2="effect1_dropShadow_276_665" result="shape"/>
</filter>
<filter id="filter4_d_276_665" x="-206.228" y="535.011" width="1574.8" height="1526.8" filterUnits="userSpaceOnUse" color-interpolation-filters="sRGB">
<feFlood flood-opacity="0" result="BackgroundImageFix"/>
<feColorMatrix in="SourceAlpha" type="matrix" values="0 0 0 0 0 0 0 0 0 0 0 0 0 0 0 0 0 0 127 0" result="hardAlpha"/>
<feOffset dx="-186.958" dy="280.437"/>
<feGaussianBlur stdDeviation="327.176"/>
<feComposite in2="hardAlpha" operator="out"/>
<feColorMatrix type="matrix" values="0 0 0 0 0.117647 0 0 0 0 0.403922 0 0 0 0 0.603922 0 0 0 0.24 0"/>
<feBlend mode="normal" in2="BackgroundImageFix" result="effect1_dropShadow_276_665"/>
<feBlend mode="normal" in="SourceGraphic" in2="effect1_dropShadow_276_665" result="shape"/>
</filter>
<clipPath id="clip0_276_665">
<rect width="971.271" height="965.195" fill="white" transform="translate(278.109 477.837)"/>
</clipPath>
</defs>
</svg>
