<svg width="137" height="137" viewBox="0 0 137 137" fill="none" xmlns="http://www.w3.org/2000/svg">
<rect x="1" y="1" width="135" height="135" rx="22.7621" fill="white" stroke="#E0E0E0" stroke-width="2"/>
<path d="M51.118 127V122.247H52.8969C53.2998 122.247 53.6461 122.313 53.9358 122.444C54.2255 122.571 54.4473 122.756 54.6012 123.001C54.7596 123.241 54.8388 123.533 54.8388 123.877C54.8388 124.212 54.7596 124.501 54.6012 124.746C54.4473 124.986 54.2255 125.171 53.9358 125.303C53.6461 125.434 53.2998 125.499 52.8969 125.499H51.3964L51.6205 125.262V127H51.118ZM51.6205 125.303L51.3964 125.058H52.8834C53.3586 125.058 53.7185 124.956 53.9629 124.753C54.2119 124.544 54.3364 124.252 54.3364 123.877C54.3364 123.496 54.2119 123.202 53.9629 122.994C53.7185 122.786 53.3586 122.682 52.8834 122.682H51.3964L51.6205 122.444V125.303ZM56.6042 127V122.247H58.3831C58.786 122.247 59.1323 122.313 59.422 122.444C59.7117 122.571 59.9335 122.756 60.0874 123.001C60.2458 123.241 60.325 123.533 60.325 123.877C60.325 124.212 60.2458 124.501 60.0874 124.746C59.9335 124.986 59.7117 125.171 59.422 125.303C59.1323 125.429 58.786 125.493 58.3831 125.493H56.8826L57.1066 125.262V127H56.6042ZM59.8497 127L58.6276 125.275H59.1707L60.3997 127H59.8497ZM57.1066 125.303L56.8826 125.065H58.3695C58.8448 125.065 59.2047 124.961 59.4491 124.753C59.6981 124.544 59.8226 124.252 59.8226 123.877C59.8226 123.496 59.6981 123.202 59.4491 122.994C59.2047 122.786 58.8448 122.682 58.3695 122.682H56.8826L57.1066 122.444V125.303ZM62.638 124.372H65.1502V124.8H62.638V124.372ZM62.6923 126.565H65.5508V127H62.1899V122.247H65.449V122.682H62.6923V126.565ZM67.4108 127V122.247H67.825L69.9977 125.954H69.7805L71.9328 122.247H72.347V127H71.8649V123.001H71.9803L69.9977 126.396H69.7601L67.7639 123.001H67.8929V127H67.4108ZM74.5746 127V122.247H75.077V127H74.5746ZM77.7505 124.372H80.2628V124.8H77.7505V124.372ZM77.8049 126.565H80.6634V127H77.3024V122.247H80.5615V122.682H77.8049V126.565ZM82.5234 127V122.247H84.3023C84.7052 122.247 85.0514 122.313 85.3411 122.444C85.6308 122.571 85.8526 122.756 86.0065 123.001C86.165 123.241 86.2442 123.533 86.2442 123.877C86.2442 124.212 86.165 124.501 86.0065 124.746C85.8526 124.986 85.6308 125.171 85.3411 125.303C85.0514 125.429 84.7052 125.493 84.3023 125.493H82.8018L83.0258 125.262V127H82.5234ZM85.7689 127L84.5467 125.275H85.0899L86.3189 127H85.7689ZM83.0258 125.303L82.8018 125.065H84.2887C84.764 125.065 85.1239 124.961 85.3683 124.753C85.6173 124.544 85.7417 124.252 85.7417 123.877C85.7417 123.496 85.6173 123.202 85.3683 122.994C85.1239 122.786 84.764 122.682 84.2887 122.682H82.8018L83.0258 122.444V125.303Z" fill="#474747"/>
<path d="M87.6506 57.1959C87.6192 55.8391 87.4689 54.4877 87.2014 53.1572H68.8004V60.7868H79.1241C78.9454 61.9841 78.5232 63.132 77.8834 64.1596C77.2435 65.1872 76.3998 66.0727 75.4043 66.7614V71.7332H81.7984C83.7347 69.8531 85.2561 67.5885 86.2649 65.0851C87.2736 62.5817 87.7474 59.8949 87.6556 57.1975L87.6506 57.1959Z" fill="#4284F4"/>
<path d="M68.7426 76.4974C73.5412 76.6313 78.2095 74.9259 81.7918 71.7303L75.4027 66.7584C73.8802 67.7376 72.1539 68.3555 70.3559 68.5649C68.5579 68.7742 66.7358 68.5694 65.0292 67.9662C63.3225 67.363 61.7764 66.3773 60.5093 65.0846C59.2422 63.7919 58.2876 62.2265 57.7186 60.5081H51.1494V65.6286C52.7847 68.8942 55.2964 71.6404 58.4035 73.5599C61.5106 75.4794 65.0905 76.4965 68.7426 76.4974V76.4974Z" fill="#34A853"/>
<path d="M57.7187 60.5028C56.9042 58.0655 56.9042 55.4294 57.7187 52.9921V47.8716H51.1412C49.7619 50.6241 49.0437 53.6604 49.0437 56.7392C49.0437 59.818 49.7619 62.8543 51.1412 65.6068L57.7104 60.4863L57.7187 60.5028Z" fill="#FBBC04"/>
<path d="M68.7426 44.8555C71.5441 44.8108 74.2504 45.8719 76.2748 47.8089L81.919 42.1482C78.3602 38.7904 73.6368 36.9451 68.7443 37.0012C65.0909 37.0032 61.5102 38.022 58.403 39.9436C55.2958 41.8652 52.7848 44.6138 51.1511 47.8816L57.7202 53.0021C58.4737 50.6615 59.9427 48.6163 61.9202 47.1547C63.8977 45.6932 66.2839 44.889 68.7426 44.8555V44.8555Z" fill="#EA4335"/>
<path d="M26.5344 96.9464C25.7993 96.5254 25.1897 95.9158 24.7687 95.1807C24.34 94.4228 24.1148 93.567 24.1148 92.6964C24.1148 91.8257 24.34 90.9699 24.7687 90.2121C25.1926 89.4761 25.8041 88.8658 26.5409 88.4433C27.2776 88.0208 28.1133 87.8012 28.9626 87.8071C29.6271 87.8017 30.2863 87.9256 30.9034 88.1721C31.4763 88.3941 31.9889 88.7478 32.3999 89.2045L31.6021 90.0023C31.2985 89.631 30.9074 89.341 30.464 89.1582C29.9934 88.961 29.4877 88.861 28.9774 88.8642C28.3295 88.8601 27.6915 89.024 27.1258 89.3399C26.5557 89.6573 26.0815 90.1223 25.7531 90.6861C25.4142 91.3011 25.2364 91.9918 25.2364 92.6939C25.2364 93.396 25.4142 94.0867 25.7531 94.7016C26.0824 95.2671 26.5592 95.7324 27.1324 96.0478C27.654 96.3272 28.2307 96.4885 28.8216 96.5202C29.4125 96.5518 30.0031 96.4532 30.5516 96.2312C30.9618 96.0438 31.3324 95.7797 31.6434 95.4532C31.8781 95.1942 32.0639 94.8948 32.1918 94.5695C32.3365 94.2034 32.4245 93.8174 32.4528 93.4248H28.984V92.3908H33.4819C33.5239 92.6152 33.546 92.843 33.5479 93.0713C33.5486 93.6426 33.4554 94.2101 33.2721 94.7512C33.0933 95.2896 32.7939 95.78 32.3966 96.1849C31.9574 96.6512 31.4229 97.0173 30.8294 97.2585C30.236 97.4996 29.5976 97.6101 28.9576 97.5824C28.1078 97.5891 27.2714 97.3696 26.5344 96.9464Z" fill="#5F6368"/>
<path d="M28.9676 97.7013C28.0939 97.7059 27.2347 97.4779 26.4783 97.0406C25.727 96.6114 25.1029 95.9907 24.6696 95.2417C24.2307 94.4664 24 93.5906 24 92.6996C24 91.8087 24.2307 90.9329 24.6696 90.1575C25.1032 89.4035 25.7293 88.7781 26.4839 88.3453C27.2385 87.9126 28.0944 87.6881 28.9643 87.6947C29.6429 87.6904 30.3159 87.8171 30.9464 88.068C31.5356 88.2967 32.0629 88.6605 32.4859 89.1301L32.5569 89.2111L31.5923 90.1757L31.513 90.0766C31.2213 89.7199 30.8455 89.4412 30.4195 89.2656C29.9618 89.0744 29.4702 88.9778 28.9742 88.9815C28.3458 88.9778 27.7271 89.1371 27.1787 89.444C26.6265 89.7518 26.1669 90.2018 25.8473 90.7472C25.5191 91.3447 25.3471 92.0154 25.3471 92.6972C25.3471 93.3789 25.5191 94.0496 25.8473 94.6471C26.1677 95.1941 26.6292 95.6448 27.1836 95.952C27.6899 96.2222 28.2492 96.3782 28.8223 96.4091C29.3953 96.4399 29.9681 96.3448 30.5004 96.1304C30.8967 95.9484 31.2549 95.6928 31.5559 95.3772C31.7815 95.1291 31.9601 94.8419 32.0828 94.5298C32.2079 94.212 32.289 93.8785 32.324 93.5388H28.8784V92.2768H33.586L33.6041 92.3709C33.6472 92.602 33.6698 92.8363 33.6719 93.0713C33.6722 93.6548 33.5773 94.2345 33.3911 94.7875C33.206 95.3416 32.8976 95.8465 32.4892 96.2642C32.039 96.7415 31.4917 97.1167 30.8842 97.3646C30.2767 97.6125 29.6232 97.7273 28.9676 97.7013ZM28.9676 87.921C28.1374 87.9143 27.3203 88.1282 26.6 88.5409C25.8797 88.9536 25.2819 89.5503 24.8678 90.2699C24.4495 91.0105 24.2297 91.8466 24.2297 92.6972C24.2297 93.5477 24.4495 94.3839 24.8678 95.1245C25.2803 95.8411 25.8753 96.4355 26.5923 96.8473C27.3145 97.2631 28.1343 97.4792 28.9676 97.4733C29.5915 97.4991 30.2137 97.3909 30.7924 97.1562C31.3711 96.9214 31.8927 96.5654 32.3224 96.1122C32.7078 95.7186 32.9987 95.2424 33.173 94.7198C33.3515 94.1902 33.4424 93.6351 33.4423 93.0763C33.4411 92.8864 33.425 92.697 33.3944 92.5097H29.0997V93.3141H32.5685L32.5586 93.438C32.5279 93.8413 32.4372 94.2377 32.2893 94.6141C32.1565 94.9522 31.9634 95.2633 31.7195 95.5325C31.3976 95.8694 31.0148 96.1424 30.5913 96.3369C30.0271 96.5656 29.4195 96.6676 28.8115 96.6357C28.2036 96.6037 27.6101 96.4385 27.073 96.1519C26.4825 95.8252 25.9912 95.3453 25.6508 94.7627C25.3019 94.1305 25.1188 93.4201 25.1188 92.698C25.1188 91.9759 25.3019 91.2655 25.6508 90.6333C25.9918 90.0507 26.483 89.5704 27.073 89.2425C27.5959 88.9558 28.1765 88.79 28.7719 88.7574C29.3674 88.7249 29.9626 88.8262 30.5136 89.0541C30.9346 89.2284 31.311 89.4948 31.6154 89.8338L32.248 89.2012C31.8603 88.7959 31.3884 88.4807 30.8655 88.2778C30.2618 88.0377 29.6173 87.9165 28.9676 87.921Z" fill="#5F6368"/>
<path d="M36.3081 97.1149C35.7907 96.808 35.3678 96.3645 35.0858 95.8331C34.798 95.2798 34.6477 94.6654 34.6477 94.0417C34.6477 93.4181 34.798 92.8036 35.0858 92.2504C35.3684 91.7194 35.7911 91.276 36.3081 90.9686C36.8452 90.6602 37.4537 90.4979 38.0731 90.4979C38.6924 90.4979 39.3009 90.6602 39.838 90.9686C40.3548 91.2762 40.7776 91.7195 41.0603 92.2504C41.3481 92.8036 41.4984 93.4181 41.4984 94.0417C41.4984 94.6654 41.3481 95.2798 41.0603 95.8331C40.7781 96.3643 40.3552 96.8077 39.838 97.1149C39.3009 97.4232 38.6924 97.5855 38.0731 97.5855C37.4537 97.5855 36.8452 97.4232 36.3081 97.1149ZM39.2186 96.2725C39.577 96.0618 39.8707 95.7566 40.0676 95.3904C40.278 94.9726 40.3877 94.5112 40.3877 94.0434C40.3877 93.5755 40.278 93.1142 40.0676 92.6963C39.8705 92.3303 39.5768 92.0252 39.2186 91.8143C38.8713 91.6116 38.476 91.506 38.0739 91.5087C37.663 91.5064 37.2592 91.6158 36.9057 91.8253C36.5521 92.0348 36.2622 92.3364 36.067 92.698C35.8559 93.1156 35.7459 93.5771 35.7459 94.045C35.7459 94.513 35.8559 94.9744 36.067 95.392C36.2647 95.7599 36.561 96.0653 36.9226 96.2741C37.2737 96.4778 37.6729 96.5839 38.0789 96.5813C38.4795 96.582 38.8731 96.4754 39.2186 96.2725Z" fill="#5F6368"/>
<path d="M38.0722 97.6947C37.4306 97.7028 36.7992 97.5342 36.247 97.2074C35.7138 96.8896 35.277 96.4328 34.9834 95.8859C34.6867 95.3159 34.5319 94.6827 34.5319 94.0401C34.5319 93.3974 34.6867 92.7643 34.9834 92.1942C35.2776 91.6477 35.7142 91.1911 36.247 90.8728C36.8022 90.554 37.4312 90.3862 38.0714 90.3862C38.7116 90.3862 39.3406 90.554 39.8958 90.8728C40.4293 91.1907 40.8665 91.6474 41.1611 92.1942C41.4577 92.7643 41.6126 93.3974 41.6126 94.0401C41.6126 94.6827 41.4577 95.3159 41.1611 95.8859C40.8671 96.4331 40.4297 96.8899 39.8958 97.2074C39.3442 97.5342 38.7133 97.7028 38.0722 97.6947ZM38.0722 90.6085C37.472 90.6004 36.8811 90.7575 36.3643 91.0627C35.865 91.3603 35.4566 91.7887 35.1832 92.3016C34.9052 92.8374 34.7601 93.4323 34.7601 94.0359C34.7601 94.6396 34.9052 95.2345 35.1832 95.7703C35.4561 96.2836 35.8646 96.7121 36.3643 97.0092C36.8836 97.3069 37.4719 97.4636 38.0706 97.4636C38.6692 97.4636 39.2575 97.3069 39.7769 97.0092C40.2764 96.712 40.6849 96.2835 40.9579 95.7703C41.2359 95.2345 41.381 94.6396 41.381 94.0359C41.381 93.4323 41.2359 92.8374 40.9579 92.3016C40.6844 91.7888 40.276 91.3604 39.7769 91.0627C39.2606 90.7594 38.6709 90.604 38.0722 90.6134V90.6085ZM38.0722 96.6887C37.6408 96.6908 37.2168 96.5758 36.8457 96.3558C36.4745 96.1359 36.1699 95.8194 35.9645 95.44C35.7438 95.0049 35.6288 94.5238 35.6288 94.0359C35.6288 93.548 35.7438 93.067 35.9645 92.6319C36.1734 92.2459 36.4849 91.9252 36.8648 91.7053C37.141 91.5431 37.4471 91.4384 37.7648 91.3973C38.0825 91.3563 38.4052 91.3797 38.7136 91.4662C39.022 91.5527 39.3098 91.7005 39.5597 91.9008C39.8097 92.1011 40.0167 92.3498 40.1683 92.6319C40.3885 93.0672 40.5033 93.5481 40.5033 94.0359C40.5033 94.5237 40.3885 95.0047 40.1683 95.44C39.9603 95.8239 39.652 96.1441 39.2764 96.3666C38.9113 96.581 38.4956 96.6939 38.0722 96.6937V96.6887ZM38.0722 91.6161C37.6817 91.6141 37.298 91.7181 36.962 91.9171C36.626 92.1161 36.3504 92.4025 36.1644 92.7459C35.9631 93.1464 35.8582 93.5885 35.8582 94.0368C35.8582 94.485 35.9631 94.9271 36.1644 95.3276C36.353 95.6768 36.6342 95.9671 36.9771 96.1667C37.3089 96.3571 37.6847 96.4573 38.0673 96.4573C38.4498 96.4573 38.8257 96.3571 39.1574 96.1667C39.4981 95.9659 39.7774 95.6757 39.9652 95.3276C40.1659 94.9269 40.2704 94.4849 40.2704 94.0368C40.2704 93.5886 40.1659 93.1466 39.9652 92.7459C39.7777 92.3976 39.4984 92.1073 39.1574 91.9068C38.8277 91.7163 38.453 91.6176 38.0722 91.621V91.6161Z" fill="#5F6368"/>
<path d="M44.0946 97.1148C43.5774 96.8077 43.1545 96.3642 42.8723 95.833C42.5844 95.2798 42.4342 94.6653 42.4342 94.0417C42.4342 93.418 42.5844 92.8036 42.8723 92.2503C43.155 91.7195 43.5777 91.2762 44.0946 90.9685C44.6317 90.6602 45.2402 90.4979 45.8595 90.4979C46.4788 90.4979 47.0873 90.6602 47.6244 90.9685C48.1414 91.276 48.5642 91.7193 48.8468 92.2503C49.1346 92.8036 49.2848 93.418 49.2848 94.0417C49.2848 94.6653 49.1346 95.2798 48.8468 95.833C48.5648 96.3644 48.1419 96.8079 47.6244 97.1148C47.0873 97.4232 46.4788 97.5854 45.8595 97.5854C45.2402 97.5854 44.6317 97.4232 44.0946 97.1148ZM47.005 96.2724C47.364 96.0619 47.6583 95.7568 47.8557 95.3904C48.0661 94.9725 48.1758 94.5112 48.1758 94.0433C48.1758 93.5755 48.0661 93.1141 47.8557 92.6963C47.658 92.3301 47.3638 92.025 47.005 91.8142C46.6578 91.6115 46.2624 91.5059 45.8603 91.5086C45.4545 91.5055 45.0553 91.611 44.7041 91.8142C44.3419 92.0229 44.0451 92.3283 43.8468 92.6963C43.6357 93.1139 43.5258 93.5754 43.5258 94.0433C43.5258 94.5113 43.6357 94.9727 43.8468 95.3904C44.0448 95.7585 44.3417 96.064 44.7041 96.2724C45.0551 96.4762 45.4544 96.5823 45.8603 96.5796C46.2603 96.5807 46.6533 96.4746 46.9984 96.2724H47.005Z" fill="#5F6368"/>
<path d="M45.8554 97.6946C45.2166 97.7014 44.5882 97.5329 44.0384 97.2074C43.5048 96.8897 43.0674 96.4329 42.7732 95.8859C42.4765 95.3159 42.3217 94.6827 42.3217 94.0401C42.3217 93.3974 42.4765 92.7643 42.7732 92.1942C43.0679 91.6475 43.5051 91.1909 44.0384 90.8727C44.5934 90.5541 45.2221 90.3864 45.862 90.3864C46.5019 90.3864 47.1307 90.5541 47.6856 90.8727C48.2191 91.1907 48.6564 91.6474 48.9509 92.1942C49.2475 92.7643 49.4024 93.3974 49.4024 94.0401C49.4024 94.6827 49.2475 95.3159 48.9509 95.8859C48.6569 96.4331 48.2195 96.8899 47.6856 97.2074C47.1322 97.5356 46.4988 97.7043 45.8554 97.6946ZM45.8554 90.6085C45.2557 90.6004 44.6654 90.7576 44.1491 91.0627C43.65 91.3604 43.2416 91.7888 42.9681 92.3015C42.6901 92.8374 42.545 93.4322 42.545 94.0359C42.545 94.6396 42.6901 95.2344 42.9681 95.7703C43.2411 96.2835 43.6496 96.712 44.1491 97.0091C44.6685 97.3069 45.2567 97.4636 45.8554 97.4636C46.4541 97.4636 47.0423 97.3069 47.5617 97.0091C48.0609 96.7114 48.4692 96.2831 48.7427 95.7703C49.0202 95.2343 49.165 94.6395 49.165 94.0359C49.165 93.4323 49.0202 92.8376 48.7427 92.3015C48.4687 91.7892 48.0604 91.3609 47.5617 91.0627C47.0449 90.7593 46.4546 90.6039 45.8554 90.6134V90.6085ZM45.8554 96.6887C45.424 96.6908 45.0001 96.5757 44.6289 96.3558C44.2577 96.1359 43.9531 95.8194 43.7477 95.44C43.5264 95.005 43.411 94.5239 43.411 94.0359C43.411 93.5479 43.5264 93.0668 43.7477 92.6319C43.956 92.2455 44.2677 91.9246 44.648 91.7053C45.0144 91.495 45.4296 91.3844 45.8521 91.3844C46.2746 91.3844 46.6898 91.495 47.0563 91.7053C47.4326 91.9269 47.7411 92.2474 47.9482 92.6319C48.1689 93.067 48.284 93.548 48.284 94.0359C48.284 94.5238 48.1689 95.0048 47.9482 95.44C47.7405 95.824 47.4322 96.1444 47.0563 96.3666C46.6923 96.5806 46.2777 96.6935 45.8554 96.6937V96.6887ZM45.8554 91.6161C45.4649 91.6141 45.0812 91.7181 44.7452 91.9171C44.4093 92.1161 44.1336 92.4025 43.9476 92.7459C43.7463 93.1464 43.6414 93.5885 43.6414 94.0368C43.6414 94.485 43.7463 94.9271 43.9476 95.3276C44.1362 95.6773 44.4181 95.9677 44.7619 96.1667C45.0937 96.3573 45.4695 96.4576 45.8521 96.4576C46.2347 96.4576 46.6106 96.3573 46.9423 96.1667C47.2832 95.9661 47.5625 95.6759 47.75 95.3276C47.9514 94.9271 48.0562 94.485 48.0562 94.0368C48.0562 93.5885 47.9514 93.1464 47.75 92.7459C47.5626 92.3976 47.2832 92.1073 46.9423 91.9068C46.6122 91.7158 46.2368 91.617 45.8554 91.621V91.6161Z" fill="#5F6368"/>
<path d="M51.5492 99.8617C51.0746 99.542 50.7147 99.079 50.5218 98.5403L51.5294 98.1091C51.6756 98.4886 51.9336 98.8147 52.2694 99.0441C52.6294 99.2883 53.0567 99.4142 53.4917 99.4041C53.784 99.4224 54.0769 99.3806 54.3524 99.2815C54.628 99.1824 54.8803 99.0279 55.0939 98.8277C55.2941 98.6042 55.4475 98.3429 55.545 98.0592C55.6426 97.7755 55.6825 97.4752 55.6622 97.1759V96.4309H55.6093C55.3779 96.7807 55.0606 97.0651 54.6876 97.2568C54.2707 97.4753 53.8055 97.5855 53.3348 97.5773C52.7772 97.5823 52.2301 97.4263 51.759 97.128C51.275 96.8191 50.8839 96.3847 50.6275 95.871C50.3519 95.2987 50.2088 94.6718 50.2088 94.0367C50.2088 93.4015 50.3519 92.7745 50.6275 92.2023C50.8825 91.6859 51.2737 91.2489 51.759 90.9387C52.2299 90.6401 52.7772 90.4841 53.3348 90.4894C53.8055 90.4812 54.2707 90.5914 54.6876 90.8099C55.0638 91.0044 55.3818 91.2951 55.6093 91.6523H55.6605V90.6976H56.7193V97.1049C56.7511 97.555 56.688 98.0069 56.5341 98.4312C56.3801 98.8554 56.1388 99.2426 55.8257 99.5677C55.232 100.058 54.4996 100.35 53.7314 100.403C52.9632 100.456 52.1977 100.266 51.5426 99.8617H51.5492ZM54.5819 96.2806C54.9194 96.0663 55.1909 95.7627 55.3665 95.4035C55.572 94.9822 55.6728 94.5176 55.6605 94.049C55.6736 93.5762 55.5727 93.1071 55.3665 92.6814C55.1917 92.3239 54.9198 92.0228 54.5819 91.8125C54.2508 91.6149 53.8723 91.5106 53.4868 91.5106C53.1012 91.5106 52.7228 91.6149 52.3916 91.8125C52.0516 92.0251 51.7777 92.3283 51.6004 92.688C51.3954 93.1094 51.2946 93.5739 51.3064 94.0424C51.2953 94.513 51.396 94.9795 51.6004 95.4035C51.7699 95.7596 52.0381 96.0596 52.373 96.2678C52.708 96.476 53.0957 96.5836 53.4901 96.5779C53.8749 96.585 54.2537 96.4818 54.5819 96.2806Z" fill="#5F6368"/>
<path d="M53.49 100.526C52.7771 100.553 52.0739 100.353 51.4814 99.9559C50.988 99.6217 50.6138 99.1392 50.4127 98.5783L50.3797 98.4792L51.5921 97.9588L51.635 98.0695C51.7726 98.4274 52.0157 98.735 52.3321 98.9516C52.673 99.1817 53.0771 99.3 53.4883 99.2902C53.7655 99.3074 54.0433 99.2681 54.3048 99.1746C54.5663 99.0812 54.8061 98.9357 55.0096 98.7468C55.198 98.5341 55.3423 98.2862 55.4341 98.0174C55.526 97.7486 55.5636 97.4643 55.5448 97.1808V96.715C55.3211 96.9829 55.0473 97.2045 54.7388 97.3675C54.3043 97.5927 53.8207 97.7062 53.3314 97.6979C52.7528 97.7021 52.1851 97.5399 51.6962 97.2304C51.1954 96.9105 50.7903 96.4614 50.5234 95.9304C50.2395 95.3418 50.0921 94.6968 50.0921 94.0433C50.0921 93.3898 50.2395 92.7447 50.5234 92.1561C50.7885 91.6222 51.1939 91.1705 51.6962 90.8495C52.1849 90.5395 52.7527 90.3772 53.3314 90.3821C53.8207 90.3735 54.3044 90.4871 54.7388 90.7124C55.0491 90.8762 55.3233 91.101 55.5448 91.3732V90.5919H56.8316V97.1164C56.8618 97.5801 56.7951 98.045 56.6359 98.4815C56.4766 98.918 56.2282 99.3166 55.9066 99.6519C55.2471 100.249 54.379 100.563 53.49 100.526ZM50.6654 98.603C50.8616 99.076 51.1917 99.4814 51.6152 99.7692C52.0858 100.14 52.6542 100.366 53.2511 100.42C53.8479 100.473 54.4475 100.352 54.9765 100.07C55.5056 99.7891 55.9413 99.3597 56.2305 98.8349C56.5197 98.31 56.65 97.7124 56.6053 97.1148V90.8231H55.7794V91.7779H55.5498L55.5167 91.725C55.2989 91.3847 54.9952 91.1078 54.6363 90.9222C54.236 90.7131 53.7897 90.6075 53.338 90.615C52.802 90.6105 52.2761 90.7607 51.8233 91.0478C51.356 91.3476 50.9791 91.769 50.7332 92.2668C50.4662 92.8227 50.3275 93.4315 50.3275 94.0482C50.3275 94.6649 50.4662 95.2738 50.7332 95.8297C50.9814 96.3247 51.3586 96.7436 51.825 97.0421C52.2781 97.328 52.8039 97.4777 53.3397 97.4732C53.7912 97.4816 54.2376 97.3766 54.638 97.1676C54.994 96.9831 55.2971 96.7108 55.5184 96.3764L55.5514 96.3236H55.781V97.1825C55.8003 97.4957 55.7571 97.8096 55.6539 98.106C55.5507 98.4023 55.3895 98.6752 55.1798 98.9086C54.9554 99.1195 54.6905 99.2824 54.4011 99.3875C54.1117 99.4926 53.804 99.5376 53.4966 99.5198C53.0386 99.53 52.5889 99.3972 52.2099 99.1399C51.8886 98.9202 51.6343 98.6161 51.4748 98.2611L50.6654 98.603ZM53.49 96.6936C53.0746 96.6995 52.6663 96.586 52.3135 96.3667C51.9606 96.1474 51.6782 95.8315 51.4996 95.4564C51.2867 95.016 51.1814 94.5314 51.1924 94.0425C51.1809 93.5555 51.2863 93.073 51.4996 92.6351C51.6846 92.258 51.9705 91.9396 52.3255 91.7151C52.675 91.5061 53.0745 91.3958 53.4817 91.3958C53.8889 91.3958 54.2885 91.5061 54.638 91.7151C54.9927 91.9378 55.2786 92.2546 55.4639 92.6302C55.677 93.0728 55.7817 93.5597 55.7695 94.0507C55.7811 94.5375 55.6763 95.0199 55.4639 95.458C55.2774 95.8346 54.9919 96.1532 54.638 96.3797C54.2925 96.5904 53.8946 96.6992 53.49 96.6936ZM53.49 91.6209C53.1241 91.6177 52.7647 91.7173 52.4527 91.9083C52.1315 92.1094 51.872 92.3952 51.7028 92.7342C51.5064 93.1395 51.4096 93.5857 51.4203 94.0358C51.4102 94.4886 51.507 94.9374 51.7028 95.3457C51.863 95.6826 52.1166 95.9665 52.4334 96.1635C52.7502 96.3606 53.1169 96.4626 53.49 96.4574C53.8539 96.4611 54.2113 96.3614 54.5207 96.17C54.8391 95.9676 55.0962 95.682 55.264 95.3441C55.4605 94.9389 55.5574 94.4926 55.5465 94.0425C55.5591 93.5858 55.4622 93.1327 55.264 92.721C55.0979 92.382 54.8405 92.0959 54.5207 91.8951C54.2092 91.7099 53.8524 91.615 53.49 91.6209Z" fill="#5F6368"/>
<path d="M58.3544 88.0151H59.4661V97.3774H58.3544V88.0151Z" fill="#5F6368"/>
<path d="M59.5802 97.4915H58.2406V87.9012H59.5802V97.4915ZM58.4685 97.2635H59.3506V88.1357H58.4685V97.2635Z" fill="#5F6368"/>
<path d="M62.3666 97.1297C61.8636 96.8261 61.4543 96.3894 61.1839 95.8677C60.8942 95.3066 60.7483 94.6822 60.7594 94.0508C60.7527 93.435 60.8889 92.826 61.1575 92.2718C61.4109 91.7464 61.8019 91.2995 62.289 90.9784C62.7945 90.651 63.3865 90.4825 63.9887 90.4945C64.5849 90.4796 65.1735 90.6312 65.6883 90.9322C66.1649 91.2211 66.5485 91.6407 66.7934 92.1413C67.0586 92.691 67.191 93.2952 67.1799 93.9054C67.1814 94.0195 67.1681 94.1333 67.1403 94.244H61.8711C61.8813 94.6955 62.0069 95.1368 62.2361 95.5258C62.4349 95.8576 62.7205 96.1289 63.062 96.3104C63.3862 96.4819 63.7474 96.5716 64.1142 96.5714C64.5245 96.579 64.9286 96.4701 65.2794 96.2572C65.6303 96.0444 65.9136 95.7363 66.0963 95.3689L67.0379 95.8264C66.7677 96.3492 66.3643 96.7914 65.8684 97.1082C65.3367 97.4144 64.7344 97.5767 64.1209 97.579C63.5074 97.5813 62.9039 97.4236 62.3699 97.1215L62.3666 97.1297ZM66.0005 93.3306C65.9788 93.0384 65.8985 92.7536 65.7643 92.4931C65.6131 92.2018 65.3845 91.9578 65.1036 91.7878C64.7619 91.5853 64.3691 91.4856 63.9721 91.5004C63.484 91.4879 63.0102 91.6656 62.6507 91.9959C62.2795 92.35 62.0303 92.8127 61.9388 93.3174L66.0005 93.3306Z" fill="#5F6368"/>
<path d="M64.0812 97.6946C63.458 97.703 62.8446 97.539 62.3088 97.2205C61.7877 96.9062 61.3636 96.4541 61.0832 95.914C60.7864 95.3377 60.6361 94.6972 60.6454 94.0491C60.6397 93.4162 60.7798 92.7905 61.0551 92.2206C61.3176 91.6767 61.7223 91.2138 62.2262 90.881C62.7514 90.5443 63.365 90.3718 63.9887 90.3854C64.606 90.3712 65.2151 90.529 65.7478 90.8413C66.2424 91.1418 66.6407 91.5773 66.8958 92.0967C67.1684 92.663 67.3047 93.2852 67.2939 93.9137C67.2957 94.0384 67.2807 94.1629 67.2493 94.2837L67.2262 94.3662H61.9933C62.0177 94.7568 62.1343 95.1361 62.3336 95.4729C62.523 95.7882 62.7948 96.0458 63.1198 96.2179C63.4283 96.3811 63.7718 96.4667 64.1208 96.4673C64.5099 96.4741 64.8929 96.3699 65.225 96.1669C65.557 95.9638 65.8243 95.6704 65.9956 95.321L66.0485 95.2301L67.1931 95.7851L67.137 95.8908C66.8558 96.429 66.439 96.8845 65.9279 97.2123C65.3714 97.5471 64.7303 97.7145 64.0812 97.6946ZM62.4294 97.0256C62.9449 97.3165 63.5271 97.4684 64.119 97.4664C64.7109 97.4643 65.2921 97.3085 65.8056 97.0141C66.2507 96.729 66.6193 96.3394 66.8793 95.8793L66.1393 95.5192C65.9409 95.8792 65.6481 96.1783 65.2925 96.3843C64.9369 96.5904 64.5318 96.6956 64.1208 96.6887C63.7357 96.688 63.3565 96.5939 63.0158 96.4145C62.6545 96.2236 62.3518 95.9382 62.1403 95.5886C61.9009 95.183 61.769 94.7231 61.7571 94.2523V94.1317H67.0478C67.0599 94.0574 67.066 93.9823 67.0659 93.907C67.0767 93.3143 66.9489 92.7271 66.6926 92.1925C66.4558 91.7139 66.0873 91.3128 65.6306 91.0362C65.1333 90.7468 64.5655 90.601 63.9903 90.615C63.4105 90.6037 62.8404 90.7659 62.3534 91.0808C61.8841 91.3916 61.5069 91.8229 61.2616 92.3296C61.0012 92.868 60.869 93.4593 60.875 94.0574C60.8658 94.6675 61.007 95.2706 61.2863 95.8132C61.5474 96.3164 61.9424 96.7377 62.4277 97.0306L62.4294 97.0256ZM66.1277 93.4462H61.7951L61.8232 93.3074C61.9189 92.7776 62.1803 92.2918 62.5698 91.9199C62.9507 91.5665 63.4543 91.3751 63.9738 91.3864C64.3924 91.372 64.8063 91.478 65.1664 91.692C65.4647 91.8731 65.7071 92.1332 65.8668 92.4436C66.0075 92.7174 66.0918 93.0168 66.1145 93.324L66.1277 93.4462ZM62.0825 93.2183H65.8816C65.849 92.984 65.7775 92.7568 65.6702 92.546C65.5285 92.2734 65.3149 92.0449 65.0524 91.8853C64.7285 91.6955 64.3572 91.6021 63.9821 91.616C63.5202 91.6052 63.0723 91.7746 62.7333 92.0884C62.4092 92.3945 62.1824 92.7891 62.0809 93.2232L62.0825 93.2183Z" fill="#5F6368"/>
<path d="M71.207 88.0152H74.3586C74.8644 88.0112 75.3633 88.1326 75.8106 88.3687C76.2476 88.5983 76.6154 88.9404 76.876 89.3597C77.1375 89.7917 77.2757 90.2869 77.2757 90.7918C77.2757 91.2968 77.1375 91.792 76.876 92.2239C76.6152 92.6431 76.2475 92.9852 75.8106 93.215C75.3634 93.4515 74.8645 93.573 74.3586 93.5685H72.3055V97.3858H71.207V88.0152ZM74.3851 92.5031C74.7097 92.5102 75.0295 92.4242 75.3068 92.2553C75.5647 92.0977 75.7784 91.8772 75.9279 91.6144C76.0741 91.3638 76.1512 91.0788 76.1512 90.7885C76.1512 90.4983 76.0741 90.2133 75.9279 89.9626C75.7784 89.6999 75.5647 89.4794 75.3068 89.3218C75.0295 89.1527 74.7098 89.0662 74.3851 89.0723H72.3055V92.5031H74.3851Z" fill="#5F6368"/>
<path d="M72.4195 97.4915H71.098V87.9012H74.3636C74.8883 87.8976 75.4058 88.0235 75.87 88.2679C76.3242 88.5059 76.7067 88.8605 76.9784 89.2953C77.2512 89.7453 77.3954 90.2615 77.3954 90.7877C77.3954 91.314 77.2512 91.8301 76.9784 92.2801C76.7065 92.7148 76.324 93.0693 75.87 93.3075C75.4059 93.5523 74.8883 93.6783 74.3636 93.6742H72.4195V97.4915ZM71.321 97.2636H72.1866V93.4463H74.3537C74.8408 93.4503 75.3214 93.334 75.7528 93.1077C76.1711 92.8871 76.5238 92.56 76.7752 92.1595C77.0246 91.7457 77.1564 91.2717 77.1564 90.7886C77.1564 90.3054 77.0246 89.8314 76.7752 89.4176C76.5237 89.0171 76.171 88.6901 75.7528 88.4694C75.3212 88.2437 74.8408 88.1274 74.3537 88.1308H71.321V97.2636ZM72.1866 92.6138V88.9617H74.3818C74.7279 88.956 75.0686 89.0482 75.3646 89.2276C75.6389 89.3963 75.8662 89.6315 76.0253 89.9115C76.181 90.1784 76.2631 90.482 76.2631 90.791C76.2631 91.1001 76.181 91.4036 76.0253 91.6706C75.8664 91.9499 75.639 92.1841 75.3646 92.3512C75.0701 92.5296 74.731 92.6207 74.3868 92.6138H72.1866ZM72.4195 92.3858H74.3851C74.6881 92.392 74.9866 92.3118 75.2457 92.1546C75.4871 92.0066 75.6876 91.8005 75.8288 91.555C75.9641 91.3219 76.0354 91.0572 76.0354 90.7877C76.0354 90.5182 75.9641 90.2535 75.8288 90.0205C75.6871 89.7749 75.4868 89.5683 75.2457 89.4192C74.9863 89.2627 74.688 89.1826 74.3851 89.188H72.4195V92.3858Z" fill="#5F6368"/>
<path d="M79.5107 97.2998C79.1455 97.1249 78.837 96.8507 78.6203 96.5086C78.4095 96.1645 78.3012 95.7674 78.3081 95.3639C78.2951 95.0442 78.361 94.7263 78.5002 94.4381C78.6393 94.15 78.8474 93.9007 79.106 93.7121C79.6936 93.2981 80.4012 93.0892 81.1195 93.1175C81.4962 93.1146 81.8718 93.1584 82.2377 93.248C82.5147 93.3092 82.7812 93.4105 83.029 93.5486V93.1423C83.0375 92.9161 82.9948 92.691 82.9041 92.4836C82.8135 92.2763 82.6771 92.0921 82.5053 91.9447C82.1358 91.6361 81.665 91.4755 81.1839 91.4938C80.8247 91.49 80.4699 91.5733 80.1499 91.7366C79.845 91.8887 79.5874 92.1212 79.4049 92.4089L78.5675 91.7812C78.8346 91.3751 79.2076 91.0495 79.6461 90.8397C80.1203 90.6091 80.6418 90.4926 81.169 90.4994C81.9463 90.4548 82.7112 90.7096 83.3065 91.2113C83.5683 91.4597 83.7734 91.7617 83.9077 92.0967C84.042 92.4317 84.1023 92.7917 84.0845 93.1522V97.3758H83.0257V96.4227H82.9728C82.7598 96.7664 82.4631 97.0506 82.1106 97.2486C81.7176 97.4768 81.2699 97.5939 80.8156 97.5872C80.3641 97.5946 79.9172 97.4962 79.5107 97.2998ZM81.9685 96.3187C82.2868 96.131 82.5522 95.8656 82.7399 95.5473C82.9307 95.2273 83.0302 94.8611 83.0273 94.4885C82.7889 94.3366 82.5288 94.2219 82.2559 94.1482C81.9409 94.06 81.6151 94.0161 81.288 94.0177C80.7987 93.9818 80.312 94.116 79.9104 94.3976C79.7618 94.5133 79.6425 94.6621 79.5619 94.8322C79.4812 95.0023 79.4417 95.189 79.4462 95.3772C79.4414 95.5477 79.4767 95.7169 79.5493 95.8713C79.6219 96.0257 79.7297 96.1608 79.8641 96.2658C80.166 96.5003 80.5409 96.6208 80.9229 96.6061C81.2912 96.6079 81.6529 96.5084 81.9685 96.3187Z" fill="#5F6368"/>
<path d="M80.8189 97.6946C80.3484 97.7024 79.8827 97.5994 79.4594 97.394C79.077 97.2111 78.7532 96.9251 78.5245 96.5681C78.3026 96.2055 78.1881 95.7874 78.1942 95.3623C78.1811 95.0245 78.2511 94.6888 78.3979 94.3844C78.5448 94.08 78.7641 93.8163 79.0366 93.6163C79.645 93.189 80.3764 92.9721 81.1195 92.9986C81.5057 92.9956 81.8907 93.0406 82.2658 93.1324C82.4887 93.1848 82.7061 93.2584 82.915 93.352V93.1373C82.9241 92.9277 82.8852 92.7187 82.8013 92.5264C82.7175 92.334 82.5908 92.1633 82.431 92.0273C82.0822 91.7376 81.6386 91.587 81.1856 91.6044C80.8453 91.601 80.5093 91.6797 80.2061 91.834C79.9192 91.9777 79.6767 92.1963 79.504 92.4667L79.438 92.5707L78.4172 91.8043L78.475 91.7151C78.7537 91.2925 79.1419 90.9534 79.5982 90.7339C80.0885 90.4962 80.6274 90.3757 81.1723 90.3821C81.9785 90.3385 82.7708 90.6044 83.3874 91.1254C83.6609 91.3846 83.8753 91.6996 84.0161 92.049C84.1569 92.3985 84.2208 92.7742 84.2034 93.1505V97.4881H82.9166V96.7101C82.71 96.965 82.458 97.1795 82.1733 97.3428C81.762 97.5805 81.2939 97.7021 80.8189 97.6946ZM81.1195 93.2232C80.4268 93.199 79.7452 93.402 79.1786 93.8013C78.9331 93.9785 78.7357 94.2143 78.6044 94.4872C78.4732 94.7601 78.4122 95.0615 78.4271 95.3639C78.4208 95.7459 78.5233 96.1217 78.7227 96.4475C78.9277 96.7711 79.2196 97.0304 79.5652 97.1958C79.9569 97.3844 80.3874 97.4789 80.8222 97.4716C81.2563 97.4752 81.6833 97.361 82.0577 97.1412C82.3944 96.9538 82.6785 96.6845 82.8836 96.3583L82.9166 96.3021H83.1429V97.2552H83.9688V93.1538C83.9856 92.8093 83.928 92.4651 83.8001 92.1448C83.6721 91.8245 83.4767 91.5354 83.2272 91.2972C82.6523 90.8161 81.9158 90.5722 81.1674 90.615C80.6578 90.6096 80.154 90.7227 79.6957 90.9454C79.309 91.1315 78.9747 91.4107 78.7227 91.7581L79.3835 92.2536C79.5718 91.9958 79.8187 91.7864 80.1036 91.6424C80.4397 91.4718 80.812 91.3846 81.1889 91.3881C81.6972 91.3708 82.194 91.5413 82.5846 91.8671C82.7685 92.0253 82.9146 92.2227 83.012 92.4448C83.1095 92.6669 83.1559 92.9081 83.1479 93.1505V93.7617L82.9728 93.6527C82.7347 93.5208 82.4788 93.4239 82.213 93.3653C81.8552 93.2769 81.488 93.2331 81.1195 93.2348V93.2232ZM80.9229 96.7151C80.5144 96.7295 80.1139 96.5997 79.7915 96.3484C79.6454 96.2338 79.528 96.0869 79.4483 95.9192C79.3686 95.7515 79.3289 95.5677 79.3323 95.3821C79.3277 95.1769 79.3711 94.9736 79.4588 94.7881C79.5465 94.6026 79.6763 94.44 79.8377 94.3134C80.2609 94.0159 80.7736 93.873 81.2896 93.9087C81.6273 93.9069 81.9636 93.9519 82.289 94.0425C82.5736 94.1194 82.8448 94.2391 83.0934 94.3976L83.1446 94.4307V94.4918C83.147 94.8852 83.0419 95.2719 82.8407 95.61C82.6425 95.945 82.3629 96.2245 82.028 96.4227C81.6936 96.6206 81.3115 96.7234 80.9229 96.72V96.7151ZM81.288 94.1267C80.8249 94.0924 80.364 94.2171 79.9814 94.4802C79.8457 94.5851 79.7367 94.7206 79.6632 94.8756C79.5898 95.0306 79.5539 95.2007 79.5585 95.3722C79.5538 95.5257 79.5854 95.6782 79.6508 95.8171C79.7163 95.9561 79.8137 96.0776 79.9352 96.1716C80.2187 96.3889 80.5693 96.4999 80.9262 96.4855C81.2751 96.4873 81.6179 96.3937 81.9173 96.2146C82.2187 96.0358 82.4703 95.7842 82.649 95.4828C82.8182 95.1978 82.9114 94.8743 82.9199 94.543C82.7053 94.4145 82.4741 94.3162 82.2328 94.2506C81.9249 94.1675 81.6069 94.1274 81.288 94.1317V94.1267Z" fill="#5F6368"/>
<path d="M85.4472 90.813H86.5076V91.8735H86.5605C86.7136 91.486 86.9953 91.1629 87.3583 90.9584C87.7314 90.7398 88.1565 90.6257 88.5889 90.628C88.7506 90.6255 88.9121 90.6388 89.0712 90.6677V91.8058C88.8733 91.7661 88.6717 91.7483 88.47 91.7529C88.2134 91.7438 87.9579 91.7891 87.7201 91.8859C87.4824 91.9827 87.2679 92.1288 87.0907 92.3145C86.7282 92.7142 86.5377 93.2405 86.5605 93.7796V97.4797H85.4488L85.4472 90.813ZM92.2195 97.4532C92.0029 97.3745 91.8045 97.2526 91.6364 97.0948C91.4647 96.9299 91.3306 96.7299 91.2433 96.5084C91.1495 96.248 91.1052 95.9724 91.1128 95.6957V91.7149H89.9566V90.7073H91.1128V88.8259H92.2228V90.7073H93.8449V91.7149H92.2228V95.4298C92.2007 95.7206 92.2744 96.0107 92.4326 96.2557C92.5222 96.3561 92.6334 96.4347 92.7579 96.4857C92.8824 96.5366 93.0169 96.5585 93.1511 96.5497C93.4114 96.5469 93.6653 96.4695 93.8829 96.3267V97.4119C93.7556 97.472 93.6213 97.5159 93.4831 97.5424C93.313 97.5718 93.1404 97.585 92.9678 97.5821C92.7109 97.586 92.4555 97.5423 92.2146 97.4532H92.2195Z" fill="#5F6368"/>
<path d="M92.9679 97.7012C92.6973 97.7029 92.4286 97.6553 92.175 97.5608C91.9445 97.4749 91.7334 97.3441 91.5539 97.1759C91.3711 96.9995 91.2281 96.7861 91.1344 96.5499C91.0353 96.2764 90.9883 95.9867 90.9956 95.6959V91.8307H89.8394V90.5952H90.9956V88.7121H92.3336V90.5935H93.9556V91.8291H92.3336V95.43C92.3121 95.696 92.377 95.9619 92.5186 96.1881C92.5975 96.275 92.6952 96.3428 92.8043 96.3863C92.9133 96.4298 93.0308 96.4479 93.1479 96.4392C93.3864 96.4365 93.6192 96.3654 93.8185 96.2344L93.9936 96.1237V97.4898L93.9276 97.5211C93.7917 97.5846 93.6486 97.6312 93.5014 97.6599C93.3252 97.6903 93.1466 97.7041 92.9679 97.7012ZM90.0624 91.6011H91.2186V95.6959C91.2118 95.9578 91.2532 96.2187 91.3409 96.4656C91.422 96.6719 91.5465 96.8584 91.7059 97.0124C91.8633 97.1576 92.048 97.2699 92.2494 97.3427C92.4763 97.428 92.7171 97.4706 92.9596 97.4683C93.1256 97.4712 93.2915 97.4585 93.4552 97.4303C93.5605 97.4101 93.6634 97.3791 93.7624 97.3378V96.5218C93.5696 96.6144 93.3585 96.663 93.1446 96.6639C92.994 96.6738 92.843 96.6492 92.7033 96.592C92.5636 96.5347 92.4389 96.4463 92.3385 96.3335C92.1608 96.0679 92.0776 95.7502 92.1023 95.4316V91.6011H93.7244V90.8215H92.1023V88.9401H91.2203V90.8215H90.064L90.0624 91.6011ZM86.6746 97.5955H85.3333V90.6992H86.6217V91.502C86.7927 91.2361 87.0257 91.0156 87.3006 90.8595C87.691 90.6319 88.1354 90.5132 88.5873 90.5159C88.7567 90.5135 88.9259 90.5268 89.0928 90.5555L89.1836 90.5754V91.9513L89.0432 91.9183C88.854 91.8806 88.6613 91.864 88.4684 91.8687C88.2273 91.8584 87.9867 91.8999 87.763 91.9906C87.5393 92.0812 87.3377 92.2187 87.1717 92.394C86.8323 92.7737 86.6545 93.271 86.6762 93.7798L86.6746 97.5955ZM85.5629 97.3675H86.4466V93.7815C86.4239 93.2132 86.6249 92.6587 87.0066 92.2371C87.1947 92.0401 87.4223 91.8851 87.6745 91.7823C87.9267 91.6796 88.1979 91.6313 88.4701 91.6408C88.6329 91.6392 88.7957 91.6486 88.9573 91.6688V90.7653C88.8352 90.7499 88.7121 90.7427 88.589 90.7438C88.1772 90.7416 87.7724 90.8494 87.4162 91.056C87.0747 91.2469 86.8102 91.5505 86.6679 91.915L86.6382 91.9876H86.3937V90.9272H85.5679L85.5629 97.3675Z" fill="#5F6368"/>
<path d="M95.1052 90.7076H96.1656V91.6904H96.2168C96.4256 91.334 96.7285 91.042 97.0923 90.8464C97.4811 90.6189 97.9236 90.4992 98.3741 90.4995C98.7126 90.4768 99.0521 90.5277 99.3691 90.6486C99.6862 90.7695 99.9733 90.9575 100.211 91.1998C100.656 91.7306 100.883 92.4109 100.845 93.1027V97.3775H99.7335V93.2712C99.7559 93.0283 99.7279 92.7834 99.6515 92.5518C99.575 92.3202 99.4517 92.1068 99.2892 91.925C98.9541 91.6322 98.5177 91.4822 98.0734 91.5071C97.7292 91.5027 97.3925 91.608 97.1121 91.8077C96.8268 92.0095 96.5991 92.2822 96.4514 92.5989C96.2954 92.9189 96.2146 93.2703 96.2152 93.6263V97.3775H95.1052V90.7076Z" fill="#5F6368"/>
<path d="M100.966 97.4913H99.6245V93.271C99.6457 93.0437 99.6205 92.8145 99.5504 92.5973C99.4802 92.38 99.3667 92.1794 99.2165 92.0074C98.9015 91.7361 98.4935 91.5975 98.0784 91.6209C97.758 91.617 97.4446 91.7147 97.1832 91.9C96.9147 92.0911 96.7002 92.3483 96.5604 92.6466C96.4125 92.9514 96.3357 93.2857 96.3358 93.6245V97.4913H94.9962V90.5918H96.2846V91.3863C96.4926 91.1254 96.7496 90.9077 97.0411 90.7454C97.4473 90.5087 97.9089 90.3839 98.379 90.3837C98.7333 90.3617 99.0882 90.4161 99.4197 90.5432C99.7511 90.6703 100.051 90.8671 100.3 91.1204C100.764 91.6734 101 92.3819 100.961 93.1025L100.966 97.4913ZM99.8541 97.2634H100.738V93.1025C100.775 92.439 100.558 91.7863 100.133 91.2757C99.9057 91.0462 99.6314 90.8684 99.3289 90.7544C99.0265 90.6404 98.7031 90.5928 98.3807 90.6149C97.9507 90.615 97.5284 90.729 97.1567 90.9453C96.8139 91.1318 96.5284 91.4082 96.3308 91.7448L96.2995 91.8042H96.0649V90.8231H95.239V97.265H96.1211V93.6311C96.1207 93.258 96.2055 92.8896 96.3688 92.5541C96.5258 92.2209 96.7658 91.9336 97.0659 91.72C97.3661 91.5076 97.7256 91.3955 98.0933 91.3995C98.5671 91.3745 99.0318 91.5357 99.3883 91.8488C99.562 92.0414 99.6943 92.2675 99.777 92.5133C99.8597 92.7591 99.891 93.0192 99.869 93.2776L99.8541 97.2634Z" fill="#5F6368"/>
<path d="M103.701 97.1297C103.198 96.8264 102.788 96.3896 102.518 95.8678C102.229 95.3064 102.083 94.6822 102.094 94.0508C102.088 93.4349 102.225 92.8259 102.494 92.2718C102.746 91.7464 103.137 91.2993 103.623 90.9785C104.13 90.6509 104.722 90.4824 105.325 90.4945C105.921 90.4795 106.51 90.6311 107.024 90.9322C107.501 91.2212 107.885 91.6408 108.13 92.1413C108.394 92.6911 108.527 93.2953 108.516 93.9054C108.518 94.0196 108.504 94.1334 108.476 94.2441H103.207C103.217 94.6958 103.343 95.1373 103.574 95.5258C103.773 95.8578 104.058 96.1291 104.4 96.3104C104.724 96.4821 105.085 96.5717 105.452 96.5714C105.862 96.5791 106.266 96.4701 106.617 96.2573C106.968 96.0444 107.251 95.7364 107.434 95.3689L108.377 95.8265C108.106 96.349 107.702 96.791 107.206 97.1083C106.675 97.4146 106.072 97.577 105.459 97.5793C104.845 97.5816 104.242 97.4238 103.708 97.1215L103.701 97.1297ZM107.335 93.3306C107.313 93.0385 107.233 92.7538 107.099 92.4932C106.948 92.2017 106.719 91.9576 106.438 91.7878C106.096 91.5851 105.704 91.4853 105.307 91.5004C104.819 91.4877 104.345 91.6654 103.985 91.996C103.613 92.3498 103.364 92.8125 103.272 93.3174L107.335 93.3306Z" fill="#5F6368"/>
<path d="M105.414 97.6946C104.791 97.7029 104.179 97.5388 103.643 97.2206C103.122 96.9066 102.698 96.4544 102.418 95.914C102.12 95.3379 101.969 94.6974 101.978 94.0491C101.973 93.416 102.113 92.7902 102.39 92.2206C102.651 91.6765 103.055 91.2136 103.559 90.881C104.085 90.544 104.699 90.3715 105.323 90.3854C105.941 90.371 106.55 90.5289 107.082 90.8413C107.577 91.1413 107.976 91.577 108.23 92.0967C108.503 92.663 108.639 93.2853 108.628 93.9137C108.63 94.0383 108.616 94.1627 108.585 94.2837L108.562 94.3679H103.328C103.351 94.7588 103.468 95.1383 103.668 95.4746C103.857 95.7899 104.129 96.0475 104.454 96.2196C104.762 96.3826 105.105 96.4681 105.454 96.469C105.843 96.476 106.226 96.3718 106.558 96.1688C106.89 95.9657 107.157 95.6722 107.328 95.3226L107.383 95.2318L108.528 95.7868L108.471 95.8925C108.19 96.4303 107.773 96.8857 107.262 97.2139C106.705 97.5483 106.064 97.7152 105.414 97.6946ZM103.762 97.0256C104.278 97.3165 104.86 97.4684 105.452 97.4664C106.044 97.4644 106.625 97.3085 107.138 97.0141C107.583 96.7283 107.951 96.3389 108.212 95.8793L107.472 95.5192C107.274 95.8791 106.981 96.1781 106.625 96.3841C106.27 96.5901 105.865 96.6954 105.454 96.6887C105.069 96.6883 104.689 96.5942 104.349 96.4145C103.988 96.2234 103.685 95.938 103.473 95.5886C103.234 95.1831 103.102 94.7231 103.09 94.2523V94.1317H108.389C108.401 94.0575 108.408 93.9823 108.407 93.9071C108.418 93.3143 108.29 92.7273 108.034 92.1925C107.796 91.7143 107.428 91.3133 106.972 91.0363C106.474 90.7466 105.907 90.6008 105.331 90.615C104.752 90.6036 104.182 90.7659 103.695 91.0809C103.224 91.3908 102.847 91.8223 102.603 92.3296C102.342 92.8685 102.209 93.4603 102.215 94.059C102.206 94.6693 102.348 95.2724 102.627 95.8149C102.889 96.3181 103.284 96.7393 103.769 97.0323L103.762 97.0256ZM107.461 93.4462H103.13L103.158 93.3075C103.253 92.7775 103.515 92.2916 103.904 91.92C104.285 91.5663 104.789 91.375 105.308 91.3864C105.727 91.372 106.141 91.4781 106.501 91.692C106.799 91.8733 107.041 92.1333 107.201 92.4436C107.343 92.7174 107.427 93.0168 107.451 93.324L107.461 93.4462ZM103.415 93.2183H107.214C107.182 92.984 107.11 92.7568 107.003 92.546C106.861 92.2733 106.647 92.0448 106.384 91.8853C106.06 91.6953 105.688 91.6019 105.313 91.616C104.851 91.6052 104.404 91.7747 104.065 92.0884C103.741 92.395 103.515 92.7895 103.414 93.2232L103.415 93.2183Z" fill="#5F6368"/>
<path d="M109.795 90.7076H110.855V91.7797H110.908C111.052 91.3988 111.319 91.0768 111.666 90.8646C112.014 90.6295 112.424 90.5025 112.844 90.4995C113.113 90.4929 113.381 90.5418 113.63 90.6432V91.8342C113.336 91.6915 113.013 91.6197 112.687 91.6244C112.369 91.6232 112.059 91.7195 111.798 91.9002C111.523 92.0885 111.3 92.3437 111.151 92.6419C110.989 92.9507 110.906 93.2944 110.908 93.6429V97.3792H109.796L109.795 90.7076Z" fill="#5F6368"/>
<path d="M111.022 97.4916H109.681V90.5921H110.969V91.3915C111.133 91.1402 111.349 90.9272 111.603 90.7672C111.969 90.5201 112.4 90.3862 112.842 90.3823C113.125 90.3764 113.406 90.4287 113.668 90.5359L113.737 90.5656V92.0159L113.572 91.9333C113.294 91.7987 112.989 91.7308 112.68 91.7351C112.385 91.7336 112.097 91.823 111.854 91.9911C111.595 92.1688 111.386 92.4092 111.245 92.6898C111.092 92.9829 111.013 93.309 111.015 93.6396L111.022 97.4916ZM109.91 97.2636H110.794V93.6413C110.792 93.2745 110.879 92.9128 111.048 92.5874C111.207 92.2734 111.442 92.0042 111.732 91.8045C112.012 91.6111 112.345 91.5079 112.685 91.5088C112.967 91.5065 113.247 91.5569 113.511 91.6575V90.7193C113.296 90.6447 113.068 90.6089 112.84 90.6135C112.443 90.6173 112.056 90.738 111.727 90.9604C111.401 91.1592 111.15 91.4608 111.014 91.8177L110.987 91.8937H110.741V90.8233H109.915L109.91 97.2636Z" fill="#5F6368"/>
</svg>
