<svg width="26" height="25" viewBox="0 0 26 25" fill="none" xmlns="http://www.w3.org/2000/svg">
<path d="M23.4082 16.3099C21.8501 16.3099 20.3201 16.072 18.8703 15.6042C18.1599 15.3676 17.2866 15.5847 16.853 16.0194L13.9913 18.1285C10.6727 16.3989 8.6284 14.4037 6.88108 11.1879L8.97775 8.46678C9.52248 7.93565 9.71787 7.1598 9.48378 6.43183C9.0026 5.00889 8.75818 3.51587 8.75818 1.99393C8.75824 0.894465 7.84209 0 6.71605 0H2.04219C0.916147 0 0 0.894465 0 1.99386C0 14.5958 10.5008 24.8481 23.4082 24.8481C24.5343 24.8481 25.4504 23.9536 25.4504 22.8542V18.3037C25.4504 17.2044 24.5342 16.3099 23.4082 16.3099Z" fill="#E50914"/>
</svg>
