<svg width="137" height="137" viewBox="0 0 137 137" fill="none" xmlns="http://www.w3.org/2000/svg">
<rect x="1" y="1" width="135" height="135" rx="22.7621" fill="white" stroke="#E0E0E0" stroke-width="2"/>
<path d="M31.865 127.041C31.5074 127.041 31.177 126.982 30.8737 126.864C30.5704 126.742 30.3079 126.572 30.0861 126.355C29.8643 126.138 29.69 125.882 29.5632 125.588C29.441 125.294 29.3799 124.972 29.3799 124.624C29.3799 124.275 29.441 123.954 29.5632 123.659C29.69 123.365 29.8643 123.109 30.0861 122.892C30.3124 122.675 30.5772 122.507 30.8805 122.39C31.1837 122.268 31.5142 122.206 31.8718 122.206C32.2158 122.206 32.5394 122.265 32.8427 122.383C33.146 122.496 33.4017 122.668 33.61 122.899L33.2908 123.218C33.0962 123.019 32.8812 122.876 32.6458 122.79C32.4104 122.7 32.1569 122.655 31.8854 122.655C31.6002 122.655 31.3354 122.704 31.0909 122.804C30.8465 122.899 30.6338 123.037 30.4527 123.218C30.2716 123.395 30.1291 123.603 30.025 123.843C29.9254 124.078 29.8756 124.338 29.8756 124.624C29.8756 124.909 29.9254 125.171 30.025 125.411C30.1291 125.647 30.2716 125.855 30.4527 126.036C30.6338 126.212 30.8465 126.35 31.0909 126.45C31.3354 126.545 31.6002 126.593 31.8854 126.593C32.1569 126.593 32.4104 126.547 32.6458 126.457C32.8812 126.366 33.0962 126.221 33.2908 126.022L33.61 126.341C33.4017 126.572 33.146 126.747 32.8427 126.864C32.5394 126.982 32.2135 127.041 31.865 127.041ZM35.8081 124.372H38.3204V124.8H35.8081V124.372ZM35.8625 126.565H38.721V127H35.36V122.247H38.6191V122.682H35.8625V126.565ZM40.581 127V122.247H42.3599C42.7628 122.247 43.109 122.313 43.3987 122.444C43.6884 122.571 43.9102 122.756 44.0641 123.001C44.2226 123.241 44.3018 123.533 44.3018 123.877C44.3018 124.212 44.2226 124.501 44.0641 124.746C43.9102 124.986 43.6884 125.171 43.3987 125.303C43.109 125.429 42.7628 125.493 42.3599 125.493H40.8594L41.0834 125.262V127H40.581ZM43.8265 127L42.6043 125.275H43.1475L44.3765 127H43.8265ZM41.0834 125.303L40.8594 125.065H42.3463C42.8216 125.065 43.1815 124.961 43.4259 124.753C43.6749 124.544 43.7993 124.252 43.7993 123.877C43.7993 123.496 43.6749 123.202 43.4259 122.994C43.1815 122.786 42.8216 122.682 42.3463 122.682H40.8594L41.0834 122.444V125.303ZM47.0237 127V122.682H45.3535V122.247H49.1965V122.682H47.5262V127H47.0237ZM50.6781 127V122.247H51.1806V127H50.6781ZM53.8541 124.549H56.3663V124.983H53.8541V124.549ZM53.9084 127H53.406V122.247H56.6651V122.682H53.9084V127ZM58.3816 127V122.247H58.884V127H58.3816ZM61.5576 124.372H64.0698V124.8H61.5576V124.372ZM61.6119 126.565H64.4704V127H61.1094V122.247H64.3685V122.682H61.6119V126.565ZM66.3304 127V122.247H68.2655C68.7725 122.247 69.2161 122.349 69.5963 122.553C69.9811 122.752 70.2798 123.03 70.4925 123.388C70.7053 123.745 70.8117 124.157 70.8117 124.624C70.8117 125.09 70.7053 125.502 70.4925 125.859C70.2798 126.217 69.9811 126.498 69.5963 126.701C69.2161 126.9 68.7725 127 68.2655 127H66.3304ZM66.8329 126.565H68.2383C68.6593 126.565 69.0237 126.484 69.3315 126.321C69.6438 126.154 69.886 125.925 70.058 125.635C70.23 125.341 70.316 125.004 70.316 124.624C70.316 124.239 70.23 123.902 70.058 123.612C69.886 123.322 69.6438 123.096 69.3315 122.933C69.0237 122.765 68.6593 122.682 68.2383 122.682H66.8329V126.565ZM77.139 127.041C76.7814 127.041 76.451 126.982 76.1477 126.864C75.8444 126.742 75.5819 126.572 75.3601 126.355C75.1383 126.138 74.964 125.882 74.8373 125.588C74.715 125.294 74.6539 124.972 74.6539 124.624C74.6539 124.275 74.715 123.954 74.8373 123.659C74.964 123.365 75.1383 123.109 75.3601 122.892C75.5864 122.675 75.8512 122.507 76.1545 122.39C76.4578 122.268 76.7882 122.206 77.1458 122.206C77.4898 122.206 77.8134 122.265 78.1167 122.383C78.42 122.496 78.6757 122.668 78.884 122.899L78.5648 123.218C78.3702 123.019 78.1552 122.876 77.9198 122.79C77.6844 122.7 77.431 122.655 77.1594 122.655C76.8742 122.655 76.6094 122.704 76.365 122.804C76.1205 122.899 75.9078 123.037 75.7267 123.218C75.5457 123.395 75.4031 123.603 75.299 123.843C75.1994 124.078 75.1496 124.338 75.1496 124.624C75.1496 124.909 75.1994 125.171 75.299 125.411C75.4031 125.647 75.5457 125.855 75.7267 126.036C75.9078 126.212 76.1205 126.35 76.365 126.45C76.6094 126.545 76.8742 126.593 77.1594 126.593C77.431 126.593 77.6844 126.547 77.9198 126.457C78.1552 126.366 78.3702 126.221 78.5648 126.022L78.884 126.341C78.6757 126.572 78.42 126.747 78.1167 126.864C77.8134 126.982 77.4875 127.041 77.139 127.041ZM82.6122 127.041C82.2547 127.041 81.922 126.982 81.6141 126.864C81.3109 126.742 81.0461 126.572 80.8197 126.355C80.5979 126.133 80.4237 125.877 80.2969 125.588C80.1747 125.294 80.1136 124.972 80.1136 124.624C80.1136 124.275 80.1747 123.956 80.2969 123.666C80.4237 123.372 80.5979 123.116 80.8197 122.899C81.0461 122.677 81.3109 122.507 81.6141 122.39C81.9174 122.268 82.2501 122.206 82.6122 122.206C82.9698 122.206 83.3003 122.268 83.6036 122.39C83.9068 122.507 84.1694 122.675 84.3912 122.892C84.6175 123.109 84.7918 123.365 84.914 123.659C85.0407 123.954 85.1041 124.275 85.1041 124.624C85.1041 124.972 85.0407 125.294 84.914 125.588C84.7918 125.882 84.6175 126.138 84.3912 126.355C84.1694 126.572 83.9068 126.742 83.6036 126.864C83.3003 126.982 82.9698 127.041 82.6122 127.041ZM82.6122 126.593C82.8974 126.593 83.16 126.545 83.3999 126.45C83.6443 126.35 83.8548 126.212 84.0313 126.036C84.2124 125.855 84.3527 125.647 84.4523 125.411C84.5519 125.171 84.6017 124.909 84.6017 124.624C84.6017 124.338 84.5519 124.078 84.4523 123.843C84.3527 123.603 84.2124 123.395 84.0313 123.218C83.8548 123.037 83.6443 122.899 83.3999 122.804C83.16 122.704 82.8974 122.655 82.6122 122.655C82.3271 122.655 82.0623 122.704 81.8178 122.804C81.5734 122.899 81.3607 123.037 81.1796 123.218C81.0031 123.395 80.8627 123.603 80.7586 123.843C80.6591 124.078 80.6093 124.338 80.6093 124.624C80.6093 124.904 80.6591 125.164 80.7586 125.404C80.8627 125.644 81.0031 125.855 81.1796 126.036C81.3607 126.212 81.5734 126.35 81.8178 126.45C82.0623 126.545 82.3271 126.593 82.6122 126.593ZM86.9093 127V122.247H87.3234L89.4962 125.954H89.2789L91.4313 122.247H91.8454V127H91.3634V123.001H91.4788L89.4962 126.396H89.2585L87.2623 123.001H87.3913V127H86.9093ZM94.073 127V122.247H95.8519C96.2548 122.247 96.6011 122.313 96.8908 122.444C97.1805 122.571 97.4023 122.756 97.5562 123.001C97.7146 123.241 97.7938 123.533 97.7938 123.877C97.7938 124.212 97.7146 124.501 97.5562 124.746C97.4023 124.986 97.1805 125.171 96.8908 125.303C96.6011 125.434 96.2548 125.499 95.8519 125.499H94.3514L94.5755 125.262V127H94.073ZM94.5755 125.303L94.3514 125.058H95.8384C96.3136 125.058 96.6735 124.956 96.9179 124.753C97.1669 124.544 97.2914 124.252 97.2914 123.877C97.2914 123.496 97.1669 123.202 96.9179 122.994C96.6735 122.786 96.3136 122.682 95.8384 122.682H94.3514L94.5755 122.444V125.303ZM98.5601 127L100.733 122.247H101.228L103.401 127H102.872L100.875 122.539H101.079L99.0829 127H98.5601ZM99.4156 125.73L99.5649 125.323H102.328L102.478 125.73H99.4156ZM104.866 127V122.247H105.281L108.56 126.375H108.343V122.247H108.838V127H108.424L105.152 122.872H105.369V127H104.866ZM112.203 127V125.235L112.318 125.547L110.301 122.247H110.838L112.61 125.146H112.325L114.097 122.247H114.599L112.583 125.547L112.698 125.235V127H112.203Z" fill="#474747"/>
<path d="M37.5734 50C35.1194 50 33.2004 51.8468 31.462 54.1959C29.0767 51.1565 27.0817 50 24.6928 50C19.8247 50 16.095 56.3355 16.095 63.054C16.095 67.2499 18.1225 69.8991 21.5161 69.8991C23.9664 69.8991 25.7265 68.7426 28.8563 63.2745L31.0572 59.3821C31.3716 59.8917 31.7005 60.4374 32.0511 61.0229L33.5184 63.4913C36.3771 68.2763 37.9709 69.8991 40.855 69.8991C44.1691 69.8991 46.0122 67.2138 46.0122 62.9311C46.0195 55.8982 42.2066 50 37.5734 50ZM26.4746 61.7819C23.9447 65.7573 23.0593 66.65 21.6498 66.65C20.2403 66.65 19.3296 65.3742 19.3296 63.0974C19.3296 58.2292 21.7582 53.249 24.6531 53.249C26.218 53.249 27.5443 54.1562 29.5357 57.0257C27.6311 59.9495 26.4746 61.7819 26.4746 61.7819ZM36.0519 61.2795L34.299 58.3557C33.8172 57.5871 33.3606 56.8764 32.9293 56.2234C34.5087 53.7839 35.8206 52.566 37.3674 52.566C40.5875 52.566 43.1499 57.3149 43.1499 63.1408C43.1499 65.3634 42.4271 66.6536 40.9128 66.6536C39.4852 66.6681 38.7949 65.6959 36.0519 61.2795Z" fill="#007FF8"/>
<path d="M52.3224 50.6431H56.0629L62.4237 62.1466L68.7808 50.6431H72.4419V69.5591H69.388V55.0558L63.8115 65.0885H60.9564L55.3727 55.0558V69.5591H52.3224V50.6431Z" fill="#1C2B33"/>
<path d="M82.2794 69.8807C80.9758 69.9094 79.6885 69.5861 78.5533 68.9446C77.4928 68.3285 76.6254 67.4285 76.0487 66.3461C75.4342 65.172 75.1259 63.8618 75.1524 62.5369C75.1249 61.2017 75.4252 59.8801 76.027 58.6879C76.5819 57.6064 77.4265 56.7005 78.4665 56.0713C79.5498 55.4273 80.7917 55.0992 82.0517 55.1244C83.2559 55.0763 84.4462 55.3965 85.4639 56.0422C86.4815 56.6879 87.2781 57.6285 87.7475 58.7385C88.296 60.0083 88.5635 61.3817 88.5317 62.7646V63.5994H78.1774C78.3114 64.6421 78.8062 65.6049 79.576 66.3208C80.3552 66.9959 81.3611 67.351 82.3914 67.3147C83.1936 67.3333 83.9917 67.1945 84.7406 66.9063C85.4291 66.6166 86.0568 66.1997 86.5909 65.6775L88.2101 67.6653C86.5948 69.1441 84.4686 69.9383 82.2794 69.8807ZM84.5093 58.6771C84.1789 58.3468 83.7833 58.0891 83.3476 57.9205C82.912 57.7518 82.446 57.6759 81.9794 57.6977C81.5124 57.6856 81.0477 57.7677 80.613 57.9391C80.1784 58.1105 79.7827 58.3676 79.4496 58.6951C78.7389 59.4275 78.286 60.3714 78.1593 61.384H85.6043C85.5772 60.3778 85.1899 59.4147 84.5129 58.6698L84.5093 58.6771Z" fill="#1C2B33"/>
<path d="M92.2362 57.9617H89.4244V55.4644H92.2362V51.3299H95.178V55.4644H99.4426V57.9653H95.178V64.2936C95.178 65.3441 95.3575 66.0958 95.7165 66.5488C96.0755 67.0017 96.6923 67.2258 97.5669 67.221C97.8965 67.2244 98.2259 67.2088 98.5536 67.174C98.8246 67.1451 99.121 67.1017 99.4426 67.0475V69.5159C99.0741 69.6237 98.6986 69.7058 98.3187 69.7617C97.8818 69.8249 97.441 69.8563 96.9995 69.8556C93.8216 69.8556 92.2338 68.1185 92.2362 64.6441V57.9617Z" fill="#1C2B33"/>
<path d="M114.784 69.559H111.893V67.5893C111.395 68.3142 110.721 68.901 109.934 69.2952C109.095 69.7067 108.169 69.9123 107.234 69.8951C106.064 69.9172 104.914 69.586 103.935 68.9446C102.958 68.2916 102.176 67.3861 101.672 66.3244C101.105 65.1347 100.823 63.8293 100.848 62.5116C100.821 61.1897 101.108 59.8804 101.687 58.6915C102.205 57.6275 103.005 56.7262 104 56.0858C105.015 55.4449 106.197 55.1157 107.397 55.1389C108.292 55.1246 109.179 55.3163 109.988 55.6991C110.743 56.0591 111.397 56.599 111.893 57.2712V55.4641H114.784V69.559ZM111.839 60.4046C111.549 59.6335 111.027 58.9709 110.346 58.5072C109.651 58.0395 108.828 57.7973 107.99 57.8133C107.426 57.7885 106.863 57.8891 106.343 58.1079C105.822 58.3266 105.356 58.658 104.979 59.0782C104.235 59.9239 103.861 61.0671 103.859 62.508C103.857 63.9488 104.218 65.0956 104.943 65.9486C105.303 66.3694 105.754 66.7027 106.262 66.9231C106.77 67.1435 107.321 67.2453 107.874 67.2207C108.738 67.2287 109.584 66.9769 110.303 66.4979C111.003 66.0467 111.542 65.3849 111.842 64.6077L111.839 60.4046Z" fill="#1C2B33"/>
<path d="M16 88.4349V79.3406H19.1795C19.813 79.3406 20.3355 79.4501 20.747 79.6692C21.1585 79.8853 21.4649 80.1769 21.6662 80.544C21.8675 80.9081 21.9681 81.3122 21.9681 81.7563C21.9681 82.147 21.8986 82.4697 21.7594 82.7243C21.6233 82.9789 21.4427 83.1802 21.2177 83.3282C20.9957 83.4762 20.7544 83.5858 20.4939 83.6568V83.7456C20.7721 83.7634 21.0519 83.8611 21.3331 84.0387C21.6144 84.2163 21.8497 84.4709 22.0392 84.8025C22.2287 85.1341 22.3234 85.5396 22.3234 86.0192C22.3234 86.4751 22.2198 86.8851 22.0125 87.2493C21.8053 87.6134 21.4782 87.902 21.0312 88.1152C20.5842 88.3283 20.0024 88.4349 19.286 88.4349H16ZM17.1013 87.458H19.286C20.0054 87.458 20.5161 87.3188 20.818 87.0405C21.1229 86.7593 21.2754 86.4189 21.2754 86.0192C21.2754 85.7113 21.197 85.4271 21.0401 85.1666C20.8832 84.9031 20.6596 84.693 20.3695 84.5361C20.0794 84.3762 19.736 84.2963 19.3393 84.2963H17.1013V87.458ZM17.1013 83.3371H19.1439C19.4755 83.3371 19.7745 83.272 20.0409 83.1417C20.3103 83.0115 20.5235 82.8279 20.6804 82.5911C20.8402 82.3543 20.9202 82.076 20.9202 81.7563C20.9202 81.3566 20.781 81.0176 20.5027 80.7394C20.2245 80.4581 19.7834 80.3175 19.1795 80.3175H17.1013V83.3371Z" fill="#1C2B33"/>
<path d="M28.2893 85.6462V81.6142H29.3373V88.4349H28.2893V87.2803H28.2183C28.0584 87.6267 27.8097 87.9213 27.4722 88.164C27.1348 88.4038 26.7085 88.5237 26.1934 88.5237C25.7671 88.5237 25.3881 88.4304 25.0566 88.2439C24.725 88.0545 24.4645 87.7703 24.275 87.3914C24.0856 87.0095 23.9908 86.5284 23.9908 85.9482V81.6142H25.0388V85.8771C25.0388 86.3745 25.1779 86.7711 25.4562 87.0672C25.7375 87.3632 26.0957 87.5112 26.5308 87.5112C26.7914 87.5112 27.0563 87.4446 27.3257 87.3114C27.5981 87.1782 27.826 86.9739 28.0095 86.6986C28.1961 86.4233 28.2893 86.0725 28.2893 85.6462Z" fill="#1C2B33"/>
<path d="M36.0881 83.1417L35.1467 83.4082C35.0875 83.2513 35.0001 83.0988 34.8847 82.9508C34.7722 82.7998 34.6182 82.6755 34.4229 82.5778C34.2275 82.4801 33.9773 82.4312 33.6724 82.4312C33.255 82.4312 32.9071 82.5274 32.6289 82.7199C32.3535 82.9093 32.2159 83.1506 32.2159 83.4437C32.2159 83.7042 32.3106 83.9099 32.5001 84.0609C32.6896 84.2119 32.9856 84.3377 33.3882 84.4384L34.4007 84.687C35.0105 84.8351 35.4649 85.0615 35.7639 85.3664C36.0629 85.6684 36.2124 86.0577 36.2124 86.5343C36.2124 86.9251 36.0999 87.2744 35.8749 87.5823C35.6529 87.8902 35.3421 88.1329 34.9424 88.3106C34.5428 88.4882 34.078 88.577 33.5481 88.577C32.8524 88.577 32.2766 88.426 31.8207 88.124C31.3648 87.8221 31.0761 87.381 30.9548 86.8008L31.9495 86.5521C32.0442 86.9192 32.2233 87.1945 32.4868 87.378C32.7532 87.5616 33.101 87.6533 33.5303 87.6533C34.0188 87.6533 34.4066 87.5497 34.6937 87.3425C34.9839 87.1323 35.1289 86.8807 35.1289 86.5876C35.1289 86.3508 35.046 86.1524 34.8802 85.9926C34.7145 85.8297 34.4599 85.7084 34.1165 85.6284L32.9797 85.362C32.355 85.214 31.8962 84.9846 31.6031 84.6737C31.313 84.3599 31.1679 83.9677 31.1679 83.497C31.1679 83.1121 31.276 82.7717 31.4921 82.4756C31.7111 82.1796 32.0087 81.9472 32.3846 81.7785C32.7636 81.6097 33.1928 81.5253 33.6724 81.5253C34.3474 81.5253 34.8773 81.6734 35.2621 81.9694C35.6499 82.2654 35.9253 82.6562 36.0881 83.1417Z" fill="#1C2B33"/>
<path d="M37.7899 88.4349V81.6142H38.8379V88.4349H37.7899ZM38.3228 80.4774C38.1185 80.4774 37.9424 80.4078 37.7944 80.2687C37.6493 80.1295 37.5768 79.9623 37.5768 79.7669C37.5768 79.5715 37.6493 79.4042 37.7944 79.2651C37.9424 79.126 38.1185 79.0564 38.3228 79.0564C38.5271 79.0564 38.7017 79.126 38.8468 79.2651C38.9948 79.4042 39.0688 79.5715 39.0688 79.7669C39.0688 79.9623 38.9948 80.1295 38.8468 80.2687C38.7017 80.4078 38.5271 80.4774 38.3228 80.4774Z" fill="#1C2B33"/>
<path d="M41.8053 84.3318V88.4349H40.7573V81.6142H41.7698V82.6799H41.8586C42.0185 82.3335 42.2612 82.0553 42.5869 81.8451C42.9125 81.6319 43.3329 81.5253 43.848 81.5253C44.3098 81.5253 44.7139 81.6201 45.0603 81.8095C45.4066 81.996 45.676 82.2802 45.8685 82.6621C46.0609 83.0411 46.1571 83.5206 46.1571 84.1009V88.4349H45.1091V84.1719C45.1091 83.6361 44.97 83.2187 44.6917 82.9197C44.4134 82.6177 44.0315 82.4667 43.546 82.4667C43.2115 82.4667 42.9125 82.5393 42.649 82.6843C42.3885 82.8294 42.1828 83.0411 42.0318 83.3193C41.8808 83.5976 41.8053 83.9351 41.8053 84.3318Z" fill="#1C2B33"/>
<path d="M50.9318 88.577C50.2746 88.577 49.7077 88.4319 49.2311 88.1418C48.7574 87.8487 48.3918 87.4402 48.1343 86.9162C47.8797 86.3893 47.7524 85.7765 47.7524 85.0778C47.7524 84.3792 47.8797 83.7634 48.1343 83.2305C48.3918 82.6947 48.75 82.2773 49.2089 81.9783C49.6707 81.6763 50.2095 81.5253 50.8253 81.5253C51.1805 81.5253 51.5313 81.5846 51.8777 81.703C52.224 81.8214 52.5393 82.0138 52.8235 82.2802C53.1077 82.5437 53.3342 82.893 53.5029 83.3282C53.6717 83.7634 53.756 84.2992 53.756 84.9357V85.3798H48.4984V84.4739H52.6903C52.6903 84.089 52.6133 83.7456 52.4594 83.4437C52.3084 83.1417 52.0923 82.9034 51.8111 82.7287C51.5328 82.5541 51.2042 82.4667 50.8253 82.4667C50.4078 82.4667 50.0467 82.5704 49.7418 82.7776C49.4398 82.9819 49.2074 83.2483 49.0446 83.5769C48.8818 83.9055 48.8003 84.2578 48.8003 84.6338V85.2377C48.8003 85.7528 48.8892 86.1894 49.0668 86.5476C49.2474 86.9029 49.4975 87.1738 49.8172 87.3603C50.137 87.5438 50.5085 87.6356 50.9318 87.6356C51.2071 87.6356 51.4558 87.5971 51.6778 87.5201C51.9028 87.4402 52.0967 87.3218 52.2596 87.1649C52.4224 87.005 52.5482 86.8067 52.637 86.5698L53.6495 86.854C53.5429 87.1974 53.3638 87.4994 53.1122 87.7599C52.8605 88.0175 52.5497 88.2188 52.1796 88.3638C51.8096 88.5059 51.3936 88.577 50.9318 88.577Z" fill="#1C2B33"/>
<path d="M60.1816 83.1417L59.2402 83.4082C59.1809 83.2513 59.0936 83.0988 58.9782 82.9508C58.8657 82.7998 58.7117 82.6755 58.5163 82.5778C58.321 82.4801 58.0708 82.4312 57.7659 82.4312C57.3485 82.4312 57.0006 82.5274 56.7223 82.7199C56.447 82.9093 56.3094 83.1506 56.3094 83.4437C56.3094 83.7042 56.4041 83.9099 56.5936 84.0609C56.783 84.2119 57.0791 84.3377 57.4817 84.4384L58.4941 84.687C59.104 84.8351 59.5584 85.0615 59.8574 85.3664C60.1564 85.6684 60.3059 86.0577 60.3059 86.5343C60.3059 86.9251 60.1934 87.2744 59.9684 87.5823C59.7464 87.8902 59.4355 88.1329 59.0359 88.3106C58.6362 88.4882 58.1715 88.577 57.6415 88.577C56.9459 88.577 56.3701 88.426 55.9142 88.124C55.4583 87.8221 55.1696 87.381 55.0482 86.8008L56.0429 86.5521C56.1377 86.9192 56.3168 87.1945 56.5802 87.378C56.8467 87.5616 57.1945 87.6533 57.6238 87.6533C58.1122 87.6533 58.5001 87.5497 58.7872 87.3425C59.0773 87.1323 59.2224 86.8807 59.2224 86.5876C59.2224 86.3508 59.1395 86.1524 58.9737 85.9926C58.8079 85.8297 58.5533 85.7084 58.2099 85.6284L57.0731 85.362C56.4485 85.214 55.9896 84.9846 55.6966 84.6737C55.4064 84.3599 55.2614 83.9677 55.2614 83.497C55.2614 83.1121 55.3694 82.7717 55.5856 82.4756C55.8046 82.1796 56.1021 81.9472 56.4781 81.7785C56.857 81.6097 57.2863 81.5253 57.7659 81.5253C58.4408 81.5253 58.9708 81.6734 59.3556 81.9694C59.7434 82.2654 60.0187 82.6562 60.1816 83.1417Z" fill="#1C2B33"/>
<path d="M66.7148 83.1417L65.7734 83.4082C65.7141 83.2513 65.6268 83.0988 65.5114 82.9508C65.3989 82.7998 65.2449 82.6755 65.0495 82.5778C64.8542 82.4801 64.604 82.4312 64.2991 82.4312C63.8817 82.4312 63.5338 82.5274 63.2555 82.7199C62.9802 82.9093 62.8426 83.1506 62.8426 83.4437C62.8426 83.7042 62.9373 83.9099 63.1268 84.0609C63.3162 84.2119 63.6123 84.3377 64.0149 84.4384L65.0273 84.687C65.6372 84.8351 66.0916 85.0615 66.3906 85.3664C66.6896 85.6684 66.8391 86.0577 66.8391 86.5343C66.8391 86.9251 66.7266 87.2744 66.5016 87.5823C66.2796 87.8902 65.9687 88.1329 65.5691 88.3106C65.1694 88.4882 64.7047 88.577 64.1747 88.577C63.4791 88.577 62.9033 88.426 62.4474 88.124C61.9915 87.8221 61.7028 87.381 61.5814 86.8008L62.5761 86.5521C62.6709 86.9192 62.85 87.1945 63.1134 87.378C63.3799 87.5616 63.7277 87.6533 64.157 87.6533C64.6454 87.6533 65.0333 87.5497 65.3204 87.3425C65.6105 87.1323 65.7556 86.8807 65.7556 86.5876C65.7556 86.3508 65.6727 86.1524 65.5069 85.9926C65.3411 85.8297 65.0865 85.7084 64.7431 85.6284L63.6064 85.362C62.9817 85.214 62.5228 84.9846 62.2298 84.6737C61.9397 84.3599 61.7946 83.9677 61.7946 83.497C61.7946 83.1121 61.9026 82.7717 62.1188 82.4756C62.3378 82.1796 62.6353 81.9472 63.0113 81.7785C63.3902 81.6097 63.8195 81.5253 64.2991 81.5253C64.9741 81.5253 65.504 81.6734 65.8888 81.9694C66.2766 82.2654 66.5519 82.6562 66.7148 83.1417Z" fill="#1C2B33"/>
<path d="M72.0756 88.4349V79.3406H75.1485C75.862 79.3406 76.4452 79.4694 76.8981 79.7269C77.354 79.9815 77.6915 80.3264 77.9106 80.7616C78.1296 81.1967 78.2392 81.6822 78.2392 82.2181C78.2392 82.7539 78.1296 83.2409 77.9106 83.679C77.6945 84.1172 77.3599 84.4665 76.907 84.727C76.4541 84.9846 75.8738 85.1133 75.1663 85.1133H72.9638V84.1364H75.1308C75.6192 84.1364 76.0115 84.052 76.3075 83.8833C76.6036 83.7146 76.8182 83.4866 76.9514 83.1994C77.0876 82.9093 77.1557 82.5822 77.1557 82.2181C77.1557 81.8539 77.0876 81.5283 76.9514 81.2411C76.8182 80.954 76.6021 80.729 76.3031 80.5662C76.0041 80.4004 75.6074 80.3175 75.113 80.3175H73.1769V88.4349H72.0756Z" fill="#1C2B33"/>
<path d="M81.8782 88.5948C81.446 88.5948 81.0538 88.5133 80.7015 88.3505C80.3492 88.1847 80.0694 87.9464 79.8622 87.6356C79.655 87.3218 79.5514 86.9429 79.5514 86.4988C79.5514 86.108 79.6283 85.7913 79.7823 85.5485C79.9362 85.3028 80.142 85.1104 80.3995 84.9712C80.6571 84.8321 80.9413 84.7285 81.2521 84.6604C81.5659 84.5893 81.8812 84.5331 82.198 84.4917C82.6124 84.4384 82.9484 84.3984 83.206 84.3718C83.4665 84.3422 83.6559 84.2933 83.7744 84.2252C83.8957 84.1571 83.9564 84.0387 83.9564 83.87V83.8344C83.9564 83.3963 83.8365 83.0559 83.5967 82.8131C83.3599 82.5704 83.0002 82.449 82.5177 82.449C82.0174 82.449 81.6251 82.5585 81.3409 82.7776C81.0567 82.9967 80.8569 83.2305 80.7414 83.4792L79.7468 83.124C79.9244 82.7095 80.1612 82.3868 80.4572 82.1559C80.7562 81.922 81.0819 81.7592 81.4342 81.6674C81.7894 81.5727 82.1387 81.5253 82.4822 81.5253C82.7012 81.5253 82.9529 81.552 83.2371 81.6053C83.5242 81.6556 83.801 81.7607 84.0674 81.9206C84.3368 82.0804 84.5603 82.3217 84.738 82.6444C84.9156 82.9671 85.0044 83.3993 85.0044 83.941V88.4349H83.9564V87.5112H83.9031C83.8321 87.6593 83.7137 87.8176 83.5479 87.9864C83.3821 88.1551 83.1616 88.2987 82.8862 88.4171C82.6109 88.5355 82.2749 88.5948 81.8782 88.5948ZM82.0381 87.6533C82.4526 87.6533 82.8019 87.5719 83.0861 87.4091C83.3732 87.2463 83.5893 87.0361 83.7344 86.7786C83.8824 86.521 83.9564 86.2501 83.9564 85.9659V85.0068C83.912 85.06 83.8143 85.1089 83.6633 85.1533C83.5153 85.1947 83.3436 85.2317 83.1482 85.2643C82.9558 85.2939 82.7678 85.3206 82.5843 85.3442C82.4037 85.365 82.2572 85.3827 82.1447 85.3975C81.8723 85.4331 81.6177 85.4908 81.3809 85.5707C81.147 85.6477 80.9576 85.7646 80.8125 85.9215C80.6704 86.0755 80.5993 86.2856 80.5993 86.5521C80.5993 86.9162 80.734 87.1915 81.0034 87.378C81.2758 87.5616 81.6207 87.6533 82.0381 87.6533Z" fill="#1C2B33"/>
<path d="M86.9172 88.4349V81.6142H87.9296V82.6444H88.0007C88.125 82.3069 88.35 82.0331 88.6756 81.8229C89.0013 81.6127 89.3684 81.5076 89.7769 81.5076C89.8539 81.5076 89.9501 81.5091 90.0656 81.512C90.181 81.515 90.2683 81.5194 90.3275 81.5253V82.5911C90.292 82.5822 90.2106 82.5689 90.0833 82.5511C89.959 82.5304 89.8272 82.52 89.6881 82.52C89.3565 82.52 89.0605 82.5896 88.8 82.7287C88.5424 82.8649 88.3382 83.0544 88.1872 83.2971C88.0392 83.5369 87.9652 83.8108 87.9652 84.1186V88.4349H86.9172Z" fill="#1C2B33"/>
<path d="M94.9635 81.6142V82.5023H91.4288V81.6142H94.9635ZM92.459 79.98H93.507V86.481C93.507 86.7771 93.5499 86.9991 93.6358 87.1471C93.7246 87.2922 93.8371 87.3899 93.9733 87.4402C94.1124 87.4876 94.2589 87.5112 94.4129 87.5112C94.5283 87.5112 94.6231 87.5053 94.6971 87.4935C94.7711 87.4787 94.8303 87.4668 94.8747 87.458L95.0879 88.3994C95.0168 88.426 94.9176 88.4527 94.7903 88.4793C94.663 88.5089 94.5017 88.5237 94.3063 88.5237C94.0103 88.5237 93.7201 88.4601 93.436 88.3328C93.1547 88.2055 92.9208 88.0116 92.7343 87.751C92.5508 87.4905 92.459 87.1619 92.459 86.7652V79.98Z" fill="#1C2B33"/>
<path d="M97.5879 84.3318V88.4349H96.5399V81.6142H97.5524V82.6799H97.6412C97.801 82.3335 98.0438 82.0553 98.3694 81.8451C98.6951 81.6319 99.1155 81.5253 99.6306 81.5253C100.092 81.5253 100.496 81.6201 100.843 81.8095C101.189 81.996 101.459 82.2802 101.651 82.6621C101.843 83.0411 101.94 83.5206 101.94 84.1009V88.4349H100.892V84.1719C100.892 83.6361 100.753 83.2187 100.474 82.9197C100.196 82.6177 99.8141 82.4667 99.3286 82.4667C98.9941 82.4667 98.6951 82.5393 98.4316 82.6843C98.1711 82.8294 97.9653 83.0411 97.8144 83.3193C97.6634 83.5976 97.5879 83.9351 97.5879 84.3318Z" fill="#1C2B33"/>
<path d="M106.714 88.577C106.057 88.577 105.49 88.4319 105.014 88.1418C104.54 87.8487 104.174 87.4402 103.917 86.9162C103.662 86.3893 103.535 85.7765 103.535 85.0778C103.535 84.3792 103.662 83.7634 103.917 83.2305C104.174 82.6947 104.533 82.2773 104.991 81.9783C105.453 81.6763 105.992 81.5253 106.608 81.5253C106.963 81.5253 107.314 81.5846 107.66 81.703C108.007 81.8214 108.322 82.0138 108.606 82.2802C108.89 82.5437 109.117 82.893 109.285 83.3282C109.454 83.7634 109.539 84.2992 109.539 84.9357V85.3798H104.281V84.4739H108.473C108.473 84.089 108.396 83.7456 108.242 83.4437C108.091 83.1417 107.875 82.9034 107.594 82.7287C107.315 82.5541 106.987 82.4667 106.608 82.4667C106.19 82.4667 105.829 82.5704 105.524 82.7776C105.222 82.9819 104.99 83.2483 104.827 83.5769C104.664 83.9055 104.583 84.2578 104.583 84.6338V85.2377C104.583 85.7528 104.672 86.1894 104.849 86.5476C105.03 86.9029 105.28 87.1738 105.6 87.3603C105.92 87.5438 106.291 87.6356 106.714 87.6356C106.99 87.6356 107.238 87.5971 107.46 87.5201C107.685 87.4402 107.879 87.3218 108.042 87.1649C108.205 87.005 108.331 86.8067 108.42 86.5698L109.432 86.854C109.325 87.1974 109.146 87.4994 108.895 87.7599C108.643 88.0175 108.332 88.2188 107.962 88.3638C107.592 88.5059 107.176 88.577 106.714 88.577Z" fill="#1C2B33"/>
<path d="M111.133 88.4349V81.6142H112.145V82.6444H112.216C112.341 82.3069 112.566 82.0331 112.891 81.8229C113.217 81.6127 113.584 81.5076 113.993 81.5076C114.069 81.5076 114.166 81.5091 114.281 81.512C114.397 81.515 114.484 81.5194 114.543 81.5253V82.5911C114.508 82.5822 114.426 82.5689 114.299 82.5511C114.175 82.5304 114.043 82.52 113.904 82.52C113.572 82.52 113.276 82.5896 113.016 82.7287C112.758 82.8649 112.554 83.0544 112.403 83.2971C112.255 83.5369 112.181 83.8108 112.181 84.1186V88.4349H111.133Z" fill="#1C2B33"/>
</svg>
