<?xml version="1.0" encoding="UTF-8"?>
<svg id="Camada_2" data-name="Camada 2" xmlns="http://www.w3.org/2000/svg" viewBox="0 0 48.64 58.99">
  <defs>
    <style>
      .cls-1 {
        fill: #e50914;
        stroke-width: 0px;
      }
    </style>
  </defs>
  <g id="Layer_1" data-name="Layer 1">
    <path class="cls-1" d="m37.59,0H2.21c-.59,0-1.15.22-1.56.62-.41.4-.65.93-.65,1.49v46.35c0,2.79,1.17,5.47,3.24,7.44,2.07,1.97,4.88,3.09,7.81,3.09h35.38c.59,0,1.15-.22,1.56-.62.41-.4.65-.93.65-1.49V10.53c0-2.79-1.17-5.47-3.24-7.44C43.33,1.11,40.52,0,37.59,0Zm-2.21,44.24H13.27c-.59,0-1.15-.22-1.56-.62-.41-.4-.65-.93-.65-1.49s.23-1.09.65-1.49c.41-.4.98-.62,1.56-.62h22.11c.59,0,1.15.22,1.56.62.41.4.65.93.65,1.49s-.23,1.09-.65,1.49c-.41.4-.98.62-1.56.62Zm0-12.64H13.27c-.59,0-1.15-.22-1.56-.62-.41-.4-.65-.93-.65-1.49s.23-1.09.65-1.49c.41-.4.98-.62,1.56-.62h22.11c.59,0,1.15.22,1.56.62.41.4.65.93.65,1.49s-.23,1.09-.65,1.49c-.41.4-.98.62-1.56.62Zm0-12.64H13.27c-.59,0-1.15-.22-1.56-.62-.41-.4-.65-.93-.65-1.49s.23-1.09.65-1.49c.41-.4.98-.62,1.56-.62h22.11c.59,0,1.15.22,1.56.62.41.4.65.93.65,1.49s-.23,1.09-.65,1.49c-.41.4-.98.62-1.56.62Z"/>
  </g>
</svg>