<svg width="303" height="88" viewBox="0 0 303 88" fill="none" xmlns="http://www.w3.org/2000/svg">
<path d="M59.0632 31.395L42.9092 47.7311C42.7097 47.9328 43.1086 48.3361 43.1086 48.3361H59.2626C59.462 48.3361 59.6615 48.1345 59.6615 47.9328V31.5966C59.6615 31.1933 59.2626 31.5966 59.0632 31.395ZM132.654 21.1092C125.275 21.1092 121.286 25.5462 121.286 33.2101V58.4202C121.286 66.084 125.275 71.126 132.654 70.9244C140.033 70.9244 144.021 66.084 144.021 58.4202V33.2101C144.221 25.5462 140.033 21.1092 132.654 21.1092ZM132.654 63.6639C130.46 63.6639 128.665 62.4538 128.665 58.8235V32.605C128.665 29.1765 130.061 27.7647 132.454 27.7647C134.847 27.7647 136.443 28.9748 136.443 32.605L136.642 58.8235C136.642 62.4538 135.246 63.6639 132.654 63.6639ZM80.8013 60.6387L71.0291 60.437C70.6302 60.437 70.6302 60.6387 70.6302 60.6387V71.126C70.6302 71.126 70.6302 71.3277 70.4308 71.3277H59.2626C59.2626 71.3277 59.0632 71.3277 59.0632 71.126V60.6387C59.0632 60.8403 59.0632 60.437 58.8637 60.437H26.9546C26.5557 60.437 26.3563 60.2353 26.3563 60.0336V50.1513C26.3563 50.1513 26.3563 50.1513 26.5557 49.9496C26.3563 49.9496 26.1568 48.7395 26.9546 47.7311L59.2626 15.2605H69.8325C70.0319 15.2605 70.8297 15.6639 70.8297 16.8739L71.2285 48.3361L70.8297 48.7395L80.6019 48.5378L80.8013 48.1344V16.8739C80.8013 12.437 76.8126 8 71.8268 8H26.3563C26.3563 8 26.3563 8 26.3563 8.20168V33.4118H26.5557L44.9035 14.8571C44.9035 15.2605 44.9035 15.0588 45.3023 15.0588L54.4762 14.8571C55.0745 14.8571 54.6757 14.8571 54.8751 15.0588L24.7608 45.916L19.1767 40.2689C18.9773 40.2689 18.9773 40.2689 18.9773 40.2689V8.20168C14.3903 8.80672 11 12.437 11 17.0756V70.9244C11 75.9664 14.9886 80 19.9745 80H72.0263C76.8126 80 80.8013 75.9664 80.8013 70.9244V60.6387ZM110.317 52.1681V59.0252C110.317 62.4538 108.921 63.6639 106.528 63.6639C104.135 63.6639 102.539 62.4538 102.539 59.0252L102.739 33.0084C102.739 29.3781 103.935 28.1681 106.329 28.1681C108.722 28.1681 110.317 29.3781 110.317 33.0084V38.2521H117.297V33.6134C117.297 25.9496 113.508 21.5126 106.129 21.5126C98.7502 21.5126 95.1604 25.9496 95.1604 33.8151V59.0252C95.1604 66.6891 98.9496 71.126 106.528 71.126C113.708 71.126 117.497 66.6891 117.497 59.0252V52.5714L110.317 52.1681ZM292 21.5126H285.219L279.037 43.8992L273.253 21.5126H265.675L274.849 53.9832V69.916H282.427V54.1849L292 21.5126ZM255.903 21.5126V50.5546L248.125 21.5126H238.752V69.916H245.532V35.2269L254.906 69.916H262.683V21.5126H255.903ZM169.947 21.7143L164.762 56.4034L159.378 21.7143H148.808V70.3193H155.389V36.0336L160.973 70.3193H168.153L173.338 35.6303V70.3193H180.517V21.916L169.947 21.7143ZM196.871 21.5126H185.902V69.916H193.48V51.7647H197.07C204.649 51.7647 208.637 47.5294 208.637 39.8655V33.6134C208.238 25.7479 204.449 21.7143 196.871 21.5126ZM196.871 44.9076H193.281V28.5714H196.871C199.264 28.5714 200.859 29.5798 200.859 33.2101V40.4706C201.059 43.8992 199.264 44.9076 196.871 44.9076ZM217.014 21.5126L209.036 69.916H216.016L217.213 61.042H226.586L227.783 69.916H235.361L227.583 21.5126H217.014ZM218.21 54.5882L221.8 30.1849L225.39 54.5882H218.21Z" fill="#E50914"/>
</svg>
