<?xml version="1.0" encoding="UTF-8"?>
<svg id="Camada_2" data-name="Camada 2" xmlns="http://www.w3.org/2000/svg" viewBox="0 0 65.52 65.52">
  <defs>
    <style>
      .cls-1 {
        fill: #e50914;
        stroke-width: 0px;
      }
    </style>
  </defs>
  <g id="Layer_1" data-name="Layer 1">
    <path class="cls-1" d="m41.66,0C28.51,0,17.81,10.7,17.81,23.86c0,5.74,2.03,11.16,5.69,15.46l-3.76,3.77-1.36-1.36c-.75-.75-1.97-.75-2.71,0L.56,56.81c-.75.75-.75,1.96,0,2.71l5.43,5.43c.75.75,1.96.75,2.71,0l15.09-15.09c.75-.75.75-1.96,0-2.71l-1.36-1.36,3.76-3.77c4.31,3.67,9.73,5.69,15.46,5.69,13.16,0,23.86-10.7,23.86-23.86S54.82,0,41.66,0h0Zm0,11.52c-6.8,0-12.34,5.54-12.34,12.34,0,1.06-.86,1.92-1.92,1.92s-1.92-.86-1.92-1.92c0-8.92,7.26-16.18,16.18-16.18,1.06,0,1.92.86,1.92,1.92s-.86,1.92-1.92,1.92Z"/>
  </g>
</svg>