<svg width="1174" height="661" viewBox="0 0 1174 661" fill="none" xmlns="http://www.w3.org/2000/svg">
<path d="M160.259 21.4935C144.202 21.4935 131 32.5358 131 46.1091C131 51.5348 133.104 57.0489 136.964 61.3227L131.514 67.5507C131.251 67.8513 131.08 68.2215 131.022 68.6167C130.964 69.012 131.021 69.4156 131.187 69.7791C131.352 70.143 131.618 70.4518 131.954 70.6683C132.29 70.8848 132.681 71 133.08 71L162.339 71C174.195 71 189.518 60.7908 189.518 46.1091C189.518 32.5358 176.316 21.4935 160.259 21.4935ZM147.64 49.9218C145.347 49.9218 143.48 48.055 143.48 45.7617C143.48 43.4683 145.347 41.6016 147.64 41.6016C149.933 41.6016 151.8 43.4685 151.8 45.7617C151.8 48.055 149.934 49.9218 147.64 49.9218ZM160.259 49.9218C157.966 49.9218 156.099 48.055 156.099 45.7617C156.099 43.4683 157.966 41.6016 160.259 41.6016C162.552 41.6016 164.419 43.4685 164.419 45.7617C164.419 48.055 162.552 49.9218 160.259 49.9218ZM172.878 49.9218C170.585 49.9218 168.718 48.055 168.718 45.7617C168.718 43.4683 170.585 41.6016 172.878 41.6016C175.171 41.6016 177.038 43.4685 177.038 45.7617C177.038 48.055 175.171 49.9218 172.878 49.9218Z" fill="#E50914"/>
<path d="M201.497 42.3266L196.599 36.6125C200.095 32.6678 201.999 27.8574 201.999 22.8808C201.998 10.2643 189.868 5.5927e-07 174.958 4.17622e-07C161.476 2.89533e-07 150.021 8.40217 147.999 19.3382C151.761 18.0599 155.979 17.3332 160.259 17.3332C178.474 17.3332 193.439 30.056 193.658 45.7616L199.918 45.7616C201.695 45.7617 202.649 43.6694 201.497 42.3266Z" fill="#E50914"/>
<g opacity="0.5">
<path d="M584.044 183.557C584.352 184.618 585.461 185.229 586.522 184.921L603.81 179.907C604.87 179.6 605.481 178.49 605.173 177.43C604.866 176.369 603.756 175.758 602.696 176.066L587.329 180.522L582.872 165.155C582.565 164.094 581.455 163.484 580.394 163.791C579.333 164.099 578.723 165.208 579.031 166.269L584.044 183.557ZM587.717 183.964C635.607 96.9522 728.171 38 834.5 38V34C726.654 34 632.778 93.7975 584.213 182.036L587.717 183.964ZM834.5 38C940.83 38 1033.39 96.9522 1081.28 183.964L1084.79 182.036C1036.22 93.7975 942.346 34 834.5 34V38Z" fill="url(#paint0_linear_202_219)"/>
<path d="M1084.96 455.443C1084.65 454.382 1083.54 453.771 1082.48 454.079L1065.19 459.093C1064.13 459.4 1063.52 460.51 1063.83 461.57C1064.14 462.631 1065.24 463.242 1066.31 462.934L1081.67 458.478L1086.13 473.845C1086.44 474.906 1087.55 475.516 1088.61 475.209C1089.67 474.901 1090.28 473.792 1089.97 472.731L1084.96 455.443ZM1081.28 455.036C1033.39 542.048 940.83 601 834.5 601V605C942.346 605 1036.22 545.203 1084.79 456.964L1081.28 455.036ZM834.5 601C728.171 601 635.607 542.048 587.717 455.036L584.213 456.964C632.778 545.203 726.655 605 834.5 605V601Z" fill="url(#paint1_linear_202_219)"/>
</g>
<g opacity="0.5">
<path d="M284.086 601.586C283.305 602.367 283.305 603.633 284.086 604.414L296.814 617.142C297.595 617.923 298.861 617.923 299.642 617.142C300.423 616.361 300.423 615.095 299.642 614.314L288.328 603L299.642 591.686C300.423 590.905 300.423 589.639 299.642 588.858C298.861 588.077 297.595 588.077 296.814 588.858L284.086 601.586ZM531.18 457.022C482.98 542.944 391.019 601 285.5 601V605C392.523 605 485.79 546.111 534.669 458.978L531.18 457.022Z" fill="url(#paint2_linear_202_219)"/>
<path d="M532.659 183.424C533.721 183.725 534.827 183.108 535.128 182.045L540.037 164.728C540.338 163.665 539.721 162.559 538.658 162.258C537.595 161.957 536.49 162.574 536.188 163.637L531.825 179.03L516.432 174.667C515.369 174.366 514.263 174.983 513.962 176.046C513.661 177.109 514.278 178.214 515.341 178.516L532.659 183.424ZM285.5 38C391.222 38 483.334 96.2801 531.458 182.475L534.95 180.525C486.149 93.1158 392.729 34 285.5 34V38Z" fill="url(#paint3_linear_202_219)"/>
<path d="M48.4218 166.57C48.1845 165.491 47.1176 164.809 46.0388 165.047L28.4593 168.915C27.3805 169.152 26.6984 170.219 26.9357 171.298C27.1731 172.376 28.24 173.058 29.3188 172.821L44.945 169.383L48.3831 185.009C48.6204 186.088 49.6874 186.77 50.7661 186.533C51.8449 186.295 52.527 185.229 52.2897 184.15L48.4218 166.57ZM4 319.5C4 263.754 20.2021 211.798 48.1536 168.077L44.7835 165.923C16.433 210.267 0 262.968 0 319.5H4ZM54.8024 480.852C22.7871 435.163 4 379.529 4 319.5H0C0 380.376 19.0553 436.808 51.5266 483.148L54.8024 480.852Z" fill="url(#paint4_linear_202_219)"/>
</g>
<path d="M58.4 108.39H69.5V110.28H58.4V108.39ZM58.64 118.08H71.27V120H56.42V99H70.82V100.92H58.64V118.08ZM84.0784 104.1C85.3584 104.1 86.4784 104.35 87.4384 104.85C88.4184 105.33 89.1784 106.07 89.7184 107.07C90.2784 108.07 90.5584 109.33 90.5584 110.85V120H88.4284V111.06C88.4284 109.4 88.0084 108.15 87.1684 107.31C86.3484 106.45 85.1884 106.02 83.6884 106.02C82.5684 106.02 81.5884 106.25 80.7484 106.71C79.9284 107.15 79.2884 107.8 78.8284 108.66C78.3884 109.5 78.1684 110.52 78.1684 111.72V120H76.0384V104.25H78.0784V108.57L77.7484 107.76C78.2484 106.62 79.0484 105.73 80.1484 105.09C81.2484 104.43 82.5584 104.1 84.0784 104.1ZM103.032 125.97C101.592 125.97 100.212 125.76 98.8918 125.34C97.5718 124.92 96.5018 124.32 95.6818 123.54L96.7618 121.92C97.5018 122.58 98.4118 123.1 99.4918 123.48C100.592 123.88 101.752 124.08 102.972 124.08C104.972 124.08 106.442 123.61 107.382 122.67C108.322 121.75 108.792 120.31 108.792 118.35V114.42L109.092 111.72L108.882 109.02V104.25H110.922V118.08C110.922 120.8 110.252 122.79 108.912 124.05C107.592 125.33 105.632 125.97 103.032 125.97ZM102.642 119.4C101.142 119.4 99.7918 119.08 98.5918 118.44C97.3918 117.78 96.4418 116.87 95.7418 115.71C95.0618 114.55 94.7218 113.22 94.7218 111.72C94.7218 110.22 95.0618 108.9 95.7418 107.76C96.4418 106.6 97.3918 105.7 98.5918 105.06C99.7918 104.42 101.142 104.1 102.642 104.1C104.042 104.1 105.302 104.39 106.422 104.97C107.542 105.55 108.432 106.41 109.092 107.55C109.752 108.69 110.082 110.08 110.082 111.72C110.082 113.36 109.752 114.75 109.092 115.89C108.432 117.03 107.542 117.9 106.422 118.5C105.302 119.1 104.042 119.4 102.642 119.4ZM102.852 117.51C104.012 117.51 105.042 117.27 105.942 116.79C106.842 116.29 107.552 115.61 108.072 114.75C108.592 113.87 108.852 112.86 108.852 111.72C108.852 110.58 108.592 109.58 108.072 108.72C107.552 107.86 106.842 107.19 105.942 106.71C105.042 106.21 104.012 105.96 102.852 105.96C101.712 105.96 100.682 106.21 99.7618 106.71C98.8618 107.19 98.1518 107.86 97.6318 108.72C97.1318 109.58 96.8818 110.58 96.8818 111.72C96.8818 112.86 97.1318 113.87 97.6318 114.75C98.1518 115.61 98.8618 116.29 99.7618 116.79C100.682 117.27 101.712 117.51 102.852 117.51ZM126.719 120V116.52L126.629 115.95V110.13C126.629 108.79 126.249 107.76 125.489 107.04C124.749 106.32 123.639 105.96 122.159 105.96C121.139 105.96 120.169 106.13 119.249 106.47C118.329 106.81 117.549 107.26 116.909 107.82L115.949 106.23C116.749 105.55 117.709 105.03 118.829 104.67C119.949 104.29 121.129 104.1 122.369 104.1C124.409 104.1 125.979 104.61 127.079 105.63C128.199 106.63 128.759 108.16 128.759 110.22V120H126.719ZM121.289 120.15C120.109 120.15 119.079 119.96 118.199 119.58C117.339 119.18 116.679 118.64 116.219 117.96C115.759 117.26 115.529 116.46 115.529 115.56C115.529 114.74 115.719 114 116.099 113.34C116.499 112.66 117.139 112.12 118.019 111.72C118.919 111.3 120.119 111.09 121.619 111.09H127.049V112.68H121.679C120.159 112.68 119.099 112.95 118.499 113.49C117.919 114.03 117.629 114.7 117.629 115.5C117.629 116.4 117.979 117.12 118.679 117.66C119.379 118.2 120.359 118.47 121.619 118.47C122.819 118.47 123.849 118.2 124.709 117.66C125.589 117.1 126.229 116.3 126.629 115.26L127.109 116.73C126.709 117.77 126.009 118.6 125.009 119.22C124.029 119.84 122.789 120.15 121.289 120.15ZM132.204 125.97C131.564 125.97 130.954 125.88 130.374 125.7C129.774 125.54 129.274 125.29 128.874 124.95L129.624 123.33C130.264 123.87 131.084 124.14 132.084 124.14C132.924 124.14 133.564 123.89 134.004 123.39C134.464 122.89 134.694 122.15 134.694 121.17V104.25H136.824V121.17C136.824 122.63 136.424 123.79 135.624 124.65C134.844 125.53 133.704 125.97 132.204 125.97ZM135.774 100.77C135.334 100.77 134.964 100.62 134.664 100.32C134.364 100.02 134.214 99.66 134.214 99.24C134.214 98.82 134.364 98.47 134.664 98.19C134.964 97.89 135.334 97.74 135.774 97.74C136.214 97.74 136.584 97.88 136.884 98.16C137.184 98.44 137.334 98.79 137.334 99.21C137.334 99.65 137.184 100.02 136.884 100.32C136.604 100.62 136.234 100.77 135.774 100.77ZM152.647 120V116.52L152.557 115.95V110.13C152.557 108.79 152.177 107.76 151.417 107.04C150.677 106.32 149.567 105.96 148.087 105.96C147.067 105.96 146.097 106.13 145.177 106.47C144.257 106.81 143.477 107.26 142.837 107.82L141.877 106.23C142.677 105.55 143.637 105.03 144.757 104.67C145.877 104.29 147.057 104.1 148.297 104.1C150.337 104.1 151.907 104.61 153.007 105.63C154.127 106.63 154.687 108.16 154.687 110.22V120H152.647ZM147.217 120.15C146.037 120.15 145.007 119.96 144.127 119.58C143.267 119.18 142.607 118.64 142.147 117.96C141.687 117.26 141.457 116.46 141.457 115.56C141.457 114.74 141.647 114 142.027 113.34C142.427 112.66 143.067 112.12 143.947 111.72C144.847 111.3 146.047 111.09 147.547 111.09H152.977V112.68H147.607C146.087 112.68 145.027 112.95 144.427 113.49C143.847 114.03 143.557 114.7 143.557 115.5C143.557 116.4 143.907 117.12 144.607 117.66C145.307 118.2 146.287 118.47 147.547 118.47C148.747 118.47 149.777 118.2 150.637 117.66C151.517 117.1 152.157 116.3 152.557 115.26L153.037 116.73C152.637 117.77 151.937 118.6 150.937 119.22C149.957 119.84 148.717 120.15 147.217 120.15ZM180.152 104.1C181.432 104.1 182.542 104.35 183.482 104.85C184.442 105.33 185.182 106.07 185.702 107.07C186.242 108.07 186.512 109.33 186.512 110.85V120H184.382V111.06C184.382 109.4 183.982 108.15 183.182 107.31C182.402 106.45 181.292 106.02 179.852 106.02C178.772 106.02 177.832 106.25 177.032 106.71C176.252 107.15 175.642 107.8 175.202 108.66C174.782 109.5 174.572 110.52 174.572 111.72V120H172.442V111.06C172.442 109.4 172.042 108.15 171.242 107.31C170.442 106.45 169.322 106.02 167.882 106.02C166.822 106.02 165.892 106.25 165.092 106.71C164.292 107.15 163.672 107.8 163.232 108.66C162.812 109.5 162.602 110.52 162.602 111.72V120H160.472V104.25H162.512V108.51L162.182 107.76C162.662 106.62 163.432 105.73 164.492 105.09C165.572 104.43 166.842 104.1 168.302 104.1C169.842 104.1 171.152 104.49 172.232 105.27C173.312 106.03 174.012 107.18 174.332 108.72L173.492 108.39C173.952 107.11 174.762 106.08 175.922 105.3C177.102 104.5 178.512 104.1 180.152 104.1ZM198.978 120.15C197.338 120.15 195.898 119.81 194.658 119.13C193.418 118.43 192.448 117.48 191.748 116.28C191.048 115.06 190.698 113.67 190.698 112.11C190.698 110.55 191.028 109.17 191.688 107.97C192.368 106.77 193.288 105.83 194.448 105.15C195.628 104.45 196.948 104.1 198.408 104.1C199.888 104.1 201.198 104.44 202.338 105.12C203.498 105.78 204.408 106.72 205.068 107.94C205.728 109.14 206.058 110.53 206.058 112.11C206.058 112.21 206.048 112.32 206.028 112.44C206.028 112.54 206.028 112.65 206.028 112.77H192.318V111.18H204.888L204.048 111.81C204.048 110.67 203.798 109.66 203.298 108.78C202.818 107.88 202.158 107.18 201.318 106.68C200.478 106.18 199.508 105.93 198.408 105.93C197.328 105.93 196.358 106.18 195.498 106.68C194.638 107.18 193.968 107.88 193.488 108.78C193.008 109.68 192.768 110.71 192.768 111.87V112.2C192.768 113.4 193.028 114.46 193.548 115.38C194.088 116.28 194.828 116.99 195.768 117.51C196.728 118.01 197.818 118.26 199.038 118.26C199.998 118.26 200.888 118.09 201.708 117.75C202.548 117.41 203.268 116.89 203.868 116.19L205.068 117.57C204.368 118.41 203.488 119.05 202.428 119.49C201.388 119.93 200.238 120.15 198.978 120.15ZM218.434 104.1C219.714 104.1 220.834 104.35 221.794 104.85C222.774 105.33 223.534 106.07 224.074 107.07C224.634 108.07 224.914 109.33 224.914 110.85V120H222.784V111.06C222.784 109.4 222.364 108.15 221.524 107.31C220.704 106.45 219.544 106.02 218.044 106.02C216.924 106.02 215.944 106.25 215.104 106.71C214.284 107.15 213.644 107.8 213.184 108.66C212.744 109.5 212.524 110.52 212.524 111.72V120H210.394V104.25H212.434V108.57L212.104 107.76C212.604 106.62 213.404 105.73 214.504 105.09C215.604 104.43 216.914 104.1 218.434 104.1ZM235.647 120.15C234.167 120.15 233.027 119.75 232.227 118.95C231.427 118.15 231.027 117.02 231.027 115.56V100.77H233.157V115.44C233.157 116.36 233.387 117.07 233.847 117.57C234.327 118.07 235.007 118.32 235.887 118.32C236.827 118.32 237.607 118.05 238.227 117.51L238.977 119.04C238.557 119.42 238.047 119.7 237.447 119.88C236.867 120.06 236.267 120.15 235.647 120.15ZM228.207 106.02V104.25H237.957V106.02H228.207ZM248.718 120.15C247.198 120.15 245.828 119.81 244.608 119.13C243.408 118.43 242.458 117.48 241.758 116.28C241.058 115.06 240.708 113.67 240.708 112.11C240.708 110.53 241.058 109.14 241.758 107.94C242.458 106.74 243.408 105.8 244.608 105.12C245.808 104.44 247.178 104.1 248.718 104.1C250.278 104.1 251.658 104.44 252.858 105.12C254.078 105.8 255.028 106.74 255.708 107.94C256.408 109.14 256.758 110.53 256.758 112.11C256.758 113.67 256.408 115.06 255.708 116.28C255.028 117.48 254.078 118.43 252.858 119.13C251.638 119.81 250.258 120.15 248.718 120.15ZM248.718 118.26C249.858 118.26 250.868 118.01 251.748 117.51C252.628 116.99 253.318 116.27 253.818 115.35C254.338 114.41 254.598 113.33 254.598 112.11C254.598 110.87 254.338 109.79 253.818 108.87C253.318 107.95 252.628 107.24 251.748 106.74C250.868 106.22 249.868 105.96 248.748 105.96C247.628 105.96 246.628 106.22 245.748 106.74C244.868 107.24 244.168 107.95 243.648 108.87C243.128 109.79 242.868 110.87 242.868 112.11C242.868 113.33 243.128 114.41 243.648 115.35C244.168 116.27 244.868 116.99 245.748 117.51C246.628 118.01 247.618 118.26 248.718 118.26Z" fill="black"/>
<path d="M126.288 569.712L121.005 574.955C119.547 576.402 119.547 578.749 121.005 580.197C122.464 581.645 124.829 581.645 126.288 580.197L131.57 574.955C133.03 573.507 133.03 571.16 131.57 569.712C130.112 568.264 127.747 568.264 126.288 569.712Z" fill="#E50914"/>
<path d="M143.896 587.187L138.614 592.43C137.155 593.877 137.155 596.224 138.614 597.672C140.072 599.12 142.437 599.12 143.896 597.672L149.179 592.43C150.638 590.982 150.638 588.635 149.179 587.187C147.72 585.739 145.356 585.739 143.896 587.187Z" fill="#E50914"/>
<path d="M156.222 602.914L157.983 601.167C159.442 599.719 159.442 597.372 157.983 595.924C156.525 594.477 154.16 594.477 152.7 595.924L150.94 597.672C149.481 599.12 149.481 601.467 150.94 602.914C152.398 604.362 154.764 604.362 156.222 602.914Z" fill="#E50914"/>
<path d="M138.614 574.955L129.81 583.692C128.351 585.14 128.351 587.487 129.81 588.934C131.268 590.382 133.633 590.382 135.092 588.934L143.896 580.197C145.355 578.749 145.355 576.402 143.896 574.955C142.437 573.507 140.073 573.507 138.614 574.955Z" fill="#E50914"/>
<path d="M144.776 537.384L138.382 530.971C137.409 530.006 135.832 530.006 134.86 530.971L113.73 551.94C112.757 552.906 112.757 554.47 113.73 555.436L118.047 559.786C119.413 561.143 120.443 562.796 121.054 564.616L121.886 567.091L122.766 566.217C126.165 562.846 131.694 562.846 135.092 566.217C136.169 567.286 136.865 568.577 137.26 569.936C140.541 568.25 144.67 568.732 147.418 571.46C150.167 574.187 150.652 578.285 148.954 581.542C150.324 581.933 151.624 582.623 152.701 583.692C154.426 585.404 155.266 587.661 155.239 589.91C157.506 589.884 159.78 590.718 161.505 592.43C162.371 593.289 165.027 595.924 165.027 595.924C166.486 597.372 168.851 597.372 170.309 595.924C171.768 594.477 171.768 592.13 170.309 590.682L164.146 584.566C163.174 583.601 163.174 582.036 164.146 581.071C165.119 580.106 166.696 580.106 167.668 581.071L173.831 587.187C175.29 588.635 177.655 588.635 179.114 587.187C180.572 585.74 180.572 583.392 179.114 581.945L172.95 575.828C171.978 574.864 171.978 573.299 172.95 572.334C173.923 571.368 175.5 571.368 176.472 572.334L182.636 578.45C184.094 579.897 186.459 579.897 187.918 578.45C189.377 577.002 189.377 574.655 187.918 573.208L172.773 558.177C167.941 561.348 161.355 560.825 157.103 556.606C156.132 555.642 154.553 555.642 153.582 556.606C148.727 561.424 140.828 561.424 135.973 556.606C133.06 553.716 133.06 549.012 135.973 546.122L144.776 537.384Z" fill="#E50914"/>
<path d="M176.14 530.724C175.168 529.759 173.591 529.759 172.618 530.724L167.351 535.951C166.427 536.869 165.172 537.384 163.865 537.384L154.914 537.384C152.933 537.384 151.033 538.166 149.632 539.556L139.494 549.617C138.508 550.595 138.508 552.133 139.494 553.112C142.417 556.012 147.136 556.012 150.059 553.112C152.693 550.498 156.821 550.247 159.741 552.361C163.668 555.204 168.906 555.378 172.343 551.966L172.95 551.364L190.084 568.367C190.321 567.496 190.326 566.574 190.094 565.719C189.691 564.237 190.275 562.131 191.369 561.045L197.27 555.188C198.243 554.223 198.243 552.659 197.27 551.694L176.14 530.724Z" fill="#E50914"/>
<path d="M82.06 653L91.66 632H93.85L103.45 653H101.11L92.29 633.29H93.19L84.37 653H82.06ZM85.84 647.39L86.5 645.59H98.71L99.37 647.39H85.84ZM112.597 653.15C111.097 653.15 109.747 652.81 108.547 652.13C107.367 651.45 106.437 650.51 105.757 649.31C105.077 648.11 104.737 646.71 104.737 645.11C104.737 643.53 105.077 642.14 105.757 640.94C106.437 639.72 107.367 638.78 108.547 638.12C109.747 637.44 111.097 637.1 112.597 637.1C113.997 637.1 115.237 637.41 116.317 638.03C117.417 638.65 118.287 639.56 118.927 640.76C119.567 641.94 119.887 643.39 119.887 645.11C119.887 646.83 119.557 648.29 118.897 649.49C118.257 650.67 117.387 651.58 116.287 652.22C115.207 652.84 113.977 653.15 112.597 653.15ZM112.747 651.26C113.867 651.26 114.867 651.01 115.747 650.51C116.647 649.99 117.347 649.27 117.847 648.35C118.367 647.41 118.627 646.33 118.627 645.11C118.627 643.89 118.367 642.82 117.847 641.9C117.347 640.98 116.647 640.26 115.747 639.74C114.867 639.22 113.867 638.96 112.747 638.96C111.647 638.96 110.657 639.22 109.777 639.74C108.897 640.26 108.197 640.98 107.677 641.9C107.157 642.82 106.897 643.89 106.897 645.11C106.897 646.33 107.157 647.41 107.677 648.35C108.197 649.27 108.897 649.99 109.777 650.51C110.657 651.01 111.647 651.26 112.747 651.26ZM118.597 658.82V648.32L118.897 645.14L118.687 641.99V637.25H120.727V658.82H118.597ZM133.169 653.15C131.829 653.15 130.659 652.9 129.659 652.4C128.659 651.9 127.879 651.15 127.319 650.15C126.779 649.15 126.509 647.9 126.509 646.4V637.25H128.639V646.16C128.639 647.84 129.049 649.11 129.869 649.97C130.709 650.81 131.879 651.23 133.379 651.23C134.479 651.23 135.429 651.01 136.229 650.57C137.049 650.11 137.669 649.45 138.089 648.59C138.529 647.73 138.749 646.7 138.749 645.5V637.25H140.879V653H138.839V648.68L139.169 649.46C138.669 650.62 137.889 651.53 136.829 652.19C135.789 652.83 134.569 653.15 133.169 653.15ZM146.816 653V637.25H148.946V653H146.816ZM147.896 633.77C147.456 633.77 147.086 633.62 146.786 633.32C146.486 633.02 146.336 632.66 146.336 632.24C146.336 631.82 146.486 631.47 146.786 631.19C147.086 630.89 147.456 630.74 147.896 630.74C148.336 630.74 148.706 630.88 149.006 631.16C149.306 631.44 149.456 631.79 149.456 632.21C149.456 632.65 149.306 633.02 149.006 633.32C148.726 633.62 148.356 633.77 147.896 633.77ZM159.102 653.15C157.802 653.15 156.572 652.97 155.412 652.61C154.252 652.23 153.342 651.76 152.682 651.2L153.642 649.52C154.282 650 155.102 650.42 156.102 650.78C157.102 651.12 158.152 651.29 159.252 651.29C160.752 651.29 161.832 651.06 162.492 650.6C163.152 650.12 163.482 649.49 163.482 648.71C163.482 648.13 163.292 647.68 162.912 647.36C162.552 647.02 162.072 646.77 161.472 646.61C160.872 646.43 160.202 646.28 159.462 646.16C158.722 646.04 157.982 645.9 157.242 645.74C156.522 645.58 155.862 645.35 155.262 645.05C154.662 644.73 154.172 644.3 153.792 643.76C153.432 643.22 153.252 642.5 153.252 641.6C153.252 640.74 153.492 639.97 153.972 639.29C154.452 638.61 155.152 638.08 156.072 637.7C157.012 637.3 158.152 637.1 159.492 637.1C160.512 637.1 161.532 637.24 162.552 637.52C163.572 637.78 164.412 638.13 165.072 638.57L164.142 640.28C163.442 639.8 162.692 639.46 161.892 639.26C161.092 639.04 160.292 638.93 159.492 638.93C158.072 638.93 157.022 639.18 156.342 639.68C155.682 640.16 155.352 640.78 155.352 641.54C155.352 642.14 155.532 642.61 155.892 642.95C156.272 643.29 156.762 643.56 157.362 643.76C157.982 643.94 158.652 644.09 159.372 644.21C160.112 644.33 160.842 644.48 161.562 644.66C162.302 644.82 162.972 645.05 163.572 645.35C164.192 645.63 164.682 646.04 165.042 646.58C165.422 647.1 165.612 647.79 165.612 648.65C165.612 649.57 165.352 650.37 164.832 651.05C164.332 651.71 163.592 652.23 162.612 652.61C161.652 652.97 160.482 653.15 159.102 653.15ZM169.521 653V637.25H171.651V653H169.521ZM170.601 633.77C170.161 633.77 169.791 633.62 169.491 633.32C169.191 633.02 169.041 632.66 169.041 632.24C169.041 631.82 169.191 631.47 169.491 631.19C169.791 630.89 170.161 630.74 170.601 630.74C171.041 630.74 171.411 630.88 171.711 631.16C172.011 631.44 172.161 631.79 172.161 632.21C172.161 632.65 172.011 633.02 171.711 633.32C171.431 633.62 171.061 633.77 170.601 633.77ZM184.117 653.15C182.557 653.15 181.157 652.81 179.917 652.13C178.697 651.43 177.737 650.48 177.037 649.28C176.337 648.06 175.987 646.67 175.987 645.11C175.987 643.53 176.337 642.14 177.037 640.94C177.737 639.74 178.697 638.8 179.917 638.12C181.157 637.44 182.557 637.1 184.117 637.1C185.457 637.1 186.667 637.36 187.747 637.88C188.827 638.4 189.677 639.18 190.297 640.22L188.707 641.3C188.167 640.5 187.497 639.91 186.697 639.53C185.897 639.15 185.027 638.96 184.087 638.96C182.967 638.96 181.957 639.22 181.057 639.74C180.157 640.24 179.447 640.95 178.927 641.87C178.407 642.79 178.147 643.87 178.147 645.11C178.147 646.35 178.407 647.43 178.927 648.35C179.447 649.27 180.157 649.99 181.057 650.51C181.957 651.01 182.967 651.26 184.087 651.26C185.027 651.26 185.897 651.07 186.697 650.69C187.497 650.31 188.167 649.73 188.707 648.95L190.297 650.03C189.677 651.05 188.827 651.83 187.747 652.37C186.667 652.89 185.457 653.15 184.117 653.15ZM182.857 659.6C182.357 659.6 181.897 659.54 181.477 659.42C181.077 659.3 180.697 659.13 180.337 658.91L180.847 657.77C181.147 657.95 181.457 658.09 181.777 658.19C182.117 658.29 182.467 658.34 182.827 658.34C183.427 658.34 183.887 658.21 184.207 657.95C184.527 657.71 184.687 657.37 184.687 656.93C184.687 656.53 184.527 656.2 184.207 655.94C183.907 655.68 183.447 655.55 182.827 655.55H182.137L182.857 652.82H184.147L183.697 654.56C184.517 654.62 185.147 654.87 185.587 655.31C186.027 655.77 186.247 656.33 186.247 656.99C186.247 657.79 185.927 658.42 185.287 658.88C184.667 659.36 183.857 659.6 182.857 659.6ZM204.352 653V649.52L204.262 648.95V643.13C204.262 641.79 203.882 640.76 203.122 640.04C202.382 639.32 201.272 638.96 199.792 638.96C198.772 638.96 197.802 639.13 196.882 639.47C195.962 639.81 195.182 640.26 194.542 640.82L193.582 639.23C194.382 638.55 195.342 638.03 196.462 637.67C197.582 637.29 198.762 637.1 200.002 637.1C202.042 637.1 203.612 637.61 204.712 638.63C205.832 639.63 206.392 641.16 206.392 643.22V653H204.352ZM198.922 653.15C197.742 653.15 196.712 652.96 195.832 652.58C194.972 652.18 194.312 651.64 193.852 650.96C193.392 650.26 193.162 649.46 193.162 648.56C193.162 647.74 193.352 647 193.732 646.34C194.132 645.66 194.772 645.12 195.652 644.72C196.552 644.3 197.752 644.09 199.252 644.09H204.682V645.68H199.312C197.792 645.68 196.732 645.95 196.132 646.49C195.552 647.03 195.262 647.7 195.262 648.5C195.262 649.4 195.612 650.12 196.312 650.66C197.012 651.2 197.992 651.47 199.252 651.47C200.452 651.47 201.482 651.2 202.342 650.66C203.222 650.1 203.862 649.3 204.262 648.26L204.742 649.73C204.342 650.77 203.642 651.6 202.642 652.22C201.662 652.84 200.422 653.15 198.922 653.15ZM202.102 634.61C201.642 634.61 201.232 634.51 200.872 634.31C200.512 634.11 200.182 633.88 199.882 633.62C199.602 633.34 199.322 633.1 199.042 632.9C198.762 632.68 198.472 632.57 198.172 632.57C197.712 632.57 197.342 632.74 197.062 633.08C196.802 633.42 196.652 633.89 196.612 634.49H195.322C195.362 633.49 195.622 632.69 196.102 632.09C196.602 631.49 197.242 631.19 198.022 631.19C198.482 631.19 198.892 631.3 199.252 631.52C199.632 631.72 199.962 631.96 200.242 632.24C200.542 632.5 200.822 632.73 201.082 632.93C201.362 633.13 201.652 633.23 201.952 633.23C202.412 633.23 202.782 633.07 203.062 632.75C203.342 632.41 203.492 631.95 203.512 631.37H204.802C204.782 632.33 204.522 633.11 204.022 633.71C203.522 634.31 202.882 634.61 202.102 634.61ZM218.597 653.15C217.077 653.15 215.707 652.81 214.487 652.13C213.287 651.43 212.337 650.48 211.637 649.28C210.937 648.06 210.587 646.67 210.587 645.11C210.587 643.53 210.937 642.14 211.637 640.94C212.337 639.74 213.287 638.8 214.487 638.12C215.687 637.44 217.057 637.1 218.597 637.1C220.157 637.1 221.537 637.44 222.737 638.12C223.957 638.8 224.907 639.74 225.587 640.94C226.287 642.14 226.637 643.53 226.637 645.11C226.637 646.67 226.287 648.06 225.587 649.28C224.907 650.48 223.957 651.43 222.737 652.13C221.517 652.81 220.137 653.15 218.597 653.15ZM218.597 651.26C219.737 651.26 220.747 651.01 221.627 650.51C222.507 649.99 223.197 649.27 223.697 648.35C224.217 647.41 224.477 646.33 224.477 645.11C224.477 643.87 224.217 642.79 223.697 641.87C223.197 640.95 222.507 640.24 221.627 639.74C220.747 639.22 219.747 638.96 218.627 638.96C217.507 638.96 216.507 639.22 215.627 639.74C214.747 640.24 214.047 640.95 213.527 641.87C213.007 642.79 212.747 643.87 212.747 645.11C212.747 646.33 213.007 647.41 213.527 648.35C214.047 649.27 214.747 649.99 215.627 650.51C216.507 651.01 217.497 651.26 218.597 651.26Z" fill="black"/>
<path d="M1110.63 295.372C1110.95 295.69 1111.35 295.905 1111.8 295.99C1112.24 296.075 1112.7 296.026 1113.11 295.848L1135.44 286.277C1135.78 286.132 1136.08 285.906 1136.31 285.619C1136.54 285.332 1136.7 284.993 1136.77 284.631C1136.84 284.269 1136.82 283.895 1136.71 283.543C1136.6 283.191 1136.41 282.87 1136.15 282.609L1131.36 277.824L1139.34 269.848C1140.1 269.083 1140.22 267.883 1139.61 266.988C1139.01 266.112 1137.85 265.753 1136.85 266.18L1114.52 275.75C1114.18 275.896 1113.89 276.122 1113.65 276.409C1113.42 276.696 1113.27 277.035 1113.2 277.397C1113.13 277.759 1113.15 278.132 1113.26 278.485C1113.36 278.837 1113.56 279.158 1113.82 279.419L1118.6 284.204L1110.63 292.18C1109.75 293.051 1109.73 294.477 1110.63 295.372ZM1093.91 270.619L1085.93 278.595L1098.69 291.356L1106.67 283.38C1107.55 282.499 1107.55 281.072 1106.67 280.19L1097.1 270.619C1096.22 269.738 1094.79 269.738 1093.91 270.619ZM1135.38 312.093C1136.26 311.211 1136.26 309.784 1135.38 308.902L1125.81 299.332C1124.93 298.45 1123.5 298.45 1122.62 299.332L1114.64 307.307L1127.41 320.068L1135.38 312.093ZM1113.05 334.425L1124.21 323.259L1111.45 310.497L1100.29 321.664C1095.89 326.061 1088.73 326.061 1084.34 321.664C1079.94 317.266 1079.94 310.11 1084.34 305.712L1095.5 294.546L1082.74 281.785L1071.58 292.951C1060.14 304.385 1060.14 322.991 1071.58 334.425C1083.01 345.858 1101.62 345.858 1113.05 334.425Z" fill="#E50914"/>
<path d="M1033.42 384V363H1041.28C1043.06 363 1044.59 363.29 1045.87 363.87C1047.15 364.43 1048.13 365.25 1048.81 366.33C1049.51 367.39 1049.86 368.68 1049.86 370.2C1049.86 371.68 1049.51 372.96 1048.81 374.04C1048.13 375.1 1047.15 375.92 1045.87 376.5C1044.59 377.06 1043.06 377.34 1041.28 377.34H1034.65L1035.64 376.32V384H1033.42ZM1047.76 384L1042.36 376.38H1044.76L1050.19 384H1047.76ZM1035.64 376.5L1034.65 375.45H1041.22C1043.32 375.45 1044.91 374.99 1045.99 374.07C1047.09 373.15 1047.64 371.86 1047.64 370.2C1047.64 368.52 1047.09 367.22 1045.99 366.3C1044.91 365.38 1043.32 364.92 1041.22 364.92H1034.65L1035.64 363.87V376.5ZM1061.34 384.15C1059.7 384.15 1058.26 383.81 1057.02 383.13C1055.78 382.43 1054.81 381.48 1054.11 380.28C1053.41 379.06 1053.06 377.67 1053.06 376.11C1053.06 374.55 1053.39 373.17 1054.05 371.97C1054.73 370.77 1055.65 369.83 1056.81 369.15C1057.99 368.45 1059.31 368.1 1060.77 368.1C1062.25 368.1 1063.56 368.44 1064.7 369.12C1065.86 369.78 1066.77 370.72 1067.43 371.94C1068.09 373.14 1068.42 374.53 1068.42 376.11C1068.42 376.21 1068.41 376.32 1068.39 376.44C1068.39 376.54 1068.39 376.65 1068.39 376.77H1054.68V375.18H1067.25L1066.41 375.81C1066.41 374.67 1066.16 373.66 1065.66 372.78C1065.18 371.88 1064.52 371.18 1063.68 370.68C1062.84 370.18 1061.87 369.93 1060.77 369.93C1059.69 369.93 1058.72 370.18 1057.86 370.68C1057 371.18 1056.33 371.88 1055.85 372.78C1055.37 373.68 1055.13 374.71 1055.13 375.87V376.2C1055.13 377.4 1055.39 378.46 1055.91 379.38C1056.45 380.28 1057.19 380.99 1058.13 381.51C1059.09 382.01 1060.18 382.26 1061.4 382.26C1062.36 382.26 1063.25 382.09 1064.07 381.75C1064.91 381.41 1065.63 380.89 1066.23 380.19L1067.43 381.57C1066.73 382.41 1065.85 383.05 1064.79 383.49C1063.75 383.93 1062.6 384.15 1061.34 384.15ZM1077.74 384.15C1076.26 384.15 1075.12 383.75 1074.32 382.95C1073.52 382.15 1073.12 381.02 1073.12 379.56V364.77H1075.25V379.44C1075.25 380.36 1075.48 381.07 1075.94 381.57C1076.42 382.07 1077.1 382.32 1077.98 382.32C1078.92 382.32 1079.7 382.05 1080.32 381.51L1081.07 383.04C1080.65 383.42 1080.14 383.7 1079.54 383.88C1078.96 384.06 1078.36 384.15 1077.74 384.15ZM1070.3 370.02V368.25H1080.05V370.02H1070.3ZM1091.08 384.15C1089.44 384.15 1088 383.81 1086.76 383.13C1085.52 382.43 1084.55 381.48 1083.85 380.28C1083.15 379.06 1082.8 377.67 1082.8 376.11C1082.8 374.55 1083.13 373.17 1083.79 371.97C1084.47 370.77 1085.39 369.83 1086.55 369.15C1087.73 368.45 1089.05 368.1 1090.51 368.1C1091.99 368.1 1093.3 368.44 1094.44 369.12C1095.6 369.78 1096.51 370.72 1097.17 371.94C1097.83 373.14 1098.16 374.53 1098.16 376.11C1098.16 376.21 1098.15 376.32 1098.13 376.44C1098.13 376.54 1098.13 376.65 1098.13 376.77H1084.42V375.18H1096.99L1096.15 375.81C1096.15 374.67 1095.9 373.66 1095.4 372.78C1094.92 371.88 1094.26 371.18 1093.42 370.68C1092.58 370.18 1091.61 369.93 1090.51 369.93C1089.43 369.93 1088.46 370.18 1087.6 370.68C1086.74 371.18 1086.07 371.88 1085.59 372.78C1085.11 373.68 1084.87 374.71 1084.87 375.87V376.2C1084.87 377.4 1085.13 378.46 1085.65 379.38C1086.19 380.28 1086.93 380.99 1087.87 381.51C1088.83 382.01 1089.92 382.26 1091.14 382.26C1092.1 382.26 1092.99 382.09 1093.81 381.75C1094.65 381.41 1095.37 380.89 1095.97 380.19L1097.17 381.57C1096.47 382.41 1095.59 383.05 1094.53 383.49C1093.49 383.93 1092.34 384.15 1091.08 384.15ZM1110.53 368.1C1111.81 368.1 1112.93 368.35 1113.89 368.85C1114.87 369.33 1115.63 370.07 1116.17 371.07C1116.73 372.07 1117.01 373.33 1117.01 374.85V384H1114.88V375.06C1114.88 373.4 1114.46 372.15 1113.62 371.31C1112.8 370.45 1111.64 370.02 1110.14 370.02C1109.02 370.02 1108.04 370.25 1107.2 370.71C1106.38 371.15 1105.74 371.8 1105.28 372.66C1104.84 373.5 1104.62 374.52 1104.62 375.72V384H1102.49V368.25H1104.53V372.57L1104.2 371.76C1104.7 370.62 1105.5 369.73 1106.6 369.09C1107.7 368.43 1109.01 368.1 1110.53 368.1ZM1129.3 384.15C1127.74 384.15 1126.34 383.81 1125.1 383.13C1123.88 382.43 1122.92 381.48 1122.22 380.28C1121.52 379.06 1121.17 377.67 1121.17 376.11C1121.17 374.53 1121.52 373.14 1122.22 371.94C1122.92 370.74 1123.88 369.8 1125.1 369.12C1126.34 368.44 1127.74 368.1 1129.3 368.1C1130.64 368.1 1131.85 368.36 1132.93 368.88C1134.01 369.4 1134.86 370.18 1135.48 371.22L1133.89 372.3C1133.35 371.5 1132.68 370.91 1131.88 370.53C1131.08 370.15 1130.21 369.96 1129.27 369.96C1128.15 369.96 1127.14 370.22 1126.24 370.74C1125.34 371.24 1124.63 371.95 1124.11 372.87C1123.59 373.79 1123.33 374.87 1123.33 376.11C1123.33 377.35 1123.59 378.43 1124.11 379.35C1124.63 380.27 1125.34 380.99 1126.24 381.51C1127.14 382.01 1128.15 382.26 1129.27 382.26C1130.21 382.26 1131.08 382.07 1131.88 381.69C1132.68 381.31 1133.35 380.73 1133.89 379.95L1135.48 381.03C1134.86 382.05 1134.01 382.83 1132.93 383.37C1131.85 383.89 1130.64 384.15 1129.3 384.15ZM1128.04 390.6C1127.54 390.6 1127.08 390.54 1126.66 390.42C1126.26 390.3 1125.88 390.13 1125.52 389.91L1126.03 388.77C1126.33 388.95 1126.64 389.09 1126.96 389.19C1127.3 389.29 1127.65 389.34 1128.01 389.34C1128.61 389.34 1129.07 389.21 1129.39 388.95C1129.71 388.71 1129.87 388.37 1129.87 387.93C1129.87 387.53 1129.71 387.2 1129.39 386.94C1129.09 386.68 1128.63 386.55 1128.01 386.55H1127.32L1128.04 383.82H1129.33L1128.88 385.56C1129.7 385.62 1130.33 385.87 1130.77 386.31C1131.21 386.77 1131.43 387.33 1131.43 387.99C1131.43 388.79 1131.11 389.42 1130.47 389.88C1129.85 390.36 1129.04 390.6 1128.04 390.6ZM1149.54 384V380.52L1149.45 379.95V374.13C1149.45 372.79 1149.07 371.76 1148.31 371.04C1147.57 370.32 1146.46 369.96 1144.98 369.96C1143.96 369.96 1142.99 370.13 1142.07 370.47C1141.15 370.81 1140.37 371.26 1139.73 371.82L1138.77 370.23C1139.57 369.55 1140.53 369.03 1141.65 368.67C1142.77 368.29 1143.95 368.1 1145.19 368.1C1147.23 368.1 1148.8 368.61 1149.9 369.63C1151.02 370.63 1151.58 372.16 1151.58 374.22V384H1149.54ZM1144.11 384.15C1142.93 384.15 1141.9 383.96 1141.02 383.58C1140.16 383.18 1139.5 382.64 1139.04 381.96C1138.58 381.26 1138.35 380.46 1138.35 379.56C1138.35 378.74 1138.54 378 1138.92 377.34C1139.32 376.66 1139.96 376.12 1140.84 375.72C1141.74 375.3 1142.94 375.09 1144.44 375.09H1149.87V376.68H1144.5C1142.98 376.68 1141.92 376.95 1141.32 377.49C1140.74 378.03 1140.45 378.7 1140.45 379.5C1140.45 380.4 1140.8 381.12 1141.5 381.66C1142.2 382.2 1143.18 382.47 1144.44 382.47C1145.64 382.47 1146.67 382.2 1147.53 381.66C1148.41 381.1 1149.05 380.3 1149.45 379.26L1149.93 380.73C1149.53 381.77 1148.83 382.6 1147.83 383.22C1146.85 383.84 1145.61 384.15 1144.11 384.15ZM1147.29 365.61C1146.83 365.61 1146.42 365.51 1146.06 365.31C1145.7 365.11 1145.37 364.88 1145.07 364.62C1144.79 364.34 1144.51 364.1 1144.23 363.9C1143.95 363.68 1143.66 363.57 1143.36 363.57C1142.9 363.57 1142.53 363.74 1142.25 364.08C1141.99 364.42 1141.84 364.89 1141.8 365.49H1140.51C1140.55 364.49 1140.81 363.69 1141.29 363.09C1141.79 362.49 1142.43 362.19 1143.21 362.19C1143.67 362.19 1144.08 362.3 1144.44 362.52C1144.82 362.72 1145.15 362.96 1145.43 363.24C1145.73 363.5 1146.01 363.73 1146.27 363.93C1146.55 364.13 1146.84 364.23 1147.14 364.23C1147.6 364.23 1147.97 364.07 1148.25 363.75C1148.53 363.41 1148.68 362.95 1148.7 362.37H1149.99C1149.97 363.33 1149.71 364.11 1149.21 364.71C1148.71 365.31 1148.07 365.61 1147.29 365.61ZM1163.78 384.15C1162.26 384.15 1160.89 383.81 1159.67 383.13C1158.47 382.43 1157.52 381.48 1156.82 380.28C1156.12 379.06 1155.77 377.67 1155.77 376.11C1155.77 374.53 1156.12 373.14 1156.82 371.94C1157.52 370.74 1158.47 369.8 1159.67 369.12C1160.87 368.44 1162.24 368.1 1163.78 368.1C1165.34 368.1 1166.72 368.44 1167.92 369.12C1169.14 369.8 1170.09 370.74 1170.77 371.94C1171.47 373.14 1171.82 374.53 1171.82 376.11C1171.82 377.67 1171.47 379.06 1170.77 380.28C1170.09 381.48 1169.14 382.43 1167.92 383.13C1166.7 383.81 1165.32 384.15 1163.78 384.15ZM1163.78 382.26C1164.92 382.26 1165.93 382.01 1166.81 381.51C1167.69 380.99 1168.38 380.27 1168.88 379.35C1169.4 378.41 1169.66 377.33 1169.66 376.11C1169.66 374.87 1169.4 373.79 1168.88 372.87C1168.38 371.95 1167.69 371.24 1166.81 370.74C1165.93 370.22 1164.93 369.96 1163.81 369.96C1162.69 369.96 1161.69 370.22 1160.81 370.74C1159.93 371.24 1159.23 371.95 1158.71 372.87C1158.19 373.79 1157.93 374.87 1157.93 376.11C1157.93 377.33 1158.19 378.41 1158.71 379.35C1159.23 380.27 1159.93 380.99 1160.81 381.51C1161.69 382.01 1162.68 382.26 1163.78 382.26Z" fill="black"/>
<path d="M587.016 288.929C575.529 288.929 566.186 298.272 566.186 309.758C566.186 321.244 575.529 330.588 587.016 330.588C598.502 330.588 608 321.244 608 309.758C608 298.272 598.502 288.929 587.016 288.929ZM589.391 320.912C589.371 320.92 589.35 320.916 589.33 320.923L589.33 323.645C589.33 324.924 588.295 325.959 587.015 325.959C585.736 325.959 584.701 324.924 584.701 323.645L584.701 320.907C583.177 320.392 581.716 319.415 580.467 317.927C579.645 316.948 579.771 315.488 580.752 314.667C581.731 313.845 583.196 313.971 584.012 314.952C585.237 316.41 586.622 316.989 587.807 316.564C588.717 316.231 589.33 315.357 589.33 314.387C589.33 313.11 588.292 312.073 587.015 312.073C583.187 312.073 580.072 308.958 580.072 305.129C580.072 302.334 581.736 299.822 584.31 298.733C584.438 298.679 584.573 298.682 584.701 298.636L584.701 295.872C584.701 294.593 585.736 293.557 587.016 293.557C588.295 293.557 589.33 294.593 589.33 295.872L589.33 298.641C590.529 299.045 591.697 299.689 592.741 300.7C593.658 301.588 593.681 303.052 592.79 303.972C591.902 304.89 590.435 304.91 589.518 304.022C588.392 302.93 587.147 302.555 586.116 302.996C585.257 303.36 584.701 304.196 584.701 305.13C584.701 306.407 585.738 307.444 587.015 307.444C590.844 307.444 593.959 310.559 593.959 314.387C593.959 317.296 592.124 319.918 589.391 320.912Z" fill="#E50914"/>
<path d="M531.314 312.073C530.035 312.073 529 313.108 529 314.387L529 337.686C529 338.965 530.035 340 531.314 340L538.258 340L538.258 312.073L531.314 312.073Z" fill="#E50914"/>
<path d="M583.892 275.446L567.691 261.559C566.827 260.814 565.544 260.814 564.68 261.559L548.479 275.446C547.742 276.074 547.478 277.096 547.814 278.004C548.149 278.913 549.015 279.517 549.984 279.517L556.928 279.517C556.928 299.526 556.928 319.99 556.928 340C562.89 340 567.012 340 573.129 340C574.408 340 575.443 338.965 575.443 337.686L575.443 332.406C567.213 328.184 561.557 319.628 561.557 309.758C561.557 299.889 567.213 291.333 575.443 287.11L575.443 279.517L582.387 279.517C583.356 279.517 584.222 278.913 584.557 278.005C584.894 277.096 584.629 276.074 583.892 275.446Z" fill="#E50914"/>
<path d="M545.355 293.557C544.076 293.557 543.041 294.593 543.041 295.872L543.041 340C546.422 340 549.016 340 552.299 340L552.299 293.557L545.355 293.557Z" fill="#E50914"/>
<path d="M476.42 381L476.42 360L478.25 360L487.85 376.38L486.89 376.38L496.4 360L498.23 360L498.23 381L496.1 381L496.1 363.33L496.61 363.33L487.85 378.33L486.8 378.33L477.98 363.33L478.55 363.33L478.55 381L476.42 381ZM511.042 381.15C509.522 381.15 508.152 380.81 506.932 380.13C505.732 379.43 504.782 378.48 504.082 377.28C503.382 376.06 503.032 374.67 503.032 373.11C503.032 371.53 503.382 370.14 504.082 368.94C504.782 367.74 505.732 366.8 506.932 366.12C508.132 365.44 509.502 365.1 511.042 365.1C512.602 365.1 513.982 365.44 515.182 366.12C516.402 366.8 517.352 367.74 518.032 368.94C518.732 370.14 519.082 371.53 519.082 373.11C519.082 374.67 518.732 376.06 518.032 377.28C517.352 378.48 516.402 379.43 515.182 380.13C513.962 380.81 512.582 381.15 511.042 381.15ZM511.042 379.26C512.182 379.26 513.192 379.01 514.072 378.51C514.952 377.99 515.642 377.27 516.142 376.35C516.662 375.41 516.922 374.33 516.922 373.11C516.922 371.87 516.662 370.79 516.142 369.87C515.642 368.95 514.952 368.24 514.072 367.74C513.192 367.22 512.192 366.96 511.072 366.96C509.952 366.96 508.952 367.22 508.072 367.74C507.192 368.24 506.492 368.95 505.972 369.87C505.452 370.79 505.192 371.87 505.192 373.11C505.192 374.33 505.452 375.41 505.972 376.35C506.492 377.27 507.192 377.99 508.072 378.51C508.952 379.01 509.942 379.26 511.042 379.26ZM531.471 365.1C532.751 365.1 533.871 365.35 534.831 365.85C535.811 366.33 536.571 367.07 537.111 368.07C537.671 369.07 537.951 370.33 537.951 371.85L537.951 381L535.821 381L535.821 372.06C535.821 370.4 535.401 369.15 534.561 368.31C533.741 367.45 532.581 367.02 531.081 367.02C529.961 367.02 528.981 367.25 528.141 367.71C527.321 368.15 526.681 368.8 526.221 369.66C525.781 370.5 525.561 371.52 525.561 372.72L525.561 381L523.431 381L523.431 365.25L525.471 365.25L525.471 369.57L525.141 368.76C525.641 367.62 526.441 366.73 527.541 366.09C528.641 365.43 529.951 365.1 531.471 365.1ZM550.394 381.15C548.754 381.15 547.314 380.81 546.074 380.13C544.834 379.43 543.864 378.48 543.164 377.28C542.464 376.06 542.114 374.67 542.114 373.11C542.114 371.55 542.444 370.17 543.104 368.97C543.784 367.77 544.704 366.83 545.864 366.15C547.044 365.45 548.364 365.1 549.824 365.1C551.304 365.1 552.614 365.44 553.754 366.12C554.914 366.78 555.824 367.72 556.484 368.94C557.144 370.14 557.474 371.53 557.474 373.11C557.474 373.21 557.464 373.32 557.444 373.44C557.444 373.54 557.444 373.65 557.444 373.77L543.734 373.77L543.734 372.18L556.304 372.18L555.464 372.81C555.464 371.67 555.214 370.66 554.714 369.78C554.234 368.88 553.574 368.18 552.734 367.68C551.894 367.18 550.924 366.93 549.824 366.93C548.744 366.93 547.774 367.18 546.914 367.68C546.054 368.18 545.384 368.88 544.904 369.78C544.424 370.68 544.184 371.71 544.184 372.87L544.184 373.2C544.184 374.4 544.444 375.46 544.964 376.38C545.504 377.28 546.244 377.99 547.184 378.51C548.144 379.01 549.234 379.26 550.454 379.26C551.414 379.26 552.304 379.09 553.124 378.75C553.964 378.41 554.684 377.89 555.284 377.19L556.484 378.57C555.784 379.41 554.904 380.05 553.844 380.49C552.804 380.93 551.654 381.15 550.394 381.15ZM566.79 381.15C565.31 381.15 564.17 380.75 563.37 379.95C562.57 379.15 562.17 378.02 562.17 376.56L562.17 361.77L564.3 361.77L564.3 376.44C564.3 377.36 564.53 378.07 564.99 378.57C565.47 379.07 566.15 379.32 567.03 379.32C567.97 379.32 568.75 379.05 569.37 378.51L570.12 380.04C569.7 380.42 569.19 380.7 568.59 380.88C568.01 381.06 567.41 381.15 566.79 381.15ZM559.35 367.02L559.35 365.25L569.1 365.25L569.1 367.02L559.35 367.02ZM573.997 381L573.997 365.25L576.127 365.25L576.127 381L573.997 381ZM575.077 361.77C574.637 361.77 574.267 361.62 573.967 361.32C573.667 361.02 573.517 360.66 573.517 360.24C573.517 359.82 573.667 359.47 573.967 359.19C574.267 358.89 574.637 358.74 575.077 358.74C575.517 358.74 575.887 358.88 576.187 359.16C576.487 359.44 576.637 359.79 576.637 360.21C576.637 360.65 576.487 361.02 576.187 361.32C575.907 361.62 575.537 361.77 575.077 361.77ZM580.344 381L580.344 379.59L590.844 366.3L591.294 367.02L580.524 367.02L580.524 365.25L592.974 365.25L592.974 366.63L582.504 379.95L581.964 379.23L593.184 379.23L593.184 381L580.344 381ZM607.246 381L607.246 377.52L607.156 376.95L607.156 371.13C607.156 369.79 606.776 368.76 606.016 368.04C605.276 367.32 604.166 366.96 602.686 366.96C601.666 366.96 600.696 367.13 599.776 367.47C598.856 367.81 598.076 368.26 597.436 368.82L596.476 367.23C597.276 366.55 598.236 366.03 599.356 365.67C600.476 365.29 601.656 365.1 602.896 365.1C604.936 365.1 606.506 365.61 607.606 366.63C608.726 367.63 609.286 369.16 609.286 371.22L609.286 381L607.246 381ZM601.816 381.15C600.636 381.15 599.606 380.96 598.726 380.58C597.866 380.18 597.206 379.64 596.746 378.96C596.286 378.26 596.056 377.46 596.056 376.56C596.056 375.74 596.246 375 596.626 374.34C597.026 373.66 597.666 373.12 598.546 372.72C599.446 372.3 600.646 372.09 602.146 372.09L607.576 372.09L607.576 373.68L602.206 373.68C600.686 373.68 599.626 373.95 599.026 374.49C598.446 375.03 598.156 375.7 598.156 376.5C598.156 377.4 598.506 378.12 599.206 378.66C599.906 379.2 600.886 379.47 602.146 379.47C603.346 379.47 604.376 379.2 605.236 378.66C606.116 378.1 606.756 377.3 607.156 376.26L607.636 377.73C607.236 378.77 606.536 379.6 605.536 380.22C604.556 380.84 603.316 381.15 601.816 381.15ZM621.612 381.15C620.052 381.15 618.652 380.81 617.412 380.13C616.192 379.43 615.232 378.48 614.532 377.28C613.832 376.06 613.482 374.67 613.482 373.11C613.482 371.53 613.832 370.14 614.532 368.94C615.232 367.74 616.192 366.8 617.412 366.12C618.652 365.44 620.052 365.1 621.612 365.1C622.952 365.1 624.162 365.36 625.242 365.88C626.322 366.4 627.172 367.18 627.792 368.22L626.202 369.3C625.662 368.5 624.992 367.91 624.192 367.53C623.392 367.15 622.522 366.96 621.582 366.96C620.462 366.96 619.452 367.22 618.552 367.74C617.652 368.24 616.942 368.95 616.422 369.87C615.902 370.79 615.642 371.87 615.642 373.11C615.642 374.35 615.902 375.43 616.422 376.35C616.942 377.27 617.652 377.99 618.552 378.51C619.452 379.01 620.462 379.26 621.582 379.26C622.522 379.26 623.392 379.07 624.192 378.69C624.992 378.31 625.662 377.73 626.202 376.95L627.792 378.03C627.172 379.05 626.322 379.83 625.242 380.37C624.162 380.89 622.952 381.15 621.612 381.15ZM620.352 387.6C619.852 387.6 619.392 387.54 618.972 387.42C618.572 387.3 618.192 387.13 617.832 386.91L618.342 385.77C618.642 385.95 618.952 386.09 619.272 386.19C619.612 386.29 619.962 386.34 620.322 386.34C620.922 386.34 621.382 386.21 621.702 385.95C622.022 385.71 622.182 385.37 622.182 384.93C622.182 384.53 622.022 384.2 621.702 383.94C621.402 383.68 620.942 383.55 620.322 383.55L619.632 383.55L620.352 380.82L621.642 380.82L621.192 382.56C622.012 382.62 622.642 382.87 623.082 383.31C623.522 383.77 623.742 384.33 623.742 384.99C623.742 385.79 623.422 386.42 622.782 386.88C622.162 387.36 621.352 387.6 620.352 387.6ZM641.846 381L641.846 377.52L641.756 376.95L641.756 371.13C641.756 369.79 641.376 368.76 640.616 368.04C639.876 367.32 638.766 366.96 637.286 366.96C636.266 366.96 635.296 367.13 634.376 367.47C633.456 367.81 632.676 368.26 632.036 368.82L631.076 367.23C631.876 366.55 632.836 366.03 633.956 365.67C635.076 365.29 636.256 365.1 637.496 365.1C639.536 365.1 641.106 365.61 642.206 366.63C643.326 367.63 643.886 369.16 643.886 371.22L643.886 381L641.846 381ZM636.416 381.15C635.236 381.15 634.206 380.96 633.326 380.58C632.466 380.18 631.806 379.64 631.346 378.96C630.886 378.26 630.656 377.46 630.656 376.56C630.656 375.74 630.846 375 631.226 374.34C631.626 373.66 632.266 373.12 633.146 372.72C634.046 372.3 635.246 372.09 636.746 372.09L642.176 372.09L642.176 373.68L636.806 373.68C635.286 373.68 634.226 373.95 633.626 374.49C633.046 375.03 632.756 375.7 632.756 376.5C632.756 377.4 633.106 378.12 633.806 378.66C634.506 379.2 635.486 379.47 636.746 379.47C637.946 379.47 638.976 379.2 639.836 378.66C640.716 378.1 641.356 377.3 641.756 376.26L642.236 377.73C641.836 378.77 641.136 379.6 640.136 380.22C639.156 380.84 637.916 381.15 636.416 381.15ZM639.596 362.61C639.136 362.61 638.726 362.51 638.366 362.31C638.006 362.11 637.676 361.88 637.376 361.62C637.096 361.34 636.816 361.1 636.536 360.9C636.256 360.68 635.966 360.57 635.666 360.57C635.206 360.57 634.836 360.74 634.556 361.08C634.296 361.42 634.146 361.89 634.106 362.49L632.816 362.49C632.856 361.49 633.116 360.69 633.596 360.09C634.096 359.49 634.736 359.19 635.516 359.19C635.976 359.19 636.386 359.3 636.746 359.52C637.126 359.72 637.456 359.96 637.736 360.24C638.036 360.5 638.316 360.73 638.576 360.93C638.856 361.13 639.146 361.23 639.446 361.23C639.906 361.23 640.276 361.07 640.556 360.75C640.836 360.41 640.986 359.95 641.006 359.37L642.296 359.37C642.276 360.33 642.016 361.11 641.516 361.71C641.016 362.31 640.376 362.61 639.596 362.61ZM656.091 381.15C654.571 381.15 653.201 380.81 651.981 380.13C650.781 379.43 649.831 378.48 649.131 377.28C648.431 376.06 648.081 374.67 648.081 373.11C648.081 371.53 648.431 370.14 649.131 368.94C649.831 367.74 650.781 366.8 651.981 366.12C653.181 365.44 654.551 365.1 656.091 365.1C657.651 365.1 659.031 365.44 660.231 366.12C661.451 366.8 662.401 367.74 663.081 368.94C663.781 370.14 664.131 371.53 664.131 373.11C664.131 374.67 663.781 376.06 663.081 377.28C662.401 378.48 661.451 379.43 660.231 380.13C659.011 380.81 657.631 381.15 656.091 381.15ZM656.091 379.26C657.231 379.26 658.241 379.01 659.121 378.51C660.001 377.99 660.691 377.27 661.191 376.35C661.711 375.41 661.971 374.33 661.971 373.11C661.971 371.87 661.711 370.79 661.191 369.87C660.691 368.95 660.001 368.24 659.121 367.74C658.241 367.22 657.241 366.96 656.121 366.96C655.001 366.96 654.001 367.22 653.121 367.74C652.241 368.24 651.541 368.95 651.021 369.87C650.501 370.79 650.241 371.87 650.241 373.11C650.241 374.33 650.501 375.41 651.021 376.35C651.541 377.27 652.241 377.99 653.121 378.51C654.001 379.01 654.991 379.26 656.091 379.26Z" fill="black"/>
<defs>
<linearGradient id="paint0_linear_202_219" x1="719.5" y1="98.5" x2="1083" y2="183" gradientUnits="userSpaceOnUse">
<stop/>
<stop offset="1" stop-opacity="0"/>
</linearGradient>
<linearGradient id="paint1_linear_202_219" x1="1083" y1="456" x2="586" y2="456" gradientUnits="userSpaceOnUse">
<stop/>
<stop offset="1" stop-opacity="0"/>
</linearGradient>
<linearGradient id="paint2_linear_202_219" x1="286" y1="603" x2="533" y2="458" gradientUnits="userSpaceOnUse">
<stop/>
<stop offset="1" stop-opacity="0"/>
</linearGradient>
<linearGradient id="paint3_linear_202_219" x1="533" y1="182" x2="298.296" y2="35.5261" gradientUnits="userSpaceOnUse">
<stop/>
<stop offset="1" stop-opacity="0"/>
</linearGradient>
<linearGradient id="paint4_linear_202_219" x1="-8.5" y1="247.5" x2="53" y2="482" gradientUnits="userSpaceOnUse">
<stop/>
<stop offset="1" stop-opacity="0"/>
</linearGradient>
</defs>
</svg>
