<svg width="587" height="907" viewBox="0 0 587 907" fill="none" xmlns="http://www.w3.org/2000/svg">
<g opacity="0.5">
<path d="M389.224 449.129C388.163 449.436 387.553 450.546 387.86 451.607L392.874 468.894C393.181 469.955 394.291 470.566 395.352 470.258C396.413 469.95 397.023 468.841 396.715 467.78L392.259 452.413L407.626 447.957C408.687 447.649 409.297 446.54 408.99 445.479C408.682 444.418 407.573 443.808 406.512 444.115L389.224 449.129ZM388.817 452.802C452.959 488.105 496.414 556.338 496.414 634.717L500.414 634.717C500.414 554.821 456.113 485.275 390.746 449.297L388.817 452.802ZM496.414 634.717C496.414 713.097 452.959 781.33 388.817 816.633L390.746 820.137C456.113 784.159 500.414 714.613 500.414 634.717L496.414 634.717Z" fill="url(#paint0_linear_202_240)"/>
<path d="M188.592 820.306C189.653 819.998 190.264 818.889 189.956 817.828L184.943 800.54C184.635 799.479 183.526 798.869 182.465 799.176C181.404 799.484 180.793 800.593 181.101 801.654L185.557 817.021L170.19 821.477C169.13 821.785 168.519 822.894 168.827 823.955C169.134 825.016 170.244 825.627 171.304 825.319L188.592 820.306ZM188.999 816.633C124.858 781.33 81.4022 713.097 81.4023 634.717L77.4023 634.717C77.4022 714.613 121.703 784.159 187.071 820.137L188.999 816.633ZM81.4023 634.717C81.4023 556.338 124.858 488.105 189 452.802L187.071 449.297C121.703 485.275 77.4023 554.821 77.4023 634.717L81.4023 634.717Z" fill="url(#paint1_linear_202_240)"/>
</g>
<g opacity="0.5">
<path d="M80.8179 227.592C80.0369 226.811 78.7706 226.811 77.9895 227.592L65.2616 240.32C64.4805 241.101 64.4805 242.367 65.2616 243.148C66.0426 243.929 67.309 243.929 68.09 243.148L79.4037 231.835L90.7174 243.148C91.4985 243.929 92.7648 243.929 93.5459 243.148C94.3269 242.367 94.3269 241.101 93.5459 240.32L80.8179 227.592ZM187.537 410.108C124.199 374.577 81.4037 306.788 81.4037 229.006L77.4037 229.006C77.4037 308.293 121.031 377.387 185.58 413.597L187.537 410.108Z" fill="url(#paint2_linear_202_240)"/>
<path d="M388.965 411.514C388.664 412.576 389.282 413.682 390.344 413.983L407.662 418.892C408.725 419.193 409.83 418.576 410.132 417.513C410.433 416.45 409.816 415.345 408.753 415.044L393.359 410.68L397.722 395.287C398.024 394.224 397.406 393.118 396.344 392.817C395.281 392.516 394.175 393.133 393.874 394.196L388.965 411.514ZM496.414 229.006C496.414 306.938 453.454 374.838 389.915 410.313L391.865 413.805C456.618 377.653 500.414 308.445 500.414 229.006L496.414 229.006Z" fill="url(#paint3_linear_202_240)"/>
<path d="M402.035 54.3155C403.114 54.0782 403.796 53.0112 403.559 51.9325L399.691 34.3529C399.454 33.2742 398.387 32.5921 397.308 32.8294C396.229 33.0668 395.547 34.1337 395.784 35.2124L399.222 50.8387L383.596 54.2768C382.517 54.5141 381.835 55.581 382.073 56.6598C382.31 57.7386 383.377 58.4207 384.456 58.1833L402.035 54.3155ZM288.908 21.5C330.002 21.5 368.3 33.4432 400.528 54.0473L402.683 50.6772C369.831 29.6741 330.788 17.5 288.908 17.5L288.908 21.5ZM169.968 58.9484C203.648 35.3487 244.658 21.5 288.908 21.5L288.908 17.5C243.81 17.5 202.003 31.6168 167.673 55.6726L169.968 58.9484Z" fill="url(#paint4_linear_202_240)"/>
</g>
<path d="M466.223 106.39C451.283 106.39 439 116.664 439 129.293C439 134.341 440.958 139.471 444.549 143.448L439.478 149.242C439.233 149.522 439.074 149.866 439.02 150.234C438.967 150.602 439.02 150.977 439.174 151.316C439.327 151.654 439.575 151.942 439.887 152.143C440.2 152.344 440.564 152.452 440.935 152.452L468.158 152.452C479.189 152.452 493.446 142.953 493.446 129.293C493.446 116.664 481.163 106.39 466.223 106.39ZM454.482 132.84C452.348 132.84 450.612 131.103 450.612 128.97C450.612 126.836 452.349 125.099 454.482 125.099C456.616 125.099 458.353 126.836 458.353 128.97C458.353 131.103 456.616 132.84 454.482 132.84ZM466.223 132.84C464.089 132.84 462.352 131.103 462.352 128.97C462.352 126.836 464.089 125.099 466.223 125.099C468.357 125.099 470.093 126.836 470.093 128.97C470.093 131.103 468.357 132.84 466.223 132.84ZM477.964 132.84C475.83 132.84 474.093 131.103 474.093 128.97C474.093 126.836 475.83 125.099 477.964 125.099C480.097 125.099 481.834 126.836 481.834 128.97C481.834 131.103 480.097 132.84 477.964 132.84Z" fill="#E50914"/>
<path d="M504.591 125.774L500.034 120.457C503.287 116.787 505.058 112.311 505.058 107.681C505.058 95.9426 493.771 86.3926 479.899 86.3926C467.355 86.3926 456.698 94.21 454.816 104.385C458.316 103.196 462.241 102.52 466.223 102.52C483.17 102.52 497.094 114.357 497.298 128.97L503.122 128.97C504.776 128.97 505.663 127.023 504.591 125.774Z" fill="#E50914"/>
<path d="M374.832 188.39H385.932V190.28H374.832V188.39ZM375.072 198.08H387.702V200H372.852V179H387.252V180.92H375.072V198.08ZM400.51 184.1C401.79 184.1 402.91 184.35 403.87 184.85C404.85 185.33 405.61 186.07 406.15 187.07C406.71 188.07 406.99 189.33 406.99 190.85V200H404.86V191.06C404.86 189.4 404.44 188.15 403.6 187.31C402.78 186.45 401.62 186.02 400.12 186.02C399 186.02 398.02 186.25 397.18 186.71C396.36 187.15 395.72 187.8 395.26 188.66C394.82 189.5 394.6 190.52 394.6 191.72V200H392.47V184.25H394.51V188.57L394.18 187.76C394.68 186.62 395.48 185.73 396.58 185.09C397.68 184.43 398.99 184.1 400.51 184.1ZM419.463 205.97C418.023 205.97 416.643 205.76 415.323 205.34C414.003 204.92 412.933 204.32 412.113 203.54L413.193 201.92C413.933 202.58 414.843 203.1 415.923 203.48C417.023 203.88 418.183 204.08 419.403 204.08C421.403 204.08 422.873 203.61 423.813 202.67C424.753 201.75 425.223 200.31 425.223 198.35V194.42L425.523 191.72L425.313 189.02V184.25H427.353V198.08C427.353 200.8 426.683 202.79 425.343 204.05C424.023 205.33 422.063 205.97 419.463 205.97ZM419.073 199.4C417.573 199.4 416.223 199.08 415.023 198.44C413.823 197.78 412.873 196.87 412.173 195.71C411.493 194.55 411.153 193.22 411.153 191.72C411.153 190.22 411.493 188.9 412.173 187.76C412.873 186.6 413.823 185.7 415.023 185.06C416.223 184.42 417.573 184.1 419.073 184.1C420.473 184.1 421.733 184.39 422.853 184.97C423.973 185.55 424.863 186.41 425.523 187.55C426.183 188.69 426.513 190.08 426.513 191.72C426.513 193.36 426.183 194.75 425.523 195.89C424.863 197.03 423.973 197.9 422.853 198.5C421.733 199.1 420.473 199.4 419.073 199.4ZM419.283 197.51C420.443 197.51 421.473 197.27 422.373 196.79C423.273 196.29 423.983 195.61 424.503 194.75C425.023 193.87 425.283 192.86 425.283 191.72C425.283 190.58 425.023 189.58 424.503 188.72C423.983 187.86 423.273 187.19 422.373 186.71C421.473 186.21 420.443 185.96 419.283 185.96C418.143 185.96 417.113 186.21 416.193 186.71C415.293 187.19 414.583 187.86 414.063 188.72C413.563 189.58 413.313 190.58 413.313 191.72C413.313 192.86 413.563 193.87 414.063 194.75C414.583 195.61 415.293 196.29 416.193 196.79C417.113 197.27 418.143 197.51 419.283 197.51ZM443.151 200V196.52L443.061 195.95V190.13C443.061 188.79 442.681 187.76 441.921 187.04C441.181 186.32 440.071 185.96 438.591 185.96C437.571 185.96 436.601 186.13 435.681 186.47C434.761 186.81 433.981 187.26 433.341 187.82L432.381 186.23C433.181 185.55 434.141 185.03 435.261 184.67C436.381 184.29 437.561 184.1 438.801 184.1C440.841 184.1 442.411 184.61 443.511 185.63C444.631 186.63 445.191 188.16 445.191 190.22V200H443.151ZM437.721 200.15C436.541 200.15 435.511 199.96 434.631 199.58C433.771 199.18 433.111 198.64 432.651 197.96C432.191 197.26 431.961 196.46 431.961 195.56C431.961 194.74 432.151 194 432.531 193.34C432.931 192.66 433.571 192.12 434.451 191.72C435.351 191.3 436.551 191.09 438.051 191.09H443.481V192.68H438.111C436.591 192.68 435.531 192.95 434.931 193.49C434.351 194.03 434.061 194.7 434.061 195.5C434.061 196.4 434.411 197.12 435.111 197.66C435.811 198.2 436.791 198.47 438.051 198.47C439.251 198.47 440.281 198.2 441.141 197.66C442.021 197.1 442.661 196.3 443.061 195.26L443.541 196.73C443.141 197.77 442.441 198.6 441.441 199.22C440.461 199.84 439.221 200.15 437.721 200.15ZM448.636 205.97C447.996 205.97 447.386 205.88 446.806 205.7C446.206 205.54 445.706 205.29 445.306 204.95L446.056 203.33C446.696 203.87 447.516 204.14 448.516 204.14C449.356 204.14 449.996 203.89 450.436 203.39C450.896 202.89 451.126 202.15 451.126 201.17V184.25H453.256V201.17C453.256 202.63 452.856 203.79 452.056 204.65C451.276 205.53 450.136 205.97 448.636 205.97ZM452.206 180.77C451.766 180.77 451.396 180.62 451.096 180.32C450.796 180.02 450.646 179.66 450.646 179.24C450.646 178.82 450.796 178.47 451.096 178.19C451.396 177.89 451.766 177.74 452.206 177.74C452.646 177.74 453.016 177.88 453.316 178.16C453.616 178.44 453.766 178.79 453.766 179.21C453.766 179.65 453.616 180.02 453.316 180.32C453.036 180.62 452.666 180.77 452.206 180.77ZM469.078 200V196.52L468.988 195.95V190.13C468.988 188.79 468.608 187.76 467.848 187.04C467.108 186.32 465.998 185.96 464.518 185.96C463.498 185.96 462.528 186.13 461.608 186.47C460.688 186.81 459.908 187.26 459.268 187.82L458.308 186.23C459.108 185.55 460.068 185.03 461.188 184.67C462.308 184.29 463.488 184.1 464.728 184.1C466.768 184.1 468.338 184.61 469.438 185.63C470.558 186.63 471.118 188.16 471.118 190.22V200H469.078ZM463.648 200.15C462.468 200.15 461.438 199.96 460.558 199.58C459.698 199.18 459.038 198.64 458.578 197.96C458.118 197.26 457.888 196.46 457.888 195.56C457.888 194.74 458.078 194 458.458 193.34C458.858 192.66 459.498 192.12 460.378 191.72C461.278 191.3 462.478 191.09 463.978 191.09H469.408V192.68H464.038C462.518 192.68 461.458 192.95 460.858 193.49C460.278 194.03 459.988 194.7 459.988 195.5C459.988 196.4 460.338 197.12 461.038 197.66C461.738 198.2 462.718 198.47 463.978 198.47C465.178 198.47 466.208 198.2 467.068 197.66C467.948 197.1 468.588 196.3 468.988 195.26L469.468 196.73C469.068 197.77 468.368 198.6 467.368 199.22C466.388 199.84 465.148 200.15 463.648 200.15ZM496.584 184.1C497.864 184.1 498.974 184.35 499.914 184.85C500.874 185.33 501.614 186.07 502.134 187.07C502.674 188.07 502.944 189.33 502.944 190.85V200H500.814V191.06C500.814 189.4 500.414 188.15 499.614 187.31C498.834 186.45 497.724 186.02 496.284 186.02C495.204 186.02 494.264 186.25 493.464 186.71C492.684 187.15 492.074 187.8 491.634 188.66C491.214 189.5 491.004 190.52 491.004 191.72V200H488.874V191.06C488.874 189.4 488.474 188.15 487.674 187.31C486.874 186.45 485.754 186.02 484.314 186.02C483.254 186.02 482.324 186.25 481.524 186.71C480.724 187.15 480.104 187.8 479.664 188.66C479.244 189.5 479.034 190.52 479.034 191.72V200H476.904V184.25H478.944V188.51L478.614 187.76C479.094 186.62 479.864 185.73 480.924 185.09C482.004 184.43 483.274 184.1 484.734 184.1C486.274 184.1 487.584 184.49 488.664 185.27C489.744 186.03 490.444 187.18 490.764 188.72L489.924 188.39C490.384 187.11 491.194 186.08 492.354 185.3C493.534 184.5 494.944 184.1 496.584 184.1ZM515.41 200.15C513.77 200.15 512.33 199.81 511.09 199.13C509.85 198.43 508.88 197.48 508.18 196.28C507.48 195.06 507.13 193.67 507.13 192.11C507.13 190.55 507.46 189.17 508.12 187.97C508.8 186.77 509.72 185.83 510.88 185.15C512.06 184.45 513.38 184.1 514.84 184.1C516.32 184.1 517.63 184.44 518.77 185.12C519.93 185.78 520.84 186.72 521.5 187.94C522.16 189.14 522.49 190.53 522.49 192.11C522.49 192.21 522.48 192.32 522.46 192.44C522.46 192.54 522.46 192.65 522.46 192.77H508.75V191.18H521.32L520.48 191.81C520.48 190.67 520.23 189.66 519.73 188.78C519.25 187.88 518.59 187.18 517.75 186.68C516.91 186.18 515.94 185.93 514.84 185.93C513.76 185.93 512.79 186.18 511.93 186.68C511.07 187.18 510.4 187.88 509.92 188.78C509.44 189.68 509.2 190.71 509.2 191.87V192.2C509.2 193.4 509.46 194.46 509.98 195.38C510.52 196.28 511.26 196.99 512.2 197.51C513.16 198.01 514.25 198.26 515.47 198.26C516.43 198.26 517.32 198.09 518.14 197.75C518.98 197.41 519.7 196.89 520.3 196.19L521.5 197.57C520.8 198.41 519.92 199.05 518.86 199.49C517.82 199.93 516.67 200.15 515.41 200.15ZM534.865 184.1C536.145 184.1 537.265 184.35 538.225 184.85C539.205 185.33 539.965 186.07 540.505 187.07C541.065 188.07 541.345 189.33 541.345 190.85V200H539.215V191.06C539.215 189.4 538.795 188.15 537.955 187.31C537.135 186.45 535.975 186.02 534.475 186.02C533.355 186.02 532.375 186.25 531.535 186.71C530.715 187.15 530.075 187.8 529.615 188.66C529.175 189.5 528.955 190.52 528.955 191.72V200H526.825V184.25H528.865V188.57L528.535 187.76C529.035 186.62 529.835 185.73 530.935 185.09C532.035 184.43 533.345 184.1 534.865 184.1ZM552.079 200.15C550.599 200.15 549.459 199.75 548.659 198.95C547.859 198.15 547.459 197.02 547.459 195.56V180.77H549.589V195.44C549.589 196.36 549.819 197.07 550.279 197.57C550.759 198.07 551.439 198.32 552.319 198.32C553.259 198.32 554.039 198.05 554.659 197.51L555.409 199.04C554.989 199.42 554.479 199.7 553.879 199.88C553.299 200.06 552.699 200.15 552.079 200.15ZM544.639 186.02V184.25H554.389V186.02H544.639ZM565.15 200.15C563.63 200.15 562.26 199.81 561.04 199.13C559.84 198.43 558.89 197.48 558.19 196.28C557.49 195.06 557.14 193.67 557.14 192.11C557.14 190.53 557.49 189.14 558.19 187.94C558.89 186.74 559.84 185.8 561.04 185.12C562.24 184.44 563.61 184.1 565.15 184.1C566.71 184.1 568.09 184.44 569.29 185.12C570.51 185.8 571.46 186.74 572.14 187.94C572.84 189.14 573.19 190.53 573.19 192.11C573.19 193.67 572.84 195.06 572.14 196.28C571.46 197.48 570.51 198.43 569.29 199.13C568.07 199.81 566.69 200.15 565.15 200.15ZM565.15 198.26C566.29 198.26 567.3 198.01 568.18 197.51C569.06 196.99 569.75 196.27 570.25 195.35C570.77 194.41 571.03 193.33 571.03 192.11C571.03 190.87 570.77 189.79 570.25 188.87C569.75 187.95 569.06 187.24 568.18 186.74C567.3 186.22 566.3 185.96 565.18 185.96C564.06 185.96 563.06 186.22 562.18 186.74C561.3 187.24 560.6 187.95 560.08 188.87C559.56 189.79 559.3 190.87 559.3 192.11C559.3 193.33 559.56 194.41 560.08 195.35C560.6 196.27 561.3 196.99 562.18 197.51C563.06 198.01 564.05 198.26 565.15 198.26Z" fill="black"/>
<path d="M62.8357 121.481L57.9206 126.358C56.5637 127.705 56.5637 129.889 57.9206 131.236C59.2782 132.583 61.4787 132.583 62.8357 131.236L67.7507 126.358C69.1083 125.011 69.1083 122.827 67.7507 121.481C66.3938 120.134 64.1933 120.134 62.8357 121.481Z" fill="#E50914"/>
<path d="M79.219 137.739L74.3039 142.617C72.9469 143.964 72.9469 146.148 74.3039 147.494C75.6609 148.841 77.8614 148.841 79.219 147.494L84.134 142.617C85.491 141.27 85.491 139.086 84.134 137.739C82.7764 136.392 80.5765 136.392 79.219 137.739Z" fill="#E50914"/>
<path d="M90.6872 152.372L92.3253 150.746C93.6829 149.399 93.6829 147.215 92.3253 145.868C90.9684 144.522 88.7679 144.522 87.4103 145.868L85.7722 147.494C84.4152 148.841 84.4152 151.025 85.7722 152.372C87.1291 153.719 89.3302 153.719 90.6872 152.372Z" fill="#E50914"/>
<path d="M74.3039 126.358L66.1126 134.487C64.755 135.835 64.755 138.018 66.1126 139.365C67.4696 140.712 69.67 140.712 71.027 139.365L79.219 131.236C80.5759 129.889 80.5759 127.705 79.219 126.358C77.8614 125.011 75.6615 125.011 74.3039 126.358Z" fill="#E50914"/>
<path d="M80.0377 91.4024L74.0879 85.4355C73.1829 84.5374 71.7161 84.5374 70.811 85.4355L51.1514 104.946C50.2464 105.844 50.2464 107.299 51.1514 108.198L55.1681 112.245C56.4394 113.507 57.3975 115.046 57.9665 116.739L58.74 119.042L59.5594 118.229C62.721 115.092 67.866 115.092 71.0276 118.229C72.0292 119.223 72.6772 120.424 73.0441 121.689C76.0971 120.12 79.9388 120.569 82.4959 123.107C85.0529 125.644 85.5049 129.457 83.9246 132.487C85.199 132.851 86.4087 133.493 87.4109 134.487C89.0159 136.08 89.7972 138.181 89.7725 140.273C91.8813 140.249 93.9973 141.024 95.6022 142.617C96.4083 143.417 98.8791 145.868 98.8791 145.868C100.236 147.216 102.437 147.216 103.794 145.868C105.151 144.522 105.151 142.338 103.794 140.991L98.0598 135.301C97.1547 134.402 97.1547 132.947 98.0598 132.049C98.9648 131.151 100.432 131.151 101.336 132.049L107.07 137.739C108.427 139.086 110.629 139.086 111.986 137.739C113.342 136.393 113.342 134.208 111.986 132.862L106.251 127.171C105.347 126.273 105.347 124.818 106.251 123.92C107.156 123.021 108.624 123.021 109.528 123.92L115.262 129.61C116.619 130.956 118.82 130.956 120.177 129.61C121.534 128.263 121.534 126.079 120.177 124.733L106.086 110.748C101.59 113.698 95.4623 113.212 91.5066 109.287C90.6027 108.39 89.1341 108.39 88.2303 109.287C83.7135 113.769 76.3638 113.769 71.847 109.287C69.1367 106.598 69.1367 102.221 71.847 99.532L80.0377 91.4024Z" fill="#E50914"/>
<path d="M109.219 85.2056C108.314 84.3074 106.847 84.3074 105.942 85.2056L101.042 90.0689C100.181 90.9227 99.0143 91.4024 97.7979 91.4024L89.4702 91.4024C87.6269 91.4024 85.859 92.1293 84.5558 93.4226L75.1233 102.783C74.2056 103.694 74.2056 105.125 75.1233 106.035C77.8427 108.734 82.2334 108.734 84.9528 106.035C87.4037 103.603 91.2441 103.37 93.9611 105.337C97.6151 107.982 102.488 108.144 105.686 104.969L106.251 104.409L122.192 120.229C122.413 119.419 122.417 118.561 122.201 117.765C121.826 116.386 122.37 114.427 123.388 113.416L128.879 107.968C129.784 107.069 129.784 105.614 128.879 104.716L109.219 85.2056Z" fill="#E50914"/>
<path d="M16.9 200.282L26.5 179.282H28.69L38.29 200.282H35.95L27.13 180.572H28.03L19.21 200.282H16.9ZM20.68 194.672L21.34 192.872H33.55L34.21 194.672H20.68ZM47.4375 200.432C45.9375 200.432 44.5875 200.092 43.3875 199.412C42.2075 198.732 41.2775 197.792 40.5975 196.592C39.9175 195.392 39.5775 193.992 39.5775 192.392C39.5775 190.812 39.9175 189.422 40.5975 188.222C41.2775 187.002 42.2075 186.062 43.3875 185.402C44.5875 184.722 45.9375 184.382 47.4375 184.382C48.8375 184.382 50.0775 184.692 51.1575 185.312C52.2575 185.932 53.1275 186.842 53.7675 188.042C54.4075 189.222 54.7275 190.672 54.7275 192.392C54.7275 194.112 54.3975 195.572 53.7375 196.772C53.0975 197.952 52.2275 198.862 51.1275 199.502C50.0475 200.122 48.8175 200.432 47.4375 200.432ZM47.5875 198.542C48.7075 198.542 49.7075 198.292 50.5875 197.792C51.4875 197.272 52.1875 196.552 52.6875 195.632C53.2075 194.692 53.4675 193.612 53.4675 192.392C53.4675 191.172 53.2075 190.102 52.6875 189.182C52.1875 188.262 51.4875 187.542 50.5875 187.022C49.7075 186.502 48.7075 186.242 47.5875 186.242C46.4875 186.242 45.4975 186.502 44.6175 187.022C43.7375 187.542 43.0375 188.262 42.5175 189.182C41.9975 190.102 41.7375 191.172 41.7375 192.392C41.7375 193.612 41.9975 194.692 42.5175 195.632C43.0375 196.552 43.7375 197.272 44.6175 197.792C45.4975 198.292 46.4875 198.542 47.5875 198.542ZM53.4375 206.102V195.602L53.7375 192.422L53.5275 189.272V184.532H55.5675V206.102H53.4375ZM68.0095 200.432C66.6695 200.432 65.4995 200.182 64.4995 199.682C63.4995 199.182 62.7195 198.432 62.1595 197.432C61.6195 196.432 61.3495 195.182 61.3495 193.682V184.532H63.4795V193.442C63.4795 195.122 63.8895 196.392 64.7095 197.252C65.5495 198.092 66.7195 198.512 68.2195 198.512C69.3195 198.512 70.2695 198.292 71.0695 197.852C71.8895 197.392 72.5095 196.732 72.9295 195.872C73.3695 195.012 73.5895 193.982 73.5895 192.782V184.532H75.7195V200.282H73.6795V195.962L74.0095 196.742C73.5095 197.902 72.7295 198.812 71.6695 199.472C70.6295 200.112 69.4095 200.432 68.0095 200.432ZM81.6557 200.282V184.532H83.7857V200.282H81.6557ZM82.7357 181.052C82.2957 181.052 81.9257 180.902 81.6257 180.602C81.3257 180.302 81.1757 179.942 81.1757 179.522C81.1757 179.102 81.3257 178.752 81.6257 178.472C81.9257 178.172 82.2957 178.022 82.7357 178.022C83.1757 178.022 83.5457 178.162 83.8457 178.442C84.1457 178.722 84.2957 179.072 84.2957 179.492C84.2957 179.932 84.1457 180.302 83.8457 180.602C83.5657 180.902 83.1957 181.052 82.7357 181.052ZM93.9424 200.432C92.6424 200.432 91.4124 200.252 90.2524 199.892C89.0924 199.512 88.1824 199.042 87.5224 198.482L88.4824 196.802C89.1224 197.282 89.9424 197.702 90.9424 198.062C91.9424 198.402 92.9924 198.572 94.0924 198.572C95.5924 198.572 96.6724 198.342 97.3324 197.882C97.9924 197.402 98.3224 196.772 98.3224 195.992C98.3224 195.412 98.1324 194.962 97.7524 194.642C97.3924 194.302 96.9124 194.052 96.3124 193.892C95.7124 193.712 95.0424 193.562 94.3024 193.442C93.5624 193.322 92.8224 193.182 92.0824 193.022C91.3624 192.862 90.7024 192.632 90.1024 192.332C89.5024 192.012 89.0124 191.582 88.6324 191.042C88.2724 190.502 88.0924 189.782 88.0924 188.882C88.0924 188.022 88.3324 187.252 88.8124 186.572C89.2924 185.892 89.9924 185.362 90.9124 184.982C91.8524 184.582 92.9924 184.382 94.3324 184.382C95.3524 184.382 96.3724 184.522 97.3924 184.802C98.4124 185.062 99.2524 185.412 99.9124 185.852L98.9824 187.562C98.2824 187.082 97.5324 186.742 96.7324 186.542C95.9324 186.322 95.1324 186.212 94.3324 186.212C92.9124 186.212 91.8624 186.462 91.1824 186.962C90.5224 187.442 90.1924 188.062 90.1924 188.822C90.1924 189.422 90.3724 189.892 90.7324 190.232C91.1124 190.572 91.6024 190.842 92.2024 191.042C92.8224 191.222 93.4924 191.372 94.2124 191.492C94.9524 191.612 95.6824 191.762 96.4024 191.942C97.1424 192.102 97.8124 192.332 98.4124 192.632C99.0324 192.912 99.5224 193.322 99.8824 193.862C100.262 194.382 100.452 195.072 100.452 195.932C100.452 196.852 100.192 197.652 99.6724 198.332C99.1724 198.992 98.4324 199.512 97.4524 199.892C96.4924 200.252 95.3224 200.432 93.9424 200.432ZM104.361 200.282V184.532H106.491V200.282H104.361ZM105.441 181.052C105.001 181.052 104.631 180.902 104.331 180.602C104.031 180.302 103.881 179.942 103.881 179.522C103.881 179.102 104.031 178.752 104.331 178.472C104.631 178.172 105.001 178.022 105.441 178.022C105.881 178.022 106.251 178.162 106.551 178.442C106.851 178.722 107.001 179.072 107.001 179.492C107.001 179.932 106.851 180.302 106.551 180.602C106.271 180.902 105.901 181.052 105.441 181.052ZM118.957 200.432C117.397 200.432 115.997 200.092 114.757 199.412C113.537 198.712 112.577 197.762 111.877 196.562C111.177 195.342 110.827 193.952 110.827 192.392C110.827 190.812 111.177 189.422 111.877 188.222C112.577 187.022 113.537 186.082 114.757 185.402C115.997 184.722 117.397 184.382 118.957 184.382C120.297 184.382 121.507 184.642 122.587 185.162C123.667 185.682 124.517 186.462 125.137 187.502L123.547 188.582C123.007 187.782 122.337 187.192 121.537 186.812C120.737 186.432 119.867 186.242 118.927 186.242C117.807 186.242 116.797 186.502 115.897 187.022C114.997 187.522 114.287 188.232 113.767 189.152C113.247 190.072 112.987 191.152 112.987 192.392C112.987 193.632 113.247 194.712 113.767 195.632C114.287 196.552 114.997 197.272 115.897 197.792C116.797 198.292 117.807 198.542 118.927 198.542C119.867 198.542 120.737 198.352 121.537 197.972C122.337 197.592 123.007 197.012 123.547 196.232L125.137 197.312C124.517 198.332 123.667 199.112 122.587 199.652C121.507 200.172 120.297 200.432 118.957 200.432ZM117.697 206.882C117.197 206.882 116.737 206.822 116.317 206.702C115.917 206.582 115.537 206.412 115.177 206.192L115.687 205.052C115.987 205.232 116.297 205.372 116.617 205.472C116.957 205.572 117.307 205.622 117.667 205.622C118.267 205.622 118.727 205.492 119.047 205.232C119.367 204.992 119.527 204.652 119.527 204.212C119.527 203.812 119.367 203.482 119.047 203.222C118.747 202.962 118.287 202.832 117.667 202.832H116.977L117.697 200.102H118.987L118.537 201.842C119.357 201.902 119.987 202.152 120.427 202.592C120.867 203.052 121.087 203.612 121.087 204.272C121.087 205.072 120.767 205.702 120.127 206.162C119.507 206.642 118.697 206.882 117.697 206.882ZM139.192 200.282V196.802L139.102 196.232V190.412C139.102 189.072 138.722 188.042 137.962 187.322C137.222 186.602 136.112 186.242 134.632 186.242C133.612 186.242 132.642 186.412 131.722 186.752C130.802 187.092 130.022 187.542 129.382 188.102L128.422 186.512C129.222 185.832 130.182 185.312 131.302 184.952C132.422 184.572 133.602 184.382 134.842 184.382C136.882 184.382 138.452 184.892 139.552 185.912C140.672 186.912 141.232 188.442 141.232 190.502V200.282H139.192ZM133.762 200.432C132.582 200.432 131.552 200.242 130.672 199.862C129.812 199.462 129.152 198.922 128.692 198.242C128.232 197.542 128.002 196.742 128.002 195.842C128.002 195.022 128.192 194.282 128.572 193.622C128.972 192.942 129.612 192.402 130.492 192.002C131.392 191.582 132.592 191.372 134.092 191.372H139.522V192.962H134.152C132.632 192.962 131.572 193.232 130.972 193.772C130.392 194.312 130.102 194.982 130.102 195.782C130.102 196.682 130.452 197.402 131.152 197.942C131.852 198.482 132.832 198.752 134.092 198.752C135.292 198.752 136.322 198.482 137.182 197.942C138.062 197.382 138.702 196.582 139.102 195.542L139.582 197.012C139.182 198.052 138.482 198.882 137.482 199.502C136.502 200.122 135.262 200.432 133.762 200.432ZM136.942 181.892C136.482 181.892 136.072 181.792 135.712 181.592C135.352 181.392 135.022 181.162 134.722 180.902C134.442 180.622 134.162 180.382 133.882 180.182C133.602 179.962 133.312 179.852 133.012 179.852C132.552 179.852 132.182 180.022 131.902 180.362C131.642 180.702 131.492 181.172 131.452 181.772H130.162C130.202 180.772 130.462 179.972 130.942 179.372C131.442 178.772 132.082 178.472 132.862 178.472C133.322 178.472 133.732 178.582 134.092 178.802C134.472 179.002 134.802 179.242 135.082 179.522C135.382 179.782 135.662 180.012 135.922 180.212C136.202 180.412 136.492 180.512 136.792 180.512C137.252 180.512 137.622 180.352 137.902 180.032C138.182 179.692 138.332 179.232 138.352 178.652H139.642C139.622 179.612 139.362 180.392 138.862 180.992C138.362 181.592 137.722 181.892 136.942 181.892ZM153.437 200.432C151.917 200.432 150.547 200.092 149.327 199.412C148.127 198.712 147.177 197.762 146.477 196.562C145.777 195.342 145.427 193.952 145.427 192.392C145.427 190.812 145.777 189.422 146.477 188.222C147.177 187.022 148.127 186.082 149.327 185.402C150.527 184.722 151.897 184.382 153.437 184.382C154.997 184.382 156.377 184.722 157.577 185.402C158.797 186.082 159.747 187.022 160.427 188.222C161.127 189.422 161.477 190.812 161.477 192.392C161.477 193.952 161.127 195.342 160.427 196.562C159.747 197.762 158.797 198.712 157.577 199.412C156.357 200.092 154.977 200.432 153.437 200.432ZM153.437 198.542C154.577 198.542 155.587 198.292 156.467 197.792C157.347 197.272 158.037 196.552 158.537 195.632C159.057 194.692 159.317 193.612 159.317 192.392C159.317 191.152 159.057 190.072 158.537 189.152C158.037 188.232 157.347 187.522 156.467 187.022C155.587 186.502 154.587 186.242 153.467 186.242C152.347 186.242 151.347 186.502 150.467 187.022C149.587 187.522 148.887 188.232 148.367 189.152C147.847 190.072 147.587 191.152 147.587 192.392C147.587 193.612 147.847 194.692 148.367 195.632C148.887 196.552 149.587 197.272 150.467 197.792C151.347 198.292 152.337 198.542 153.437 198.542Z" fill="black"/>
<path d="M301.313 802.328C301.61 802.624 301.989 802.824 302.4 802.903C302.812 802.982 303.238 802.936 303.623 802.771L324.401 793.866C324.716 793.731 324.993 793.521 325.208 793.254C325.423 792.987 325.57 792.671 325.635 792.334C325.699 791.998 325.681 791.65 325.58 791.322C325.479 790.994 325.3 790.696 325.058 790.453L320.605 786.001L328.026 778.58C328.738 777.868 328.845 776.752 328.281 775.919C327.719 775.105 326.642 774.77 325.714 775.167L304.937 784.072C304.622 784.207 304.345 784.417 304.13 784.684C303.915 784.952 303.768 785.267 303.703 785.604C303.639 785.941 303.657 786.288 303.758 786.616C303.858 786.944 304.038 787.242 304.28 787.485L308.732 791.937L301.312 799.358C300.501 800.169 300.481 801.495 301.313 802.328ZM285.756 779.298L278.336 786.718L290.209 798.591L297.629 791.171C298.45 790.35 298.45 789.023 297.629 788.203L288.725 779.298C287.904 778.477 286.577 778.477 285.756 779.298ZM324.344 817.885C325.164 817.065 325.164 815.737 324.344 814.917L315.439 806.012C314.619 805.192 313.291 805.192 312.471 806.012L305.05 813.433L316.923 825.306L324.344 817.885ZM303.566 838.663L313.955 828.274L302.082 816.401L291.693 826.79C287.601 830.881 280.943 830.881 276.852 826.79C272.76 822.698 272.76 816.04 276.852 811.949L287.24 801.56L275.367 789.687L264.979 800.076C254.34 810.714 254.34 828.025 264.979 838.663C275.617 849.301 292.928 849.301 303.566 838.663Z" fill="#E50914"/>
<path d="M223.99 886.764V865.764H231.85C233.63 865.764 235.16 866.054 236.44 866.634C237.72 867.194 238.7 868.014 239.38 869.094C240.08 870.154 240.43 871.444 240.43 872.964C240.43 874.444 240.08 875.724 239.38 876.804C238.7 877.864 237.72 878.684 236.44 879.264C235.16 879.824 233.63 880.104 231.85 880.104H225.22L226.21 879.084V886.764H223.99ZM238.33 886.764L232.93 879.144H235.33L240.76 886.764H238.33ZM226.21 879.264L225.22 878.214H231.79C233.89 878.214 235.48 877.754 236.56 876.834C237.66 875.914 238.21 874.624 238.21 872.964C238.21 871.284 237.66 869.984 236.56 869.064C235.48 868.144 233.89 867.684 231.79 867.684H225.22L226.21 866.634V879.264ZM251.91 886.914C250.27 886.914 248.83 886.574 247.59 885.894C246.35 885.194 245.38 884.244 244.68 883.044C243.98 881.824 243.63 880.434 243.63 878.874C243.63 877.314 243.96 875.934 244.62 874.734C245.3 873.534 246.22 872.594 247.38 871.914C248.56 871.214 249.88 870.864 251.34 870.864C252.82 870.864 254.13 871.204 255.27 871.884C256.43 872.544 257.34 873.484 258 874.704C258.66 875.904 258.99 877.294 258.99 878.874C258.99 878.974 258.98 879.084 258.96 879.204C258.96 879.304 258.96 879.414 258.96 879.534H245.25V877.944H257.82L256.98 878.574C256.98 877.434 256.73 876.424 256.23 875.544C255.75 874.644 255.09 873.944 254.25 873.444C253.41 872.944 252.44 872.694 251.34 872.694C250.26 872.694 249.29 872.944 248.43 873.444C247.57 873.944 246.9 874.644 246.42 875.544C245.94 876.444 245.7 877.474 245.7 878.634V878.964C245.7 880.164 245.96 881.224 246.48 882.144C247.02 883.044 247.76 883.754 248.7 884.274C249.66 884.774 250.75 885.024 251.97 885.024C252.93 885.024 253.82 884.854 254.64 884.514C255.48 884.174 256.2 883.654 256.8 882.954L258 884.334C257.3 885.174 256.42 885.814 255.36 886.254C254.32 886.694 253.17 886.914 251.91 886.914ZM268.305 886.914C266.825 886.914 265.685 886.514 264.885 885.714C264.085 884.914 263.685 883.784 263.685 882.324V867.534H265.815V882.204C265.815 883.124 266.045 883.834 266.505 884.334C266.985 884.834 267.665 885.084 268.545 885.084C269.485 885.084 270.265 884.814 270.885 884.274L271.635 885.804C271.215 886.184 270.705 886.464 270.105 886.644C269.525 886.824 268.925 886.914 268.305 886.914ZM260.865 872.784V871.014H270.615V872.784H260.865ZM281.646 886.914C280.006 886.914 278.566 886.574 277.326 885.894C276.086 885.194 275.116 884.244 274.416 883.044C273.716 881.824 273.366 880.434 273.366 878.874C273.366 877.314 273.696 875.934 274.356 874.734C275.036 873.534 275.956 872.594 277.116 871.914C278.296 871.214 279.616 870.864 281.076 870.864C282.556 870.864 283.866 871.204 285.006 871.884C286.166 872.544 287.076 873.484 287.736 874.704C288.396 875.904 288.726 877.294 288.726 878.874C288.726 878.974 288.716 879.084 288.696 879.204C288.696 879.304 288.696 879.414 288.696 879.534H274.986V877.944H287.556L286.716 878.574C286.716 877.434 286.466 876.424 285.966 875.544C285.486 874.644 284.826 873.944 283.986 873.444C283.146 872.944 282.176 872.694 281.076 872.694C279.996 872.694 279.026 872.944 278.166 873.444C277.306 873.944 276.636 874.644 276.156 875.544C275.676 876.444 275.436 877.474 275.436 878.634V878.964C275.436 880.164 275.696 881.224 276.216 882.144C276.756 883.044 277.496 883.754 278.436 884.274C279.396 884.774 280.486 885.024 281.706 885.024C282.666 885.024 283.556 884.854 284.376 884.514C285.216 884.174 285.936 883.654 286.536 882.954L287.736 884.334C287.036 885.174 286.156 885.814 285.096 886.254C284.056 886.694 282.906 886.914 281.646 886.914ZM301.102 870.864C302.382 870.864 303.502 871.114 304.462 871.614C305.442 872.094 306.202 872.834 306.742 873.834C307.302 874.834 307.582 876.094 307.582 877.614V886.764H305.452V877.824C305.452 876.164 305.032 874.914 304.192 874.074C303.372 873.214 302.212 872.784 300.712 872.784C299.592 872.784 298.612 873.014 297.772 873.474C296.952 873.914 296.312 874.564 295.852 875.424C295.412 876.264 295.192 877.284 295.192 878.484V886.764H293.062V871.014H295.102V875.334L294.772 874.524C295.272 873.384 296.072 872.494 297.172 871.854C298.272 871.194 299.582 870.864 301.102 870.864ZM319.875 886.914C318.315 886.914 316.915 886.574 315.675 885.894C314.455 885.194 313.495 884.244 312.795 883.044C312.095 881.824 311.745 880.434 311.745 878.874C311.745 877.294 312.095 875.904 312.795 874.704C313.495 873.504 314.455 872.564 315.675 871.884C316.915 871.204 318.315 870.864 319.875 870.864C321.215 870.864 322.425 871.124 323.505 871.644C324.585 872.164 325.435 872.944 326.055 873.984L324.465 875.064C323.925 874.264 323.255 873.674 322.455 873.294C321.655 872.914 320.785 872.724 319.845 872.724C318.725 872.724 317.715 872.984 316.815 873.504C315.915 874.004 315.205 874.714 314.685 875.634C314.165 876.554 313.905 877.634 313.905 878.874C313.905 880.114 314.165 881.194 314.685 882.114C315.205 883.034 315.915 883.754 316.815 884.274C317.715 884.774 318.725 885.024 319.845 885.024C320.785 885.024 321.655 884.834 322.455 884.454C323.255 884.074 323.925 883.494 324.465 882.714L326.055 883.794C325.435 884.814 324.585 885.594 323.505 886.134C322.425 886.654 321.215 886.914 319.875 886.914ZM318.615 893.364C318.115 893.364 317.655 893.304 317.235 893.184C316.835 893.064 316.455 892.894 316.095 892.674L316.605 891.534C316.905 891.714 317.215 891.854 317.535 891.954C317.875 892.054 318.225 892.104 318.585 892.104C319.185 892.104 319.645 891.974 319.965 891.714C320.285 891.474 320.445 891.134 320.445 890.694C320.445 890.294 320.285 889.964 319.965 889.704C319.665 889.444 319.205 889.314 318.585 889.314H317.895L318.615 886.584H319.905L319.455 888.324C320.275 888.384 320.905 888.634 321.345 889.074C321.785 889.534 322.005 890.094 322.005 890.754C322.005 891.554 321.685 892.184 321.045 892.644C320.425 893.124 319.615 893.364 318.615 893.364ZM340.109 886.764V883.284L340.019 882.714V876.894C340.019 875.554 339.639 874.524 338.879 873.804C338.139 873.084 337.029 872.724 335.549 872.724C334.529 872.724 333.559 872.894 332.639 873.234C331.719 873.574 330.939 874.024 330.299 874.584L329.339 872.994C330.139 872.314 331.099 871.794 332.219 871.434C333.339 871.054 334.519 870.864 335.759 870.864C337.799 870.864 339.369 871.374 340.469 872.394C341.589 873.394 342.149 874.924 342.149 876.984V886.764H340.109ZM334.679 886.914C333.499 886.914 332.469 886.724 331.589 886.344C330.729 885.944 330.069 885.404 329.609 884.724C329.149 884.024 328.919 883.224 328.919 882.324C328.919 881.504 329.109 880.764 329.489 880.104C329.889 879.424 330.529 878.884 331.409 878.484C332.309 878.064 333.509 877.854 335.009 877.854H340.439V879.444H335.069C333.549 879.444 332.489 879.714 331.889 880.254C331.309 880.794 331.019 881.464 331.019 882.264C331.019 883.164 331.369 883.884 332.069 884.424C332.769 884.964 333.749 885.234 335.009 885.234C336.209 885.234 337.239 884.964 338.099 884.424C338.979 883.864 339.619 883.064 340.019 882.024L340.499 883.494C340.099 884.534 339.399 885.364 338.399 885.984C337.419 886.604 336.179 886.914 334.679 886.914ZM337.859 868.374C337.399 868.374 336.989 868.274 336.629 868.074C336.269 867.874 335.939 867.644 335.639 867.384C335.359 867.104 335.079 866.864 334.799 866.664C334.519 866.444 334.229 866.334 333.929 866.334C333.469 866.334 333.099 866.504 332.819 866.844C332.559 867.184 332.409 867.654 332.369 868.254H331.079C331.119 867.254 331.379 866.454 331.859 865.854C332.359 865.254 332.999 864.954 333.779 864.954C334.239 864.954 334.649 865.064 335.009 865.284C335.389 865.484 335.719 865.724 335.999 866.004C336.299 866.264 336.579 866.494 336.839 866.694C337.119 866.894 337.409 866.994 337.709 866.994C338.169 866.994 338.539 866.834 338.819 866.514C339.099 866.174 339.249 865.714 339.269 865.134H340.559C340.539 866.094 340.279 866.874 339.779 867.474C339.279 868.074 338.639 868.374 337.859 868.374ZM354.355 886.914C352.835 886.914 351.465 886.574 350.245 885.894C349.045 885.194 348.095 884.244 347.395 883.044C346.695 881.824 346.345 880.434 346.345 878.874C346.345 877.294 346.695 875.904 347.395 874.704C348.095 873.504 349.045 872.564 350.245 871.884C351.445 871.204 352.815 870.864 354.355 870.864C355.915 870.864 357.295 871.204 358.495 871.884C359.715 872.564 360.665 873.504 361.345 874.704C362.045 875.904 362.395 877.294 362.395 878.874C362.395 880.434 362.045 881.824 361.345 883.044C360.665 884.244 359.715 885.194 358.495 885.894C357.275 886.574 355.895 886.914 354.355 886.914ZM354.355 885.024C355.495 885.024 356.505 884.774 357.385 884.274C358.265 883.754 358.955 883.034 359.455 882.114C359.975 881.174 360.235 880.094 360.235 878.874C360.235 877.634 359.975 876.554 359.455 875.634C358.955 874.714 358.265 874.004 357.385 873.504C356.505 872.984 355.505 872.724 354.385 872.724C353.265 872.724 352.265 872.984 351.385 873.504C350.505 874.004 349.805 874.714 349.285 875.634C348.765 876.554 348.505 877.634 348.505 878.874C348.505 880.094 348.765 881.174 349.285 882.114C349.805 883.034 350.505 883.754 351.385 884.274C352.265 884.774 353.255 885.024 354.355 885.024Z" fill="black"/>
<path d="M316.978 420.985C306.291 420.985 297.598 429.678 297.598 440.365C297.598 451.052 306.291 459.745 316.978 459.745C327.665 459.745 336.502 451.052 336.502 440.365C336.502 429.678 327.665 420.985 316.978 420.985ZM319.188 450.743C319.17 450.75 319.15 450.747 319.132 450.753L319.132 453.285C319.132 454.475 318.168 455.439 316.978 455.439C315.788 455.439 314.825 454.475 314.825 453.285L314.825 450.738C313.406 450.259 312.047 449.35 310.886 447.965C310.12 447.054 310.238 445.696 311.151 444.933C312.061 444.167 313.424 444.285 314.183 445.198C315.323 446.554 316.612 447.092 317.714 446.697C318.562 446.388 319.132 445.574 319.132 444.672C319.132 443.484 318.166 442.518 316.978 442.518C313.416 442.518 310.518 439.621 310.518 436.058C310.518 433.457 312.066 431.121 314.461 430.107C314.58 430.057 314.705 430.06 314.825 430.017L314.825 427.445C314.825 426.255 315.788 425.292 316.978 425.292C318.169 425.292 319.132 426.255 319.132 427.445L319.132 430.021C320.247 430.398 321.334 430.997 322.305 431.937C323.159 432.763 323.18 434.126 322.351 434.982C321.525 435.836 320.16 435.855 319.306 435.028C318.259 434.012 317.1 433.663 316.141 434.073C315.342 434.412 314.825 435.19 314.825 436.059C314.825 437.247 315.79 438.212 316.978 438.212C320.54 438.212 323.438 441.11 323.438 444.672C323.439 447.378 321.731 449.818 319.188 450.743Z" fill="#E50914"/>
<path d="M265.153 442.518C263.963 442.518 263 443.482 263 444.672L263 466.349C263 467.539 263.963 468.502 265.153 468.502L271.614 468.502L271.614 442.518L265.153 442.518Z" fill="#E50914"/>
<path d="M314.072 408.441L298.998 395.52C298.195 394.827 297.001 394.827 296.197 395.52L281.123 408.441C280.438 409.025 280.192 409.976 280.505 410.821C280.816 411.667 281.622 412.228 282.524 412.228L288.984 412.228C288.984 430.845 288.984 449.885 288.984 468.502C294.532 468.502 298.367 468.502 304.058 468.502C305.248 468.502 306.211 467.539 306.211 466.349L306.211 461.437C298.554 457.508 293.291 449.548 293.291 440.365C293.291 431.183 298.554 423.222 306.211 419.293L306.211 412.228L312.672 412.228C313.574 412.228 314.379 411.667 314.69 410.821C315.004 409.976 314.758 409.025 314.072 408.441Z" fill="#E50914"/>
<path d="M278.217 425.292C277.027 425.292 276.064 426.255 276.064 427.445L276.064 468.502C279.209 468.502 281.623 468.502 284.677 468.502L284.677 425.292L278.217 425.292Z" fill="#E50914"/>
<path d="M207.165 508L207.165 487L208.995 487L218.595 503.38L217.635 503.38L227.145 487L228.975 487L228.975 508L226.845 508L226.845 490.33L227.355 490.33L218.595 505.33L217.545 505.33L208.725 490.33L209.295 490.33L209.295 508L207.165 508ZM241.787 508.15C240.267 508.15 238.897 507.81 237.677 507.13C236.477 506.43 235.527 505.48 234.827 504.28C234.127 503.06 233.777 501.67 233.777 500.11C233.777 498.53 234.127 497.14 234.827 495.94C235.527 494.74 236.477 493.8 237.677 493.12C238.877 492.44 240.247 492.1 241.787 492.1C243.347 492.1 244.727 492.44 245.927 493.12C247.147 493.8 248.097 494.74 248.777 495.94C249.477 497.14 249.827 498.53 249.827 500.11C249.827 501.67 249.477 503.06 248.777 504.28C248.097 505.48 247.147 506.43 245.927 507.13C244.707 507.81 243.327 508.15 241.787 508.15ZM241.787 506.26C242.927 506.26 243.937 506.01 244.817 505.51C245.697 504.99 246.387 504.27 246.887 503.35C247.407 502.41 247.667 501.33 247.667 500.11C247.667 498.87 247.407 497.79 246.887 496.87C246.387 495.95 245.697 495.24 244.817 494.74C243.937 494.22 242.937 493.96 241.817 493.96C240.697 493.96 239.697 494.22 238.817 494.74C237.937 495.24 237.237 495.95 236.717 496.87C236.197 497.79 235.937 498.87 235.937 500.11C235.937 501.33 236.197 502.41 236.717 503.35C237.237 504.27 237.937 504.99 238.817 505.51C239.697 506.01 240.687 506.26 241.787 506.26ZM262.216 492.1C263.496 492.1 264.616 492.35 265.576 492.85C266.556 493.33 267.316 494.07 267.856 495.07C268.416 496.07 268.696 497.33 268.696 498.85L268.696 508L266.566 508L266.566 499.06C266.566 497.4 266.146 496.15 265.306 495.31C264.486 494.45 263.326 494.02 261.826 494.02C260.706 494.02 259.726 494.25 258.886 494.71C258.066 495.15 257.426 495.8 256.966 496.66C256.526 497.5 256.306 498.52 256.306 499.72L256.306 508L254.176 508L254.176 492.25L256.216 492.25L256.216 496.57L255.886 495.76C256.386 494.62 257.186 493.73 258.286 493.09C259.386 492.43 260.696 492.1 262.216 492.1ZM281.139 508.15C279.499 508.15 278.059 507.81 276.819 507.13C275.579 506.43 274.609 505.48 273.909 504.28C273.209 503.06 272.859 501.67 272.859 500.11C272.859 498.55 273.189 497.17 273.849 495.97C274.529 494.77 275.449 493.83 276.609 493.15C277.789 492.45 279.109 492.1 280.569 492.1C282.049 492.1 283.359 492.44 284.499 493.12C285.659 493.78 286.569 494.72 287.229 495.94C287.889 497.14 288.219 498.53 288.219 500.11C288.219 500.21 288.209 500.32 288.189 500.44C288.189 500.54 288.189 500.65 288.189 500.77L274.479 500.77L274.479 499.18L287.049 499.18L286.209 499.81C286.209 498.67 285.959 497.66 285.459 496.78C284.979 495.88 284.319 495.18 283.479 494.68C282.639 494.18 281.669 493.93 280.569 493.93C279.489 493.93 278.519 494.18 277.659 494.68C276.799 495.18 276.129 495.88 275.649 496.78C275.169 497.68 274.929 498.71 274.929 499.87L274.929 500.2C274.929 501.4 275.189 502.46 275.709 503.38C276.249 504.28 276.989 504.99 277.929 505.51C278.889 506.01 279.979 506.26 281.199 506.26C282.159 506.26 283.049 506.09 283.869 505.75C284.709 505.41 285.429 504.89 286.029 504.19L287.229 505.57C286.529 506.41 285.649 507.05 284.589 507.49C283.549 507.93 282.399 508.15 281.139 508.15ZM297.535 508.15C296.055 508.15 294.915 507.75 294.115 506.95C293.315 506.15 292.915 505.02 292.915 503.56L292.915 488.77L295.045 488.77L295.045 503.44C295.045 504.36 295.275 505.07 295.735 505.57C296.215 506.07 296.895 506.32 297.775 506.32C298.715 506.32 299.495 506.05 300.115 505.51L300.865 507.04C300.445 507.42 299.935 507.7 299.335 507.88C298.755 508.06 298.155 508.15 297.535 508.15ZM290.095 494.02L290.095 492.25L299.845 492.25L299.845 494.02L290.095 494.02ZM304.742 508L304.742 492.25L306.872 492.25L306.872 508L304.742 508ZM305.822 488.77C305.382 488.77 305.012 488.62 304.712 488.32C304.412 488.02 304.262 487.66 304.262 487.24C304.262 486.82 304.412 486.47 304.712 486.19C305.012 485.89 305.382 485.74 305.822 485.74C306.262 485.74 306.632 485.88 306.932 486.16C307.232 486.44 307.382 486.79 307.382 487.21C307.382 487.65 307.232 488.02 306.932 488.32C306.652 488.62 306.282 488.77 305.822 488.77ZM311.089 508L311.089 506.59L321.589 493.3L322.039 494.02L311.269 494.02L311.269 492.25L323.719 492.25L323.719 493.63L313.249 506.95L312.709 506.23L323.929 506.23L323.929 508L311.089 508ZM337.991 508L337.991 504.52L337.901 503.95L337.901 498.13C337.901 496.79 337.521 495.76 336.761 495.04C336.021 494.32 334.911 493.96 333.431 493.96C332.411 493.96 331.441 494.13 330.521 494.47C329.601 494.81 328.821 495.26 328.181 495.82L327.221 494.23C328.021 493.55 328.981 493.03 330.101 492.67C331.221 492.29 332.401 492.1 333.641 492.1C335.681 492.1 337.251 492.61 338.351 493.63C339.471 494.63 340.031 496.16 340.031 498.22L340.031 508L337.991 508ZM332.561 508.15C331.381 508.15 330.351 507.96 329.471 507.58C328.611 507.18 327.951 506.64 327.491 505.96C327.031 505.26 326.801 504.46 326.801 503.56C326.801 502.74 326.991 502 327.371 501.34C327.771 500.66 328.411 500.12 329.291 499.72C330.191 499.3 331.391 499.09 332.891 499.09L338.321 499.09L338.321 500.68L332.951 500.68C331.431 500.68 330.371 500.95 329.771 501.49C329.191 502.03 328.901 502.7 328.901 503.5C328.901 504.4 329.251 505.12 329.951 505.66C330.651 506.2 331.631 506.47 332.891 506.47C334.091 506.47 335.121 506.2 335.981 505.66C336.861 505.1 337.501 504.3 337.901 503.26L338.381 504.73C337.981 505.77 337.281 506.6 336.281 507.22C335.301 507.84 334.061 508.15 332.561 508.15ZM352.357 508.15C350.797 508.15 349.397 507.81 348.157 507.13C346.937 506.43 345.977 505.48 345.277 504.28C344.577 503.06 344.227 501.67 344.227 500.11C344.227 498.53 344.577 497.14 345.277 495.94C345.977 494.74 346.937 493.8 348.157 493.12C349.397 492.44 350.797 492.1 352.357 492.1C353.697 492.1 354.907 492.36 355.987 492.88C357.067 493.4 357.917 494.18 358.537 495.22L356.947 496.3C356.407 495.5 355.737 494.91 354.937 494.53C354.137 494.15 353.267 493.96 352.327 493.96C351.207 493.96 350.197 494.22 349.297 494.74C348.397 495.24 347.687 495.95 347.167 496.87C346.647 497.79 346.387 498.87 346.387 500.11C346.387 501.35 346.647 502.43 347.167 503.35C347.687 504.27 348.397 504.99 349.297 505.51C350.197 506.01 351.207 506.26 352.327 506.26C353.267 506.26 354.137 506.07 354.937 505.69C355.737 505.31 356.407 504.73 356.947 503.95L358.537 505.03C357.917 506.05 357.067 506.83 355.987 507.37C354.907 507.89 353.697 508.15 352.357 508.15ZM351.097 514.6C350.597 514.6 350.137 514.54 349.717 514.42C349.317 514.3 348.937 514.13 348.577 513.91L349.087 512.77C349.387 512.95 349.697 513.09 350.017 513.19C350.357 513.29 350.707 513.34 351.067 513.34C351.667 513.34 352.127 513.21 352.447 512.95C352.767 512.71 352.927 512.37 352.927 511.93C352.927 511.53 352.767 511.2 352.447 510.94C352.147 510.68 351.687 510.55 351.067 510.55L350.377 510.55L351.097 507.82L352.387 507.82L351.937 509.56C352.757 509.62 353.387 509.87 353.827 510.31C354.267 510.77 354.487 511.33 354.487 511.99C354.487 512.79 354.167 513.42 353.527 513.88C352.907 514.36 352.097 514.6 351.097 514.6ZM372.591 508L372.591 504.52L372.501 503.95L372.501 498.13C372.501 496.79 372.121 495.76 371.361 495.04C370.621 494.32 369.511 493.96 368.031 493.96C367.011 493.96 366.041 494.13 365.121 494.47C364.201 494.81 363.421 495.26 362.781 495.82L361.821 494.23C362.621 493.55 363.581 493.03 364.701 492.67C365.821 492.29 367.001 492.1 368.241 492.1C370.281 492.1 371.851 492.61 372.951 493.63C374.071 494.63 374.631 496.16 374.631 498.22L374.631 508L372.591 508ZM367.161 508.15C365.981 508.15 364.951 507.96 364.071 507.58C363.211 507.18 362.551 506.64 362.091 505.96C361.631 505.26 361.401 504.46 361.401 503.56C361.401 502.74 361.591 502 361.971 501.34C362.371 500.66 363.011 500.12 363.891 499.72C364.791 499.3 365.991 499.09 367.491 499.09L372.921 499.09L372.921 500.68L367.551 500.68C366.031 500.68 364.971 500.95 364.371 501.49C363.791 502.03 363.501 502.7 363.501 503.5C363.501 504.4 363.851 505.12 364.551 505.66C365.251 506.2 366.231 506.47 367.491 506.47C368.691 506.47 369.721 506.2 370.581 505.66C371.461 505.1 372.101 504.3 372.501 503.26L372.981 504.73C372.581 505.77 371.881 506.6 370.881 507.22C369.901 507.84 368.661 508.15 367.161 508.15ZM370.341 489.61C369.881 489.61 369.471 489.51 369.111 489.31C368.751 489.11 368.421 488.88 368.121 488.62C367.841 488.34 367.561 488.1 367.281 487.9C367.001 487.68 366.711 487.57 366.411 487.57C365.951 487.57 365.581 487.74 365.301 488.08C365.041 488.42 364.891 488.89 364.851 489.49L363.561 489.49C363.601 488.49 363.861 487.69 364.341 487.09C364.841 486.49 365.481 486.19 366.261 486.19C366.721 486.19 367.131 486.3 367.491 486.52C367.871 486.72 368.201 486.96 368.481 487.24C368.781 487.5 369.061 487.73 369.321 487.93C369.601 488.13 369.891 488.23 370.191 488.23C370.651 488.23 371.021 488.07 371.301 487.75C371.581 487.41 371.731 486.95 371.751 486.37L373.041 486.37C373.021 487.33 372.761 488.11 372.261 488.71C371.761 489.31 371.121 489.61 370.341 489.61ZM386.836 508.15C385.316 508.15 383.946 507.81 382.726 507.13C381.526 506.43 380.576 505.48 379.876 504.28C379.176 503.06 378.826 501.67 378.826 500.11C378.826 498.53 379.176 497.14 379.876 495.94C380.576 494.74 381.526 493.8 382.726 493.12C383.926 492.44 385.296 492.1 386.836 492.1C388.396 492.1 389.776 492.44 390.976 493.12C392.196 493.8 393.146 494.74 393.826 495.94C394.526 497.14 394.876 498.53 394.876 500.11C394.876 501.67 394.526 503.06 393.826 504.28C393.146 505.48 392.196 506.43 390.976 507.13C389.756 507.81 388.376 508.15 386.836 508.15ZM386.836 506.26C387.976 506.26 388.986 506.01 389.866 505.51C390.746 504.99 391.436 504.27 391.936 503.35C392.456 502.41 392.716 501.33 392.716 500.11C392.716 498.87 392.456 497.79 391.936 496.87C391.436 495.95 390.746 495.24 389.866 494.74C388.986 494.22 387.986 493.96 386.866 493.96C385.746 493.96 384.746 494.22 383.866 494.74C382.986 495.24 382.286 495.95 381.766 496.87C381.246 497.79 380.986 498.87 380.986 500.11C380.986 501.33 381.246 502.41 381.766 503.35C382.286 504.27 382.986 504.99 383.866 505.51C384.746 506.01 385.736 506.26 386.836 506.26Z" fill="black"/>
<defs>
<linearGradient id="paint0_linear_202_240" x1="450.5" y1="694.5" x2="390" y2="829.5" gradientUnits="userSpaceOnUse">
<stop/>
<stop offset="1" stop-opacity="0"/>
</linearGradient>
<linearGradient id="paint1_linear_202_240" x1="188.035" y1="818.358" x2="188.035" y2="451.076" gradientUnits="userSpaceOnUse">
<stop/>
<stop offset="1" stop-opacity="0"/>
</linearGradient>
<linearGradient id="paint2_linear_202_240" x1="79.4037" y1="229.376" x2="186.559" y2="411.908" gradientUnits="userSpaceOnUse">
<stop/>
<stop offset="1" stop-opacity="0"/>
</linearGradient>
<linearGradient id="paint3_linear_202_240" x1="390.52" y1="411.908" x2="498.764" y2="238.462" gradientUnits="userSpaceOnUse">
<stop/>
<stop offset="1" stop-opacity="0"/>
</linearGradient>
<linearGradient id="paint4_linear_202_240" x1="342.116" y1="11.7405" x2="168.821" y2="57.1889" gradientUnits="userSpaceOnUse">
<stop/>
<stop offset="1" stop-opacity="0"/>
</linearGradient>
</defs>
</svg>
