<svg width="231" height="54" viewBox="0 0 231 54" fill="none" xmlns="http://www.w3.org/2000/svg">
<path d="M15.427 32.628C10.6429 34.4637 8.42594 35.7544 8.42594 35.7544C7.88892 36.0335 7.2103 36.6958 6.92035 37.2277L3.26215 43.9047C2.97163 44.435 3.20687 44.7169 3.7845 44.5322C3.7845 44.5322 5.25287 44.0587 6.67778 43.6401C10.1391 42.6185 16.5366 41.1051 16.5366 41.1051C17.1273 40.9659 17.8481 40.4177 18.1386 39.8869L23.1767 30.6912C23.4666 30.1593 23.2336 29.8812 22.6571 30.0705C22.6571 30.0705 19.0706 31.2282 15.427 32.628Z" fill="#9F9F9F"/>
<path d="M47.9226 36.5856C48.5273 36.5355 48.784 36.061 48.4935 35.5312L43.6698 26.7266C43.3788 26.1953 42.65 25.834 42.0498 25.9245L32.3855 27.5675C31.7905 27.686 31.5422 28.2162 31.8322 28.7465L36.183 36.69C36.4742 37.2215 37.2052 37.6074 37.8099 37.5523L47.9226 36.5856Z" fill="#9F9F9F"/>
<path d="M41.3619 22.5135L40.4814 20.9058L38.7885 17.8138L36.5197 13.6729C36.2291 13.1415 35.5235 12.8775 34.9537 13.0836C28.3469 15.0098 21.8112 17.9778 18.7059 20.0432C16.987 21.1868 15.4922 22.4253 15.4922 22.4253C15.0262 22.8124 14.4067 23.5621 14.1157 24.0936L10.0485 31.5176C9.75859 32.0467 9.96957 32.2731 10.5201 32.017C10.5201 32.017 11.5767 31.5272 12.7596 31.0289C16.775 29.3336 21.1682 27.8458 25.8197 26.6106C25.9083 26.588 25.9979 26.5645 26.086 26.5414C31.2317 25.2081 40.8017 23.6544 40.8017 23.6544C41.4002 23.5578 41.653 23.0449 41.3619 22.5135Z" fill="#9F9F9F"/>
<path d="M18.4346 17.3818C18.4346 17.3818 23.0213 14.6694 26.1311 13.3718C28.8659 12.2299 33.7268 10.8167 33.7268 10.8167C34.3096 10.647 34.5476 10.0747 34.2582 9.54387L29.7544 1.32448C28.8242 -0.179192 27.388 -0.119652 26.4978 1.50479L26.4866 1.51321L18.0143 16.9785C17.7238 17.5088 17.9133 17.6907 18.4346 17.3818Z" fill="#9F9F9F"/>
<path d="M56.0312 49.2915L50.8347 39.8066C50.5441 39.2763 49.9654 38.8635 49.5508 38.8871L49.1666 38.9145C29.9228 40.239 15.8683 43.4637 7.46646 45.9336C4.97482 46.6661 2.04714 47.6698 2.04714 47.6698C1.47344 47.8658 1.06559 47.9758 0.474413 48.9903C0.474413 48.9903 0.430411 49.0724 0.320412 49.2757L0.323235 49.2835C-0.405586 50.8648 0.428155 52.1191 2.26938 52.1191L2.36133 52.1297H54.0838C55.9263 52.1297 56.7588 50.8715 56.0312 49.2915Z" fill="#9F9F9F"/>
<path d="M65.8672 32.3976H72.5191L70.8803 26.5284C70.1092 23.7991 69.434 20.575 69.1931 18.5904C68.9037 20.575 68.2296 23.7593 67.5064 26.5284L65.8672 32.3976ZM73.3381 35.4572H65.0475L63.1679 42.2387C63.0235 42.6943 62.8797 42.8998 61.3358 42.8998C60.8066 42.8998 59.794 42.8583 58.8774 42.7773L67.4585 14.3328C67.5544 13.9199 68.0852 13.7537 68.9522 13.7537C69.6263 13.7537 70.301 13.7957 70.7838 13.8777L79.4119 42.196C79.5072 42.6526 79.2663 42.8998 77.7252 42.8998C77.1463 42.8998 76.3752 42.8998 75.4112 42.8173L73.3381 35.4572Z" fill="#9F9F9F"/>
<path d="M81.3871 23.1389C83.2679 22.4351 86.4494 21.7324 89.0031 21.7324C94.0631 21.7324 95.7982 23.2625 95.7982 27.2707V42.1553C95.7982 42.8176 95.7029 42.8176 91.7508 42.8176V28.2634C91.7508 25.6604 91.268 24.6685 88.8587 24.6685C87.8456 24.6685 86.3518 24.9155 85.2913 25.4127V42.1553C85.2913 42.8176 85.1948 42.8176 81.3871 42.8176V23.1389Z" fill="#9F9F9F"/>
<path d="M99.3169 13.9606C99.3169 12.4295 99.9916 12.4294 103.221 12.4294V23.3433C104.716 22.2284 106.788 21.7335 108.62 21.7335C112.765 21.7335 113.633 23.7169 113.633 27.1893V42.1558C113.633 42.817 113.44 42.817 109.584 42.817V28.1408C109.584 26.3221 109.198 24.8336 106.836 24.8336C105.776 24.8336 104.379 25.1222 103.221 25.9918V42.1558C103.221 42.817 103.173 42.817 99.3169 42.817V13.9606Z" fill="#9F9F9F"/>
<path d="M124.042 32.6884C122.116 32.6884 120.476 33.267 120.476 36.8642C120.476 39.8828 121.729 40.4197 123.61 40.4197C124.669 40.4197 125.729 40.0883 126.163 39.7175C126.308 38.3538 126.308 35.2931 126.308 33.0615C125.682 32.812 124.717 32.6884 124.042 32.6884ZM116.956 22.8491C117.777 22.3941 120.62 21.7324 124.284 21.7324C128.428 21.7324 130.259 23.0559 130.259 26.7771V28.9677C130.259 33.7219 130.212 38.683 129.972 41.8262C128.67 42.4862 126.404 43.2316 123.272 43.2316C119.753 43.2714 116.379 42.6115 116.379 36.9457C116.379 31.2005 119.559 30.1659 122.79 30.1659C123.849 30.1659 125.345 30.2905 126.308 30.704V27.4382C126.308 25.4959 125.248 24.9993 123.319 24.9993C120.91 24.9993 118.356 25.4128 116.956 25.9092C116.524 25.2476 116.427 24.5034 116.427 24.0068C116.427 23.5524 116.572 23.0962 116.956 22.8491Z" fill="#9F9F9F"/>
<path d="M133.73 23.1389C135.611 22.4351 138.791 21.7324 141.347 21.7324C146.406 21.7324 148.141 23.2625 148.141 27.2707V42.1553C148.141 42.8176 148.045 42.8176 144.093 42.8176V28.2634C144.093 25.6604 143.612 24.6685 141.2 24.6685C140.188 24.6685 138.695 24.9155 137.635 25.4127V42.1553C137.635 42.8176 137.539 42.8176 133.73 42.8176V23.1389Z" fill="#9F9F9F"/>
<path d="M184.484 41.7425C182.651 42.6114 179.904 43.231 177.304 43.231C171.566 43.231 170.071 40.9999 170.071 36.3682V22.8492C170.071 22.1464 170.071 22.1464 174.121 22.1464V36.658C174.121 39.344 174.747 40.2956 177.351 40.2956C178.218 40.2956 179.567 40.1304 180.58 39.5518V22.8492C180.58 22.1464 180.629 22.1464 184.484 22.1464V41.7425Z" fill="#9F9F9F"/>
<path d="M191.858 31.6945C193.69 31.7372 196.679 31.6552 198.364 31.2417C198.558 30.498 198.607 29.5471 198.607 28.7602C198.558 25.7842 197.933 24.6682 195.859 24.6682C193.883 24.6682 192.147 26.115 191.858 31.6945ZM202.414 28.3883C202.414 30.2082 202.269 32.2753 201.885 33.7637C198.558 34.3013 194.124 34.4248 191.809 34.4248C192.005 38.8073 193.352 39.9633 196.293 39.9633C198.222 39.9633 200.148 39.4695 201.788 38.6826C202.029 39.3039 202.125 40.2958 202.125 40.9564C202.125 42.2382 199.088 43.2312 195.474 43.2312C190.991 43.2312 187.762 41.6181 187.762 33.5576C187.762 23.2195 192.052 21.7327 196.293 21.7327C200.34 21.7327 202.414 23.9238 202.414 28.3883Z" fill="#9F9F9F"/>
<path d="M205.352 23.5931C207.233 22.4764 209.547 21.7321 211.909 21.7321C214.367 21.7321 215.283 22.3528 215.283 23.4683C215.283 23.9239 215.188 24.7496 214.85 25.454C214.126 25.1231 213.354 24.9574 212.536 24.9574C211.475 24.9574 210.271 25.2472 209.353 25.909L209.307 42.1561C209.307 42.8172 209.258 42.8172 205.352 42.8172V23.5931Z" fill="#9F9F9F"/>
<path d="M224.441 32.6884C222.514 32.6884 220.873 33.267 220.873 36.8642C220.873 39.8828 222.127 40.4197 224.007 40.4197C225.067 40.4197 226.128 40.0883 226.562 39.7175C226.705 38.3538 226.705 35.2931 226.705 33.0615C226.079 32.812 225.114 32.6884 224.441 32.6884ZM217.355 22.8491C218.175 22.3941 221.019 21.7324 224.681 21.7324C228.827 21.7324 230.658 23.0559 230.658 26.7771V28.9677C230.658 33.7219 230.609 38.683 230.369 41.8262C229.068 42.4862 226.802 43.2316 223.669 43.2316C220.151 43.2714 216.776 42.6115 216.776 36.9457C216.776 31.2005 219.958 30.1659 223.187 30.1659C224.247 30.1659 225.744 30.2905 226.705 30.704V27.4382C226.705 25.4959 225.646 24.9993 223.716 24.9993C221.309 24.9993 218.753 25.4128 217.355 25.9092C216.924 25.2476 216.826 24.5034 216.826 24.0068C216.826 23.5524 216.97 23.0962 217.355 22.8491Z" fill="#9F9F9F"/>
<path d="M159.307 39.8187C158.99 39.8187 158.693 39.7834 158.413 39.7211C156.495 39.2952 155.386 37.4276 155.111 34.1411C155.062 33.5912 155.038 33.002 155.038 32.3728C155.038 31.978 155.052 31.6017 155.072 31.2388C155.187 29.2111 155.613 27.681 156.355 26.6952C157.208 25.5594 158.44 25.0079 160.123 25.0079C161.007 25.0079 161.89 25.0831 162.757 25.2331V38.742C162.642 38.8313 162.524 38.915 162.402 38.9943C161.543 39.5486 160.527 39.8187 159.307 39.8187ZM154.917 49.8508C154.18 49.8721 153.513 49.866 152.981 49.8132C152.762 50.5496 152.907 51.2899 153.069 51.7684C153.215 52.2066 153.508 52.611 153.974 52.7621C154.189 52.8165 154.511 52.8593 154.917 52.8806C155.118 52.8924 154.74 52.8789 154.983 52.8806C158.723 52.8273 161.091 51.8442 163.333 49.9401C164.059 49.3245 164.657 48.6291 165.154 47.8719C166.241 46.2261 166.8 44.2619 166.8 41.988V22.7515L166.562 22.6852C164.575 22.1437 162.408 21.8701 160.123 21.8701C157.027 21.8701 154.697 22.7324 153.207 24.4326C151.791 26.0481 151.054 28.6033 151.004 32.0168C151.004 32.1353 150.997 32.2493 150.997 32.3728C150.997 33.7951 151.119 35.0656 151.35 36.2009C151.892 38.8464 153.058 40.7102 154.847 41.783C156.053 42.5072 157.538 42.8745 159.307 42.8745C160.484 42.8745 161.643 42.6644 162.757 42.2471V42.3892C162.757 44.4798 162.078 46.1818 160.754 47.4658C160.647 47.5715 160.542 47.6776 160.426 47.7786C159.197 48.8223 158.252 49.5003 156.271 49.721C155.468 49.812 155.215 49.8419 154.917 49.8508Z" fill="#9F9F9F"/>
</svg>
