<svg width="226" height="29" viewBox="0 0 226 29" fill="none" xmlns="http://www.w3.org/2000/svg">
<g opacity="0.9">
<path fill-rule="evenodd" clip-rule="evenodd" d="M21.7318 0.00653057L20.1126 6.81172H19.4847C19.535 5.31243 19.0398 3.84432 18.0849 2.66826C17.6607 2.21652 17.1395 1.86018 16.5584 1.62458C15.9773 1.38898 15.3512 1.27802 14.7236 1.30138C13.054 1.37343 11.4699 2.03931 10.2709 3.16865C8.56448 4.74776 7.27553 6.70269 6.51431 8.86984C5.70661 10.8228 5.28517 12.9062 5.26967 15.0111C5.1612 16.5123 5.6514 17.998 6.63537 19.1584C7.11961 19.6433 7.70406 20.021 8.351 20.2664C8.99794 20.5136 9.68905 20.6227 10.3844 20.5876C11.6066 20.6013 12.8143 20.3209 13.897 19.7698C15.127 19.0805 16.2141 18.1751 17.1032 17.1003H17.8787C16.8541 18.7456 15.4697 20.1534 13.8232 21.2224C12.295 22.0519 10.5635 22.4608 8.81254 22.4062C7.64069 22.4569 6.47006 22.2758 5.37182 21.8728C4.27357 21.4697 3.27308 20.8525 2.42857 20.0619C1.61699 19.2558 0.983775 18.2978 0.565396 17.2444C0.148952 16.193 -0.0410345 15.0695 0.00738906 13.944C0.0131999 11.5646 0.677799 9.23201 1.93488 7.19142C3.28686 5.06906 5.15514 3.30305 7.37875 2.05105C9.60042 0.799046 12.1061 0.0999882 14.6726 0.0143148C15.8212 0.0532573 16.9602 0.24406 18.0565 0.58286C18.5233 0.730841 19.0078 0.826302 19.4979 0.867192C19.8155 0.841879 20.1249 0.754253 20.4077 0.606272C20.6886 0.460238 20.9346 0.259652 21.1341 0.0143148H21.7337L21.7318 0.00653057ZM35.8333 7.49126L32.6914 17.996L32.368 19.2792C32.3409 19.3941 32.3246 19.5109 32.3188 19.6297C32.3169 19.7523 32.3678 19.8711 32.4569 19.9607C32.4898 20.0016 32.5333 20.0347 32.5817 20.06C32.6301 20.0833 32.6845 20.097 32.7387 20.1009C33.099 20.0366 33.429 19.8594 33.6788 19.5985C34.103 19.1409 34.4915 18.6561 34.844 18.144L35.4115 18.4283C34.8226 19.5849 33.9867 20.6052 32.9581 21.421C32.1524 22.0227 31.1661 22.3517 30.1492 22.3537C29.8935 22.3712 29.6384 22.3381 29.3983 22.2583C29.1561 22.1784 28.9336 22.0519 28.7419 21.8864C28.5811 21.7345 28.4544 21.5495 28.3711 21.347C28.2879 21.1445 28.2499 20.9284 28.2558 20.7103C28.3332 19.9295 28.5067 19.1624 28.774 18.4224L29.1618 17.1393C28.2495 18.8255 27.0249 20.3345 25.5508 21.5923C24.9485 22.0733 24.1959 22.3401 23.4153 22.3498C22.9756 22.3751 22.5371 22.2758 22.1555 22.0636C21.7739 21.8533 21.4622 21.5378 21.2627 21.1581C20.8114 20.3287 20.5833 19.4019 20.5988 18.4653C20.6763 16.6837 21.1503 14.941 21.991 13.3579C22.8219 11.5569 24.0745 9.96999 25.6492 8.72188C26.6099 7.86515 27.845 7.35305 29.1467 7.26932C29.412 7.25764 29.6761 7.29657 29.926 7.38419C30.1759 7.47181 30.4075 7.60814 30.6032 7.78338C31.0583 8.313 31.3392 8.96329 31.4109 9.64868L31.9953 7.70744L35.8333 7.49126ZM30.6486 10.4918C30.7009 9.85121 30.5595 9.21059 30.2438 8.64398C30.1566 8.51937 30.039 8.4181 29.8995 8.348C29.76 8.27985 29.6081 8.24483 29.4531 8.25067C29.058 8.27598 28.6877 8.4434 28.4165 8.72378C27.3764 9.88622 26.5822 11.2337 26.0767 12.6921C25.3252 14.3238 24.8982 16.0781 24.8207 17.8636C24.7839 18.2842 24.8856 18.7067 25.1044 19.0728C25.1703 19.1779 25.2608 19.2675 25.3693 19.3318C25.4777 19.396 25.5989 19.4349 25.7268 19.4427C26.0173 19.4174 26.3015 19.3298 26.5553 19.1896C26.809 19.0474 27.0298 18.8567 27.2022 18.6269C27.9711 17.7604 28.6165 16.7985 29.124 15.7665C30.0401 14.1446 30.5614 12.3416 30.6486 10.4918ZM44.3774 7.27129L41.9335 16.1404C43.9402 11.8139 45.4507 9.15024 46.4657 8.14942C46.7001 7.88461 46.9877 7.67041 47.3112 7.51854C47.6347 7.36666 47.9856 7.28099 48.3459 7.26736C48.5531 7.25957 48.7614 7.30045 48.9512 7.38223C49.1429 7.46595 49.3112 7.59059 49.4449 7.74636C49.749 8.13968 49.8996 8.62256 49.8667 9.11323C49.8977 10.0284 49.6312 10.9299 49.1044 11.6873C48.9959 11.8762 48.8383 12.0339 48.6485 12.1507C48.4606 12.2656 48.2471 12.3338 48.0243 12.3494C47.8229 12.3552 47.6216 12.3026 47.4512 12.1994C47.2769 12.0943 47.1392 11.9463 47.054 11.7672C46.9358 11.5199 46.7821 11.2882 46.6 11.0779C46.5244 11.0136 46.4264 10.9786 46.3257 10.9766C46.2056 10.9805 46.0879 11.0117 45.9852 11.0701C45.6191 11.3213 45.3045 11.6348 45.0546 11.995C44.5045 12.768 44.0291 13.5878 43.6378 14.4464C43.0761 15.5952 42.6408 16.5668 42.327 17.3632C41.8079 18.8527 41.3706 20.3676 41.0142 21.9039H37.0968L39.7677 11.4342C39.9149 10.928 40.0125 10.4081 40.0609 9.88625C40.0725 9.65454 40.0201 9.42477 39.9058 9.22227C39.807 9.06455 39.6602 8.94385 39.4859 8.8718C39.1256 8.77445 38.7494 8.73551 38.3755 8.75498L38.5212 8.29738L43.4108 7.25566H44.3831L44.3774 7.27129ZM58.2349 7.27129L56.1655 14.0609C57.0991 12.6025 58.1128 11.1947 59.2052 9.8434C59.858 9.03145 60.6428 8.32658 61.53 7.75997C62.0897 7.44648 62.7235 7.27907 63.3685 7.27129C63.6552 7.24597 63.9411 7.2888 64.2065 7.39589C64.4719 7.50298 64.7053 7.6704 64.8894 7.88654C65.1954 8.27596 65.3623 8.75305 65.3603 9.24372C65.3139 10.0167 65.1656 10.78 64.9215 11.518L64.1914 14.0609C65.1192 12.6064 66.1311 11.2025 67.2216 9.85897C67.917 9.00419 68.7544 8.26625 69.6977 7.68016C70.1683 7.40951 70.7063 7.26932 71.2525 7.26932C71.5179 7.26348 71.7821 7.30828 72.0281 7.40564C72.274 7.50105 72.4985 7.64511 72.6844 7.83008C72.8781 8.02285 73.0283 8.25067 73.127 8.50185C73.2258 8.75302 73.2692 9.02172 73.2576 9.29043C73.2208 10.1822 73.0599 11.0623 72.779 11.9132L70.9782 17.8013C70.7807 18.3485 70.6451 18.9151 70.5734 19.4914C70.5754 19.581 70.6136 19.6647 70.6775 19.7251C70.7065 19.7601 70.7427 19.7893 70.7834 19.8088C70.8241 19.8302 70.8675 19.84 70.912 19.8419C71.0263 19.8439 71.1371 19.801 71.2204 19.7251C71.691 19.3337 72.1031 18.882 72.4499 18.3835C72.5467 18.257 72.695 18.0622 72.8887 17.7994L73.4391 18.1498C72.86 19.3103 72.0221 20.3287 70.9858 21.1348C70.2866 21.6956 69.4219 22.0266 68.5173 22.0811C67.9382 22.1083 67.37 21.9195 66.9303 21.5515C66.7444 21.3996 66.5941 21.2107 66.4915 20.9965C66.3869 20.7823 66.3326 20.5487 66.3307 20.3131C66.3772 19.6141 66.5127 18.9248 66.7355 18.2589L68.5646 12.1021C68.7409 11.5822 68.8656 11.0467 68.9373 10.5054C68.9353 10.4645 68.9226 10.4236 68.9032 10.3886C68.8838 10.3516 68.8567 10.3204 68.8238 10.2932C68.7637 10.2309 68.6839 10.1959 68.5987 10.19C68.4515 10.192 68.3067 10.2231 68.175 10.2854C67.8224 10.5132 67.5042 10.7878 67.2292 11.1012C66.561 11.8528 65.9465 12.6473 65.3925 13.4787C64.7707 14.3296 64.216 15.2253 63.7317 16.156C63.3618 16.964 63.0564 17.7974 62.8162 18.6503L61.8307 21.9039H57.7336L60.762 11.5919C60.886 11.2181 60.9674 10.8326 61.0022 10.4412C61.0003 10.4003 60.9894 10.3614 60.972 10.3263C60.9526 10.2913 60.9273 10.2601 60.8963 10.2348C60.8382 10.1763 60.7621 10.1433 60.6788 10.1394C59.8866 10.4237 59.2154 10.9649 58.7834 11.6698C57.3559 13.4241 56.1483 15.3401 55.1876 17.371L53.8787 21.9039H49.7494L52.7948 11.7516C53.035 11.0604 53.1849 10.3458 53.2469 9.6195C53.2508 9.46568 53.2074 9.31378 53.1183 9.18721C53.0117 9.05091 52.8649 8.9516 52.6983 8.90098C52.3322 8.81336 51.9562 8.77831 51.5804 8.79973L51.7412 8.19808L57.2645 7.2654H58.2349V7.27129ZM80.3981 15.9866C80.3129 16.5454 80.2641 17.112 80.2544 17.6767C80.237 18.0213 80.2913 18.3679 80.4133 18.6931C80.5353 19.0183 80.7216 19.3162 80.9618 19.5712C81.2078 19.8127 81.5028 19.9996 81.8263 20.1204C82.1517 20.245 82.4991 20.2994 82.8458 20.2819C83.6361 20.2741 84.4106 20.0911 85.1157 19.7445C86.0861 19.2441 86.9793 18.6113 87.7676 17.8655L88.2481 18.292C87.2544 19.5478 86.0243 20.6091 84.622 21.421C83.4249 22.0461 82.0833 22.3692 80.7216 22.3537C80.0417 22.4315 79.3522 22.3556 78.7033 22.1375C78.0564 21.9195 77.4701 21.5612 76.9839 21.09C76.3002 20.2664 75.9338 19.2325 75.9473 18.1732C75.9764 16.3429 76.5107 14.5555 77.4946 12.9939C78.5096 11.2824 79.96 9.85122 81.7052 8.84067C83.3032 7.84958 85.1526 7.30826 87.0488 7.27711C87.7945 7.22454 88.5333 7.45037 89.1144 7.90989C89.3391 8.11239 89.5164 8.35969 89.6365 8.63424C89.7566 8.90878 89.8144 9.20473 89.8086 9.50458C89.8008 10.299 89.5654 11.0759 89.1257 11.7457C88.5292 12.7057 87.722 13.5215 86.7613 14.1387C85.7773 14.7599 84.6996 15.2253 83.5665 15.5212C82.5283 15.7685 81.4673 15.9243 80.4 15.9866H80.3981ZM80.5419 15.1707C81.3012 15.085 82.0442 14.8962 82.7512 14.61C83.3343 14.3335 83.8572 13.948 84.2872 13.4729C84.8315 12.8887 85.2727 12.2228 85.5942 11.4985C85.9429 10.8014 86.131 10.0401 86.1485 9.26511C86.1562 9.13855 86.1381 9.01005 86.0936 8.88933C86.051 8.77056 85.984 8.65959 85.8969 8.56418C85.8136 8.4824 85.7141 8.4181 85.6037 8.37332C85.4952 8.33048 85.3776 8.3091 85.2594 8.31104C84.9088 8.36362 84.5723 8.4843 84.272 8.66733C83.9699 8.84842 83.7093 9.08791 83.506 9.37219C82.0997 11.072 81.09 13.0484 80.5438 15.1669L80.5419 15.1707ZM98.7915 7.27515L96.7846 14.0434C97.7027 12.6298 98.7129 11.2746 99.8092 9.9875C100.536 9.14245 101.395 8.41811 102.355 7.83787C102.963 7.48739 103.655 7.2927 104.36 7.27129C104.631 7.26739 104.901 7.31992 105.149 7.42507C105.397 7.52827 105.62 7.68404 105.802 7.87875C106.21 8.30907 106.424 8.87958 106.401 9.46566C106.376 10.1958 106.242 10.9202 106.004 11.6133L103.94 18.3562C103.809 18.7301 103.718 19.1156 103.676 19.5089C103.679 19.6141 103.723 19.7153 103.797 19.7913C103.828 19.8283 103.866 19.8594 103.908 19.8808C103.953 19.9022 104 19.9159 104.048 19.9197C104.176 19.9139 104.297 19.8692 104.396 19.7913C104.836 19.4135 105.219 18.9774 105.537 18.4984C105.632 18.3504 105.789 18.1304 106.004 17.8344L106.63 18.1985C105.046 20.798 103.376 22.0986 101.623 22.0986C101.052 22.1298 100.489 21.9487 100.049 21.5923C99.8674 21.4327 99.7245 21.238 99.6276 21.0199C99.5288 20.8018 99.4799 20.5662 99.4857 20.3287C99.5284 19.6589 99.6586 18.9969 99.8697 18.3562L101.899 11.6133C102.014 11.2979 102.084 10.9669 102.104 10.6339C102.104 10.5755 102.089 10.5171 102.064 10.4645C102.039 10.41 102.004 10.3633 101.96 10.3244C101.915 10.2815 101.863 10.2484 101.805 10.2251C101.747 10.2017 101.685 10.192 101.623 10.192C101.042 10.2796 100.512 10.5716 100.133 11.0097C98.3429 12.8244 96.8816 14.9235 95.8124 17.2152L94.4788 21.9059H90.3496L93.3874 11.7672C93.6179 11.0759 93.7625 10.3614 93.8187 9.63703C93.8225 9.47737 93.7792 9.31962 93.6882 9.18721C93.5816 9.05091 93.4349 8.9516 93.2663 8.90098C92.9061 8.81336 92.5355 8.78025 92.1636 8.79973L92.3433 8.19808L97.8061 7.2654H98.7915V7.27515ZM136.008 0.0123539L134.181 7.27515H133.641C133.572 6.34053 133.362 5.41957 133.017 4.54336C132.632 3.63795 132.005 2.84741 131.203 2.25159C130.504 1.73171 129.648 1.44933 128.767 1.44738C128.352 1.44738 127.942 1.53112 127.562 1.69273C127.18 1.85435 126.84 2.09188 126.559 2.38785C126.263 2.66239 126.026 2.99343 125.863 3.35755C125.701 3.72166 125.616 4.11495 125.61 4.51217C125.622 5.32022 125.85 6.11275 126.27 6.80982C127.153 8.06377 128.195 9.20669 129.368 10.2114C130.416 11.1071 131.304 12.1625 131.996 13.3385C132.451 14.2206 132.683 15.1961 132.671 16.1813C132.677 17.3048 132.351 18.4069 131.733 19.3551C131.074 20.3521 130.125 21.1348 129.007 21.606C127.731 22.1532 126.346 22.4257 124.95 22.4024C123.77 22.3751 122.595 22.2388 121.443 21.9993C120.519 21.7968 119.581 21.6605 118.636 21.5982C118.301 21.5924 117.964 21.6488 117.65 21.7637C117.263 21.9312 116.899 22.1454 116.57 22.4024H115.933L117.889 14.2322H118.503C118.602 15.4901 118.906 16.7245 119.404 17.8889C119.801 18.8371 120.473 19.653 121.335 20.241C122.187 20.8057 123.199 21.0998 124.229 21.0861C124.725 21.0978 125.217 21.014 125.678 20.8349C126.137 20.6577 126.555 20.391 126.906 20.0522C127.245 19.7407 127.514 19.3648 127.698 18.9481C127.882 18.5315 127.974 18.0817 127.974 17.628C127.972 16.8336 127.766 16.0528 127.375 15.3557C126.592 14.1874 125.661 13.1204 124.602 12.18C123.407 11.1013 122.398 9.84343 121.613 8.45318C121.216 7.64512 121.01 6.75915 121.012 5.86347C121.01 5.08267 121.182 4.30966 121.517 3.59702C121.85 2.88826 122.337 2.25351 122.945 1.74336C124.326 0.549775 126.13 -0.0713544 127.974 0.00653057C129.233 0.0552087 130.481 0.261622 131.684 0.62184C132.3 0.812658 132.938 0.935291 133.583 0.985916C133.875 0.987863 134.163 0.921681 134.423 0.787329C134.758 0.578987 135.056 0.316123 135.298 0.00653057H136.008V0.0123539ZM144.601 3.42178L143.305 7.71712H145.431L144.868 9.53382H142.778L140.076 18.6931C139.927 19.1098 139.839 19.5459 139.812 19.9879C139.81 20.1184 139.862 20.2469 139.957 20.3423C139.996 20.389 140.047 20.426 140.103 20.4513C140.159 20.4766 140.219 20.4903 140.281 20.4922C140.49 20.4825 140.688 20.4046 140.844 20.2722C141.52 19.7153 142.106 19.0669 142.585 18.3445L143.148 18.695C142.558 19.7912 141.716 20.7414 140.689 21.4736C139.92 22.0207 139 22.3284 138.047 22.3576C137.429 22.3946 136.819 22.1999 136.343 21.8124C136.143 21.6391 135.986 21.4268 135.879 21.1873C135.775 20.9478 135.722 20.6909 135.73 20.4299C135.763 19.6316 135.907 18.8411 136.152 18.0778L138.707 9.53578H136.511L136.834 8.36945C138.074 7.94498 139.249 7.36085 140.328 6.63262C141.587 5.68632 142.738 4.6115 143.761 3.4257H144.601V3.42178ZM149.5 15.9924C149.405 16.5512 149.353 17.1159 149.345 17.6806C149.328 18.0272 149.382 18.3718 149.504 18.697C149.626 19.0221 149.812 19.322 150.052 19.5752C150.3 19.8147 150.595 20.0015 150.919 20.1242C151.242 20.2469 151.59 20.3034 151.936 20.2878C152.731 20.2781 153.511 20.095 154.22 19.7504C155.184 19.2441 156.072 18.6133 156.86 17.8714L157.352 18.2978C156.351 19.5518 155.117 20.611 153.715 21.4249C152.516 22.0519 151.174 22.3731 149.812 22.3576C149.132 22.4355 148.443 22.3634 147.796 22.1434C147.151 21.9253 146.564 21.567 146.08 21.0958C145.395 20.2702 145.028 19.2383 145.047 18.1771C145.078 16.3507 145.609 14.5632 146.583 12.9997C147.6 11.2862 149.051 9.85705 150.798 8.84649C152.4 7.85346 154.253 7.31019 156.151 7.28293C156.893 7.23036 157.628 7.45624 158.205 7.91381C158.432 8.11436 158.611 8.36165 158.731 8.6362C158.851 8.91269 158.911 9.2106 158.901 9.5085C158.893 10.3029 158.656 11.0798 158.216 11.7516C157.624 12.7115 156.817 13.5313 155.852 14.1446C154.872 14.7638 153.798 15.2291 152.67 15.5251C151.63 15.7704 150.571 15.9243 149.502 15.9866L149.5 15.9924ZM149.646 15.1746C150.405 15.087 151.146 14.8981 151.853 14.6158C152.434 14.3335 152.955 13.948 153.389 13.4787C153.933 12.8965 154.373 12.2286 154.687 11.5043C155.033 10.8053 155.222 10.044 155.239 9.26904C155.247 9.14247 155.231 9.01588 155.186 8.89516C155.144 8.77443 155.075 8.66346 154.988 8.57C154.906 8.48628 154.807 8.42008 154.696 8.37724C154.586 8.3344 154.468 8.31297 154.35 8.31687C153.999 8.36749 153.665 8.49017 153.363 8.67126C153.061 8.85429 152.8 9.09378 152.597 9.37611C151.196 11.0779 150.19 13.0523 149.648 15.1669L149.646 15.1746ZM167.714 9.57274L165.817 16.8686C165.236 19.4486 164.366 21.9584 163.223 24.3534C162.543 25.7164 161.53 26.8963 160.271 27.7881C159.126 28.5358 157.77 28.9233 156.391 28.9018C155.674 28.9564 154.96 28.7753 154.361 28.3878C154.164 28.2496 154.003 28.0685 153.89 27.8582C153.778 27.6499 153.718 27.4162 153.715 27.1806C153.715 26.9664 153.763 26.7542 153.856 26.5614C153.949 26.3667 154.087 26.1954 154.255 26.0591C154.645 25.7339 155.146 25.5645 155.659 25.5859C155.86 25.5703 156.065 25.5957 156.255 25.658C156.449 25.7203 156.624 25.8176 156.775 25.9481C156.905 26.0649 157.006 26.2071 157.076 26.3648C157.144 26.5225 157.176 26.6938 157.172 26.8632C157.184 26.9995 157.168 27.1358 157.125 27.2643C157.082 27.3928 157.012 27.5116 156.921 27.6148C156.814 27.7005 156.731 27.8115 156.68 27.938L156.764 28.0548C156.828 28.1074 156.909 28.1347 156.993 28.1327C157.299 28.1405 157.594 28.0335 157.821 27.8329C158.387 27.3422 158.823 26.723 159.092 26.0337C159.286 25.5489 159.658 24.2696 160.21 22.1959L163.513 9.57862H161.267L161.793 7.73079C162.4 7.78336 163.008 7.67824 163.558 7.43095C164.066 7.061 164.468 6.57225 164.725 6.00953C165.618 4.2318 166.899 2.66239 168.48 1.41429C169.756 0.501084 171.303 0.0143381 172.887 0.0260208C173.687 -0.0401814 174.485 0.16619 175.144 0.610134C175.372 0.793164 175.555 1.02682 175.677 1.28968C175.799 1.55059 175.861 1.83881 175.853 2.12699C175.878 2.60403 175.711 3.0713 175.386 3.42957C175.237 3.58534 175.056 3.70801 174.854 3.79174C174.655 3.87352 174.438 3.91442 174.219 3.91052C174.023 3.91831 173.828 3.88716 173.644 3.81901C173.46 3.75086 173.294 3.64767 173.15 3.51721C173.017 3.39649 172.908 3.25044 172.834 3.08688C172.763 2.92332 172.728 2.74615 172.732 2.56896C172.74 2.27105 172.83 1.98095 172.995 1.73172C173.127 1.55258 173.217 1.3481 173.258 1.13197C173.262 1.07745 173.253 1.02491 173.232 0.97623C173.21 0.927552 173.179 0.88275 173.139 0.847701C173.098 0.810706 173.047 0.781487 172.995 0.762016C172.941 0.744491 172.885 0.734769 172.827 0.738663C172.434 0.779553 172.055 0.904191 171.716 1.1028C171.379 1.30335 171.09 1.57009 170.871 1.88942C169.532 3.61262 168.62 5.61233 168.206 7.73275H170.559L169.995 9.58052H167.714V9.57274ZM178.146 9.57274L176.262 16.8686C175.681 19.4486 174.811 21.9584 173.668 24.3534C172.989 25.7164 171.973 26.8963 170.714 27.7881C169.569 28.5358 168.217 28.9233 166.836 28.9018C166.12 28.9583 165.405 28.7773 164.808 28.3878C164.611 28.2496 164.45 28.0685 164.336 27.8582C164.223 27.6499 164.164 27.4162 164.16 27.1806C164.162 26.9664 164.207 26.7542 164.3 26.5614C164.395 26.3667 164.53 26.1954 164.699 26.0591C165.088 25.7319 165.591 25.5625 166.104 25.5859C166.308 25.5703 166.508 25.5957 166.7 25.658C166.892 25.7203 167.069 25.8176 167.222 25.9481C167.35 26.0649 167.447 26.209 167.513 26.3648C167.581 26.5244 167.61 26.6938 167.604 26.8632C167.618 26.9976 167.603 27.1339 167.563 27.2624C167.522 27.3909 167.453 27.5116 167.364 27.6148C167.257 27.7005 167.176 27.8115 167.124 27.938L167.207 28.0548C167.271 28.1094 167.353 28.1366 167.436 28.1327C167.738 28.1425 168.032 28.0335 168.253 27.8329C168.826 27.3442 169.268 26.7269 169.537 26.0337C169.729 25.5489 170.101 24.2696 170.653 22.1959L173.956 9.57862H171.711L172.24 7.73079C172.845 7.78336 173.453 7.67824 174.005 7.43095C174.511 7.061 174.911 6.57225 175.168 6.00953C176.058 4.22791 177.341 2.6585 178.927 1.41429C180.203 0.501084 181.748 0.0143381 183.332 0.0260208C184.13 -0.0401814 184.928 0.16619 185.589 0.610134C185.818 0.793164 186 1.02682 186.124 1.28968C186.246 1.55059 186.306 1.83881 186.296 2.12699C186.324 2.60403 186.155 3.0713 185.829 3.42957C185.678 3.58534 185.497 3.70801 185.294 3.79174C185.092 3.87352 184.873 3.91442 184.653 3.91052C184.457 3.91637 184.262 3.8852 184.078 3.81705C183.896 3.75085 183.725 3.64767 183.584 3.51721C183.45 3.39454 183.345 3.24848 183.274 3.08492C183.2 2.92331 183.162 2.74615 183.164 2.56896C183.178 2.27105 183.274 1.98095 183.442 1.73172C183.568 1.54869 183.657 1.34616 183.705 1.13197C183.705 1.02488 183.659 0.923639 183.584 0.847701C183.495 0.771764 183.379 0.732822 183.259 0.738663C182.867 0.7815 182.489 0.906093 182.152 1.1047C181.815 1.30331 181.524 1.57204 181.303 1.88942C179.974 3.61652 179.067 5.61428 178.649 7.73275H181.002L180.427 9.58052H178.146V9.57274ZM185.699 16.0002C185.612 16.5591 185.565 17.1237 185.553 17.6884C185.536 18.033 185.588 18.3796 185.706 18.7048C185.826 19.0299 186.009 19.3278 186.249 19.5848C186.495 19.8224 186.79 20.0113 187.114 20.132C187.439 20.2547 187.786 20.3112 188.135 20.2956C188.927 20.2859 189.707 20.1028 190.414 19.7582C191.383 19.2558 192.272 18.623 193.057 17.8792L193.549 18.3056C192.551 19.5596 191.323 20.6207 189.923 21.4327C188.724 22.0577 187.384 22.379 186.022 22.3673C185.34 22.4433 184.649 22.3693 184.002 22.1492C183.353 21.9312 182.761 21.5729 182.275 21.1036C181.595 20.2761 181.231 19.2461 181.242 18.1868C181.273 16.3565 181.809 14.5671 182.793 13.0075C183.804 11.296 185.251 9.86483 186.994 8.85427C188.596 7.86124 190.449 7.32187 192.347 7.29072C193.091 7.23425 193.826 7.46207 194.4 7.92159C194.628 8.12409 194.809 8.36945 194.928 8.64594C195.05 8.92049 195.106 9.21838 195.098 9.51629C195.088 10.3088 194.856 11.0857 194.426 11.7594C193.828 12.7154 193.017 13.5313 192.06 14.1524C191.076 14.7716 190 15.2369 188.867 15.5329C187.827 15.7763 186.768 15.9262 185.701 15.9866L185.699 16.0002ZM185.841 15.1844C186.6 15.0948 187.345 14.906 188.05 14.6236C188.633 14.3432 189.154 13.9577 189.588 13.4865C190.132 12.9023 190.573 12.2345 190.895 11.5121C191.234 10.8111 191.418 10.0517 191.436 9.27872C191.447 9.15216 191.429 9.02562 191.388 8.9049C191.348 8.78418 191.283 8.67319 191.196 8.57779C191.112 8.49406 191.011 8.42786 190.899 8.38502C190.788 8.34219 190.669 8.32076 190.549 8.32465C190.198 8.37722 189.863 8.49797 189.563 8.681C189.265 8.86208 189.006 9.10157 188.807 9.3839C187.402 11.0818 186.391 13.0542 185.842 15.1669L185.841 15.1844ZM204.088 7.28875L202.072 14.057C202.998 12.6453 204.012 11.2902 205.11 9.99921C205.832 9.15805 206.688 8.43172 207.644 7.85148C208.257 7.50099 208.948 7.30436 209.659 7.28489C209.93 7.28295 210.198 7.33549 210.446 7.44064C210.694 7.54578 210.916 7.69771 211.1 7.89242C211.505 8.32468 211.718 8.89323 211.69 9.47737C211.669 10.2075 211.539 10.9319 211.305 11.627L209.228 18.3699C209.104 18.7437 209.019 19.1292 208.976 19.5206C208.974 19.5751 208.985 19.6258 209.004 19.6745C209.026 19.7231 209.058 19.7679 209.097 19.8049C209.128 19.8419 209.166 19.8711 209.209 19.8925C209.251 19.9159 209.3 19.9295 209.349 19.9315C209.471 19.9256 209.59 19.8808 209.685 19.8049C210.131 19.431 210.52 18.9929 210.837 18.51C210.932 18.364 211.09 18.142 211.305 17.848L211.916 18.2102C210.331 20.8115 208.669 22.1103 206.924 22.1103C206.352 22.1453 205.788 21.9643 205.35 21.606C205.166 21.4483 205.019 21.2536 204.924 21.0355C204.826 20.8174 204.779 20.5798 204.786 20.3423C204.823 19.6705 204.953 19.0066 205.17 18.3699L207.198 11.627C207.308 11.3096 207.377 10.9806 207.404 10.6457C207.404 10.5872 207.39 10.5307 207.364 10.4781C207.339 10.4236 207.305 10.3769 207.259 10.338C207.169 10.2542 207.05 10.2056 206.924 10.2056C206.341 10.2874 205.809 10.5794 205.433 11.0214C203.638 12.8342 202.176 14.9332 201.113 17.2288L199.779 21.9175H195.65L198.675 11.7808C198.913 11.0915 199.063 10.375 199.119 9.64868C199.123 9.48902 199.076 9.33327 198.987 9.19892C198.88 9.06457 198.733 8.96527 198.567 8.91465C198.207 8.82703 197.832 8.79196 197.462 8.81143L197.644 8.21175L203.093 7.27711H204.088V7.28875ZM226 7.28875L225.291 12.1663H224.691C224.674 11.0662 224.253 10.007 223.501 9.18139C223.222 8.85622 222.877 8.59144 222.486 8.40451C222.094 8.21759 221.669 8.11049 221.233 8.09297C220.78 8.07544 220.339 8.22925 219.996 8.51937C219.845 8.64594 219.722 8.80365 219.639 8.98084C219.555 9.15803 219.516 9.35276 219.518 9.54552C219.518 9.87264 219.584 10.1939 219.72 10.4938C219.976 10.9358 220.296 11.3388 220.67 11.6932C221.832 12.8167 222.869 14.055 223.766 15.3888C224.134 16.0528 224.324 16.7986 224.318 17.5521C224.32 18.3796 224.096 19.1954 223.67 19.912C223.218 20.6772 222.546 21.2984 221.736 21.6975C220.917 22.1356 219.995 22.3654 219.06 22.3673C218.275 22.344 217.496 22.2213 216.743 22.0051C216.303 21.8669 215.848 21.7812 215.387 21.752C215.168 21.7403 214.95 21.7812 214.751 21.8688C214.551 22.0012 214.378 22.1687 214.246 22.3654H213.658L214.45 17.1062H214.967C215.211 18.0506 215.565 18.9657 216.022 19.8322C216.346 20.3637 216.8 20.8096 217.344 21.127C217.817 21.4249 218.364 21.5904 218.928 21.6079C219.199 21.6176 219.468 21.5729 219.722 21.4794C219.976 21.386 220.209 21.2458 220.405 21.0647C220.589 20.8972 220.735 20.6967 220.834 20.4708C220.933 20.2469 220.984 20.0055 220.982 19.7601C220.982 19.2597 220.853 18.7651 220.609 18.3232C220.105 17.5443 219.516 16.818 218.856 16.1599C217.903 15.2252 217.066 14.1874 216.361 13.0659C216.068 12.5071 215.923 11.8899 215.939 11.2648C215.925 10.7294 216.034 10.1978 216.253 9.70709C216.472 9.21642 216.799 8.77831 217.212 8.42198C218.206 7.61198 219.482 7.20506 220.776 7.28489C221.608 7.30826 222.435 7.42702 223.238 7.63536C223.618 7.73661 224.008 7.79697 224.402 7.81059C224.603 7.81254 224.802 7.76586 224.98 7.67434C225.159 7.58477 225.311 7.45233 225.423 7.29072H226V7.28875Z" fill="#9F9F9F"/>
</g>
</svg>
