<svg width="195" height="72" viewBox="0 0 195 72" fill="none" xmlns="http://www.w3.org/2000/svg">
<path d="M122.671 0C122.48 1.2189 121.152 2.16535 119.963 1.91679C119.518 1.82597 119.079 1.69213 118.635 1.6013C118.171 1.5057 117.741 1.55828 117.45 1.99327C117.378 2.10321 117.292 2.12233 117.178 2.11755C117.015 2.11277 116.853 2.10321 116.69 2.11755C116.428 2.14145 116.451 2.02673 116.547 1.85943C116.633 1.70647 116.705 1.54872 116.8 1.40532C117.402 0.449321 118.2 0.10994 119.308 0.348941C119.724 0.439761 120.135 0.535362 120.55 0.616622C121.119 0.721782 121.544 0.497122 121.763 0C122.064 0 122.365 0 122.671 0Z" fill="#9F9F9F"/>
<path d="M157.644 42.7761C157.462 43.9042 157.176 44.9892 156.65 45.9978C155.652 47.9385 154.066 49.2721 152.174 50.2664C150.421 51.1841 148.534 51.6478 146.575 51.8629C144.707 52.0637 142.844 52.0684 140.977 51.8533C138.153 51.5283 135.526 50.6918 133.295 48.8515C130.787 46.777 129.722 44.0763 129.951 40.8641C130.247 36.6386 132.703 34.0239 136.424 32.413C138.373 31.5717 140.437 31.2419 142.543 31.1463C145.047 31.0268 147.516 31.2085 149.919 31.9685C152.203 32.6903 154.204 33.8614 155.723 35.7543C156.774 37.0688 157.362 38.5745 157.567 40.2379C157.572 40.2905 157.577 40.3383 157.644 40.3909C157.644 40.2714 157.644 40.1519 157.644 40.0324C157.644 37.3269 157.648 34.6166 157.639 31.9111C157.639 31.653 157.687 31.567 157.968 31.567C166.839 31.5765 175.71 31.567 184.581 31.5813C186.554 31.5861 188.508 31.7629 190.404 32.3557C192.143 32.9006 193.553 33.8566 194.336 35.5678C194.857 36.7007 194.995 37.9005 194.995 39.1242C195 41.2991 194.995 43.474 194.995 45.6489C194.995 47.5848 194.99 49.5207 195 51.4518C195 51.7147 194.952 51.8008 194.67 51.8008C192.559 51.7864 190.452 51.7864 188.341 51.8008C188.073 51.8008 188.03 51.7195 188.03 51.4757C188.04 47.6039 188.035 43.7369 188.035 39.8651C188.035 39.3632 188.025 38.866 187.935 38.3689C187.662 36.9015 187.104 36.3661 185.632 36.1319C184.911 36.0172 184.185 35.9837 183.454 35.9885C182.303 35.9885 181.147 35.998 179.995 35.9837C179.742 35.9789 179.675 36.0458 179.675 36.2992C179.685 41.323 179.68 46.342 179.69 51.3658C179.69 51.6717 179.627 51.7625 179.307 51.7577C177.21 51.7386 175.108 51.7434 173.011 51.753C172.729 51.753 172.634 51.7004 172.634 51.3897C172.643 46.3898 172.639 41.3899 172.648 36.3852C172.648 36.0745 172.6 35.9694 172.257 35.9741C169.83 35.9933 167.408 35.9885 164.981 35.9789C164.68 35.9789 164.585 36.0315 164.589 36.3565C164.604 41.3564 164.594 46.3563 164.604 51.361C164.604 51.6669 164.542 51.7625 164.222 51.7577C162.158 51.7434 160.089 51.7434 158.026 51.7577C157.725 51.7577 157.629 51.7052 157.629 51.3753C157.644 48.6268 157.639 45.8735 157.639 43.125C157.644 43.0151 157.644 42.8956 157.644 42.7761ZM150.445 41.4998C150.435 41.3134 150.426 41.0171 150.397 40.7255C150.153 38.4741 149.064 36.8154 146.9 36.0124C144.865 35.2571 142.787 35.2667 140.747 36.0124C139.061 36.629 137.948 37.8336 137.437 39.5639C137.15 40.5343 137.102 41.5333 137.222 42.5323C137.489 44.755 138.593 46.3611 140.719 47.1785C142.195 47.7425 143.728 47.7999 145.276 47.58C146.47 47.4127 147.564 46.9921 148.496 46.2129C149.943 45.0131 150.416 43.4023 150.445 41.4998Z" fill="#9F9F9F"/>
<path d="M17.7057 52.3173C15.1022 52.2934 12.4271 52.107 9.81403 51.4091C7.89845 50.9024 6.10707 50.1376 4.53543 48.9044C2.53863 47.3365 1.28705 45.2859 0.656486 42.8481C-0.131722 39.7889 -0.222485 36.701 0.451074 33.6179C1.36826 29.4115 3.97651 26.6534 7.94622 25.1238C10.0624 24.3112 12.2694 23.924 14.5146 23.7424C16.7407 23.5607 18.9668 23.5607 21.1929 23.7519C23.7677 23.9766 26.2852 24.4594 28.6498 25.5635C31.8982 27.0788 34.0096 29.5692 34.9316 33.0251C35.8058 36.3042 35.801 39.6072 34.9364 42.8815C33.9141 46.7438 31.4396 49.3107 27.7422 50.7494C25.7645 51.519 23.7056 51.9158 21.6037 52.1309C20.333 52.2552 19.0623 52.303 17.7057 52.3173ZM27.4174 37.9533C27.403 36.8635 27.3218 35.7832 27.0925 34.7173C26.4428 31.7106 24.7231 29.6744 21.7136 28.8331C19.1388 28.1113 16.5353 28.1065 13.9557 28.7901C11.1325 29.5357 9.33633 31.3665 8.62933 34.2058C7.9701 36.83 8.04176 39.4638 8.7822 42.0594C9.49397 44.5545 11.1229 46.2228 13.6118 46.9493C16.3968 47.7619 19.2152 47.7524 22.0002 46.9493C24.2072 46.3136 25.7597 44.8939 26.6148 42.7429C27.2263 41.2038 27.3935 39.5929 27.4174 37.9533Z" fill="#9F9F9F"/>
<path d="M18.8378 63.5936C19.5782 63.7178 20.3235 63.8373 21.0639 63.9616C23.5575 64.3823 26.0654 64.7408 28.5638 65.1088C30.5606 65.4052 32.567 65.6681 34.5781 65.8641C36.4698 66.0457 38.3663 66.1939 40.2627 66.3373C43.5302 66.5763 46.8025 66.6145 50.0747 66.5333C52.8788 66.4616 55.6782 66.2799 58.4727 66.0409C62.8915 65.6681 67.2816 65.0801 71.6716 64.4683C75.5219 63.9282 79.3674 63.3737 83.2225 62.8383C86.4708 62.389 89.724 61.9588 92.9771 61.5334C98.8863 60.7686 104.824 60.5535 110.776 60.6921C113.504 60.7542 116.227 60.9167 118.935 61.2609C123.478 61.8345 127.888 62.9291 132.13 64.6786C133.362 65.1853 134.599 65.6872 135.798 66.2799C134.977 65.9883 134.155 65.7015 133.338 65.3956C131.528 64.7216 129.689 64.1194 127.787 63.7513C125.681 63.345 123.541 63.2494 121.396 63.192C118.797 63.1251 116.198 63.1538 113.604 63.2876C111.053 63.4215 108.512 63.6509 105.975 63.9712C103.119 64.3297 100.262 64.6786 97.4054 65.0419C94.5583 65.4004 91.716 65.778 88.8737 66.127C85.9645 66.4855 83.0505 66.844 80.1317 67.1355C78.7894 67.2694 77.4518 67.3984 76.1095 67.5275C76.0808 67.5323 76.0522 67.5419 75.9662 67.5705C76.3006 67.7139 76.6111 67.7235 76.9073 67.7713C78.9423 68.1011 80.9773 68.4501 83.0218 68.7273C84.9709 68.9902 86.9247 69.2244 88.8785 69.4156C91.4007 69.6642 93.9278 69.8219 96.4596 69.908C98.5567 69.9797 100.654 69.9653 102.756 69.908C105.192 69.841 107.623 69.7215 110.05 69.5351C112.128 69.3726 114.206 69.1766 116.284 68.9854C118.123 68.8133 119.963 68.6221 121.797 68.4357C123.45 68.2636 125.103 68.082 126.755 67.9051C128.929 67.6757 131.098 67.4319 133.271 67.2168C135.435 67.0017 137.599 66.7962 139.763 66.6289C142.735 66.3994 145.711 66.3229 148.692 66.3421C151.247 66.3564 153.798 66.4329 156.349 66.6241C160.582 66.9396 164.766 67.5657 168.812 68.8946C170.752 69.5303 172.648 70.2808 174.53 71.0552C174.588 71.0791 174.64 71.1125 174.688 71.1747C173.594 70.8018 172.495 70.429 171.406 70.0466C169.395 69.3391 167.312 68.9806 165.201 68.7655C161.69 68.407 158.164 68.4357 154.644 68.5218C152.198 68.5839 149.766 68.8516 147.33 69.0667C145.056 69.2674 142.787 69.473 140.513 69.6785C138.545 69.8602 136.577 70.0561 134.609 70.233C132.736 70.4003 130.864 70.5628 128.991 70.711C126.975 70.8687 124.959 71.0217 122.943 71.1412C120.927 71.2607 118.907 71.3563 116.886 71.428C112.735 71.5714 108.584 71.5475 104.428 71.428C101.786 71.3515 99.149 71.1986 96.5169 70.993C93.8083 70.7779 91.1045 70.5389 88.4103 70.1756C83.9438 69.5734 79.4916 68.885 75.135 67.7091C74.6525 67.5801 74.1796 67.6948 73.7114 67.7331C71.8245 67.8765 69.9376 68.0007 68.0507 68.0916C64.3676 68.2636 60.6845 68.3497 56.9966 68.3449C53.1368 68.3401 49.2817 68.2158 45.4267 67.9625C42.0446 67.7378 38.6672 67.4463 35.3042 66.9874C30.3504 66.3134 25.4444 65.4243 20.6149 64.105C20.3091 64.0238 20.0082 63.9473 19.7024 63.866C19.411 63.7895 19.1196 63.7083 18.8282 63.6318C18.833 63.6175 18.8378 63.6031 18.8378 63.5936Z" fill="#9F9F9F"/>
<path d="M111.502 51.4663C109.047 51.4663 106.587 51.4615 104.131 51.4711C103.888 51.4711 103.807 51.4281 103.807 51.1604C103.816 46.4855 103.816 41.8107 103.807 37.1358C103.807 36.8729 103.869 36.8395 104.112 36.8825C106.042 37.241 107.91 37.7859 109.639 38.7419C110.729 39.3394 110.724 39.349 110.724 40.5822C110.724 42.6472 110.729 44.7121 110.719 46.7771C110.719 47.0209 110.767 47.1021 111.029 47.1021C112.63 47.0878 114.225 47.1021 115.826 47.0878C117.087 47.0782 118.338 46.9587 119.556 46.5763C121.119 46.084 122.06 45.0324 122.413 43.4502C122.704 42.1596 122.709 40.8642 122.432 39.5688C122.045 37.7381 120.937 36.5861 119.146 36.0699C117.713 35.654 116.241 35.5584 114.76 35.5584C111.206 35.5536 107.652 35.5536 104.093 35.5632C103.826 35.5632 103.749 35.5106 103.754 35.2286C103.764 31.5528 103.764 27.8817 103.754 24.2059C103.754 23.9525 103.792 23.8569 104.079 23.8569C106.176 23.8713 108.278 23.8713 110.375 23.8569C110.619 23.8569 110.681 23.9095 110.676 24.1581C110.666 26.4095 110.676 28.6608 110.662 30.9075C110.662 31.1799 110.729 31.2421 111.001 31.2421C113.112 31.2325 115.219 31.2182 117.33 31.2468C119.356 31.2755 121.386 31.3902 123.302 32.0929C126.932 33.4217 129.244 35.9456 129.741 39.8413C130.123 42.824 129.502 45.6012 127.367 47.8765C125.915 49.4252 124.08 50.3334 122.045 50.8688C120.383 51.3086 118.692 51.4567 116.977 51.4567C115.152 51.4663 113.327 51.4663 111.502 51.4663Z" fill="#9F9F9F"/>
<path d="M89.6045 31.1133C91.9691 31.1228 94.4436 31.4335 96.7987 32.4182C99.1538 33.4029 101.074 34.8943 102.283 37.1935C103.09 38.7231 103.362 40.3674 103.286 42.0786C103.181 44.5117 102.34 46.6244 100.558 48.3309C99.2828 49.5498 97.7923 50.4245 96.1347 51.0077C93.4214 51.9589 90.6173 52.1262 87.7749 51.9637C85.6157 51.8394 83.5138 51.4236 81.5409 50.4915C79.439 49.4972 77.7002 48.0919 76.5919 45.9983C75.7894 44.483 75.5075 42.8482 75.5744 41.1513C75.67 38.7326 76.5203 36.6294 78.2591 34.9086C79.8594 33.3216 81.8037 32.3561 83.9533 31.7777C85.7542 31.2901 87.5886 31.1228 89.6045 31.1133ZM96.0869 41.572C96.0869 41.5194 96.0869 41.462 96.0869 41.4094C96.0774 41.2039 96.0726 40.9984 96.0535 40.7928C95.8099 38.4267 94.6586 36.7394 92.3704 35.9459C90.4883 35.2958 88.5631 35.2958 86.6762 35.9124C84.9756 36.4669 83.7431 37.5759 83.1603 39.3062C82.8068 40.3626 82.7495 41.4572 82.8833 42.5566C83.1412 44.6837 84.1826 46.2516 86.1985 47.0977C87.7128 47.7334 89.2988 47.8003 90.9039 47.5852C92.1077 47.4227 93.216 47.0021 94.157 46.2133C95.5997 45.004 96.0774 43.3836 96.0869 41.572Z" fill="#9F9F9F"/>
<path d="M62.2131 41.3424C62.2131 39.2726 62.2083 37.5423 62.2178 35.8167C62.2178 35.592 62.1701 35.5251 61.936 35.5251C60.5124 35.5347 59.0889 35.5251 57.6653 35.5394C57.4026 35.5442 57.3405 35.463 57.3453 35.2096C57.3596 34.0672 57.3596 32.9248 57.3453 31.7871C57.3453 31.5625 57.3978 31.5003 57.6319 31.5003C59.065 31.5099 60.5029 31.5003 61.936 31.5099C62.1653 31.5099 62.2226 31.4477 62.2226 31.2231C62.2131 28.9956 62.2274 26.7681 62.2083 24.5358C62.2083 24.2108 62.3038 24.1487 62.6096 24.1534C64.6637 24.1678 66.7178 24.1678 68.7719 24.1534C69.049 24.1534 69.135 24.206 69.135 24.5024C69.1206 26.7299 69.1302 28.9574 69.1206 31.1896C69.1206 31.4477 69.1875 31.5099 69.4455 31.5099C71.6763 31.5003 73.9024 31.5099 76.1333 31.4956C76.3817 31.4956 76.4343 31.5577 76.4343 31.7967C76.4199 32.9391 76.4199 34.0815 76.4343 35.2192C76.439 35.4916 76.3435 35.5299 76.1046 35.5299C73.8881 35.5203 71.6668 35.5299 69.4503 35.5203C69.1971 35.5203 69.1254 35.5777 69.1254 35.8406C69.135 38.4266 69.1302 41.0173 69.135 43.6033C69.135 44.1913 69.1875 44.7744 69.3165 45.348C69.5745 46.4857 70.2623 47.1931 71.3945 47.4799C72.1493 47.6711 72.9136 47.7237 73.6875 47.7285C74.5139 47.7333 75.3403 47.738 76.1667 47.7237C76.3817 47.7189 76.4343 47.7811 76.4343 47.9914C76.4247 49.1529 76.4247 50.3193 76.4343 51.4808C76.4343 51.6911 76.3817 51.7533 76.1667 51.7533C73.8403 51.7294 71.5139 51.7963 69.1875 51.715C67.764 51.6624 66.3834 51.3804 65.127 50.673C63.3691 49.6883 62.428 48.1635 62.2752 46.1702C62.1271 44.459 62.2465 42.7286 62.2131 41.3424Z" fill="#9F9F9F"/>
<path d="M37.75 41.6198C37.75 38.3502 37.7547 35.0759 37.7452 31.8064C37.7452 31.5626 37.8025 31.5005 38.0509 31.5005C42.0923 31.51 46.1384 31.5053 50.1845 31.5196C51.3358 31.5244 52.4823 31.6535 53.5953 31.9737C55.5635 32.5378 56.5953 33.814 56.7147 35.8551C56.7912 37.1696 56.7338 38.4841 56.7529 39.7986C56.7577 39.9659 56.7099 40.0233 56.5332 40.0233C54.4886 40.0185 52.4441 40.0185 50.4043 40.0233C50.1989 40.0233 50.1798 39.9372 50.1798 39.7699C50.1845 39.0195 50.1845 38.269 50.1798 37.5185C50.175 36.075 49.7833 35.64 48.3454 35.4966C47.218 35.3866 46.0859 35.4488 44.9585 35.4297C44.8008 35.4249 44.7387 35.4822 44.7531 35.6352C44.7578 35.7117 44.7531 35.7882 44.7531 35.8646C44.7531 41.0605 44.7483 46.2564 44.7578 51.4523C44.7578 51.7391 44.691 51.8108 44.4043 51.806C42.2977 51.7917 40.1862 51.7917 38.0796 51.806C37.8073 51.806 37.7452 51.7343 37.7452 51.4666C37.7547 48.1827 37.75 44.8989 37.75 41.6198Z" fill="#9F9F9F"/>
<path d="M61.7832 15.9028C60.9234 15.8789 60.0683 15.8311 59.2323 15.6112C57.2928 15.095 56.2037 13.9334 56.0317 11.945C55.855 9.9039 56.2323 7.93931 57.3406 6.1707C58.0954 4.96614 59.1798 4.15354 60.5317 3.72334C62.4807 3.10193 64.4631 3.03501 66.4456 3.50824C68.5141 4.00536 69.5363 5.20992 69.6701 7.33703C69.7847 9.21557 69.4026 11.0129 68.4758 12.662C67.4631 14.464 65.8294 15.3483 63.8612 15.7164C63.1733 15.8455 62.4807 15.8885 61.7832 15.9028ZM66.5411 8.40297C66.565 8.19743 66.5316 7.86761 66.4886 7.54735C66.3262 6.3141 65.6335 5.58276 64.4154 5.37244C64.0189 5.30552 63.6176 5.28162 63.2116 5.30552C61.8214 5.38678 60.6845 5.92214 59.9823 7.16973C59.2562 8.46033 58.9791 9.87522 59.0842 11.3427C59.1845 12.7002 59.8247 13.4124 61.0428 13.6801C61.5014 13.7805 61.9695 13.7948 62.4377 13.7614C63.9616 13.6562 65.1319 13.0013 65.7912 11.5721C66.2498 10.6018 66.4647 9.57886 66.5411 8.40297Z" fill="#9F9F9F"/>
<path d="M117.049 15.903C116.036 15.8743 115.033 15.8074 114.063 15.4728C112.501 14.9327 111.541 13.8476 111.345 12.2128C111.096 10.1335 111.464 8.14025 112.525 6.31429C113.227 5.10495 114.264 4.25888 115.582 3.8C117.713 3.0591 119.886 2.99218 122.055 3.59446C123.818 4.0868 124.792 5.29615 124.935 7.12211C125.079 8.95286 124.744 10.7119 123.918 12.361C122.929 14.3256 121.252 15.3198 119.155 15.7118C118.463 15.8456 117.756 15.8887 117.049 15.903ZM117.354 13.7616C117.474 13.7616 117.593 13.7711 117.713 13.7616C119.084 13.666 120.22 13.1545 120.908 11.8973C121.606 10.6163 121.897 9.2301 121.797 7.78653C121.706 6.48637 121.114 5.74547 120.034 5.44911C119.786 5.38219 119.523 5.33917 119.265 5.32005C117.607 5.21011 116.16 5.61641 115.281 7.15557C114.488 8.54178 114.225 10.0666 114.407 11.6488C114.531 12.7243 115.166 13.3887 116.222 13.6468C116.599 13.7377 116.977 13.7759 117.354 13.7616Z" fill="#9F9F9F"/>
<path d="M140.48 15.5971C140.595 14.9231 140.719 14.2826 140.814 13.6373C140.848 13.4079 140.991 13.4366 141.144 13.4366C143.394 13.4366 145.644 13.4366 147.894 13.4366C148.386 13.4366 148.868 13.3983 149.341 13.2501C150.196 12.9777 150.44 12.2272 150.373 11.5054C150.335 11.0609 150.044 10.8171 149.623 10.712C149.251 10.6164 148.873 10.602 148.491 10.602C147.254 10.5972 146.012 10.5972 144.774 10.5829C144.139 10.5781 143.523 10.473 142.921 10.2626C141.832 9.88023 141.292 9.15845 141.292 8.01602C141.292 7.1843 141.45 6.3717 141.817 5.62123C142.415 4.39277 143.466 3.79527 144.755 3.53715C145.438 3.39853 146.136 3.35551 146.829 3.35551C149.131 3.35073 151.438 3.36029 153.741 3.34595C154.018 3.34595 154.099 3.39853 154.037 3.68533C153.913 4.23503 153.817 4.79429 153.727 5.34877C153.693 5.56865 153.612 5.64513 153.373 5.64513C151.243 5.63557 149.112 5.63557 146.981 5.64035C146.547 5.64035 146.112 5.64991 145.687 5.7503C144.865 5.9415 144.368 6.4912 144.273 7.33248C144.216 7.8296 144.411 8.15942 144.884 8.36018C145.233 8.50836 145.601 8.52748 145.969 8.53226C147.316 8.53704 148.663 8.53704 150.01 8.5466C150.607 8.55138 151.2 8.63264 151.778 8.79994C152.7 9.06763 153.282 9.65557 153.359 10.6116C153.488 12.232 153.106 13.6851 151.72 14.7033C150.999 15.2338 150.153 15.425 149.284 15.535C148.797 15.5971 148.309 15.6067 147.817 15.6067C145.491 15.6067 143.165 15.6067 140.838 15.6067C140.728 15.5971 140.609 15.5971 140.48 15.5971Z" fill="#9F9F9F"/>
<path d="M102.808 10.5064C102.025 10.5064 101.241 10.516 100.463 10.5017C100.252 10.4969 100.19 10.5638 100.162 10.7693C99.9133 12.299 99.6458 13.8286 99.4021 15.3629C99.3687 15.5685 99.297 15.6019 99.1155 15.6019C98.3321 15.5924 97.5486 15.5924 96.77 15.6019C96.5694 15.6067 96.5264 15.5733 96.5598 15.3534C97.2095 11.5007 97.8544 7.648 98.4849 3.79531C98.5279 3.52285 98.6235 3.42725 98.9101 3.43681C99.6505 3.46071 100.386 3.45114 101.127 3.44158C101.351 3.4368 101.389 3.49895 101.351 3.71405C101.093 5.16717 100.854 6.62507 100.587 8.07342C100.544 8.32198 100.596 8.36022 100.826 8.36022C102.369 8.35066 103.912 8.35066 105.455 8.36022C105.66 8.36022 105.736 8.2933 105.765 8.1021C106.004 6.65853 106.257 5.21497 106.496 3.76663C106.534 3.52285 106.611 3.42725 106.883 3.43681C107.633 3.46071 108.383 3.45593 109.133 3.43681C109.367 3.43203 109.4 3.51329 109.362 3.71405C108.98 5.97021 108.603 8.23116 108.225 10.4873C107.953 12.103 107.681 13.7186 107.418 15.3343C107.385 15.5398 107.322 15.6019 107.112 15.5972C106.343 15.5828 105.569 15.5876 104.795 15.5972C104.59 15.6019 104.523 15.5733 104.561 15.3343C104.829 13.8047 105.068 12.2703 105.335 10.7454C105.373 10.516 105.307 10.5017 105.12 10.5017C104.351 10.5112 103.577 10.5064 102.808 10.5064Z" fill="#9F9F9F"/>
<path d="M130.429 8.35075C130.572 8.35075 130.687 8.35075 130.806 8.35075C133.176 8.35075 135.545 8.35553 137.915 8.34597C138.192 8.34597 138.235 8.42723 138.187 8.67101C138.096 9.16335 138.001 9.65569 137.948 10.148C137.919 10.4157 137.829 10.4826 137.566 10.4826C135.197 10.4731 132.827 10.4826 130.458 10.4683C130.147 10.4683 130.023 10.5543 130.037 10.8603C130.047 11.0419 130.023 11.2283 130.023 11.4147C130.047 12.6289 130.587 13.2216 131.795 13.3745C132.154 13.4176 132.507 13.4415 132.87 13.4415C134.284 13.4415 135.698 13.4462 137.107 13.4367C137.337 13.4367 137.375 13.5084 137.341 13.7091C137.246 14.2541 137.16 14.799 137.079 15.3487C137.055 15.5112 136.988 15.5638 136.825 15.559C134.934 15.5399 133.042 15.6068 131.15 15.516C130.08 15.4634 129.068 15.1909 128.232 14.4692C127.224 13.604 126.856 12.4616 126.87 11.1805C126.884 9.67481 127.214 8.23124 127.873 6.87372C128.805 4.94259 130.4 3.93401 132.469 3.58507C133.104 3.47991 133.74 3.44167 134.384 3.44167C135.851 3.44167 137.318 3.44645 138.789 3.43689C139.037 3.43689 139.08 3.50859 139.037 3.73325C138.942 4.24471 138.851 4.76095 138.789 5.2772C138.76 5.49708 138.684 5.55922 138.464 5.55922C137.031 5.54966 135.593 5.55444 134.16 5.55444C133.692 5.55444 133.224 5.5879 132.77 5.7074C131.418 6.05634 130.759 7.03624 130.429 8.35075Z" fill="#9F9F9F"/>
<path d="M49.5731 15.5969C48.6511 15.573 47.5524 15.6256 46.4585 15.5347C44.5142 15.3674 43.0572 14.2155 42.6464 12.4755C42.441 11.6056 42.484 10.7261 42.6225 9.85131C42.7945 8.75191 43.0954 7.69074 43.6209 6.70128C44.5524 4.95179 46.0476 4.00535 47.9632 3.65163C48.6702 3.52257 49.3868 3.46999 50.1033 3.46999C51.5364 3.46521 52.9743 3.47477 54.4074 3.46521C54.6606 3.46521 54.7275 3.51779 54.6749 3.77113C54.5746 4.25869 54.503 4.75581 54.4313 5.24816C54.4026 5.4537 54.3549 5.56364 54.0969 5.55886C52.7402 5.53974 51.3788 5.56364 50.0221 5.54452C49.5635 5.53974 49.1145 5.53018 48.6654 5.63534C47.6432 5.87434 46.917 6.49096 46.4823 7.43262C45.9043 8.68499 45.6177 10.0043 45.6798 11.3857C45.7371 12.7623 46.3438 13.3503 47.7339 13.4459C49.3533 13.551 50.9727 13.4698 52.5921 13.4937C53.0603 13.4985 53.0651 13.4937 52.9934 13.943C52.917 14.4258 52.8214 14.9038 52.7593 15.3913C52.7355 15.5778 52.659 15.6112 52.4918 15.6112C51.5746 15.5921 50.6622 15.5969 49.5731 15.5969Z" fill="#9F9F9F"/>
<path d="M92.1889 3.47026C93.1109 3.47026 94.0376 3.47504 94.9596 3.46548C95.1793 3.4607 95.2462 3.51806 95.2032 3.73794C95.1029 4.28286 95.0169 4.82778 94.9357 5.37749C94.9166 5.51611 94.8545 5.55435 94.7207 5.55435C93.2351 5.53045 91.7446 5.56391 90.259 5.53045C88.8593 5.50177 87.6316 5.99889 86.939 7.57629C86.4183 8.76174 86.1651 10.0141 86.1985 11.3143C86.232 12.71 86.8482 13.3506 88.2526 13.4414C89.8482 13.5465 91.4485 13.4653 93.044 13.4892C93.579 13.494 93.579 13.4892 93.5074 14.0006C93.4405 14.45 93.364 14.8993 93.2972 15.3534C93.2733 15.5207 93.2303 15.6115 93.0201 15.6067C91.2717 15.5924 89.5185 15.6067 87.7701 15.5876C87.173 15.5828 86.5759 15.5159 85.9979 15.3438C84.3211 14.8467 83.2797 13.7377 83.103 11.9978C82.8785 9.78944 83.3896 7.71969 84.6794 5.88895C85.6014 4.584 86.9533 3.95304 88.4867 3.65668C89.7096 3.41768 90.9516 3.47504 92.1889 3.47026Z" fill="#9F9F9F"/>
<path d="M78.6556 15.5541C78.1444 15.5541 77.6238 15.4919 77.1269 15.5684C76.377 15.6879 75.6413 15.6114 74.9056 15.5206C73.4343 15.3437 72.2974 14.383 71.9582 13.0398C71.8149 12.4614 71.8627 11.8687 71.9439 11.2903C72.2974 8.74254 72.7846 6.21391 73.1955 3.67572C73.2289 3.47974 73.2958 3.43194 73.4821 3.43672C74.2655 3.44628 75.0489 3.44628 75.8324 3.43672C76.0473 3.43194 76.0712 3.49408 76.0378 3.69484C75.6461 6.01793 75.2639 8.34101 74.8817 10.6641C74.8053 11.123 74.7384 11.5866 74.7671 12.0551C74.8053 12.7099 75.1923 13.078 75.7512 13.2979C76.1811 13.4652 76.6349 13.5082 77.0983 13.5082C78.197 13.5082 79.2957 13.5226 80.3944 13.5082C80.6906 13.5034 80.8196 13.5321 80.7384 13.8811C80.6237 14.3447 80.5616 14.8179 80.4995 15.2912C80.4709 15.4919 80.3992 15.5588 80.1938 15.5541C79.6779 15.5445 79.1667 15.5541 78.6556 15.5541Z" fill="#9F9F9F"/>
<path d="M174.937 71.227C174.956 71.2462 174.97 71.2607 174.99 71.2751C174.994 71.2751 175.004 71.2655 175.014 71.2607C174.99 71.2462 174.966 71.2366 174.942 71.2222L174.937 71.227Z" fill="#9F9F9F"/>
<path d="M174.947 71.2272C174.918 71.2272 174.879 71.232 174.865 71.2176C174.85 71.1984 174.865 71.1888 174.894 71.208C174.908 71.2176 174.927 71.2224 174.942 71.232C174.937 71.2272 174.947 71.2272 174.947 71.2272Z" fill="#9F9F9F"/>
</svg>
