<svg width="269" height="44" viewBox="0 0 269 44" fill="none" xmlns="http://www.w3.org/2000/svg">
<g clip-path="url(#clip0_15_52)">
<path d="M40.0351 42.4465V41.6948C47.2824 41.6948 51.6308 37.385 60.5775 24.5057L48.0821 6.36446C45.9329 3.20729 44.6834 1.95444 41.0347 1.95444V1.25285H67.8748V2.00456C64.8259 2.00456 64.3261 3.20729 64.3261 4.71071C64.3261 5.91344 64.9758 7.01594 65.6256 8.16856L71.6234 16.9886C75.6219 11.2756 78.3709 7.16629 78.3709 4.66059C78.3709 2.75626 76.8714 2.05467 74.3224 2.05467V1.25285H89.7167V2.00456C84.1687 2.00456 81.3198 5.01139 72.2731 17.8405L85.3183 36.9841C87.5675 40.2415 89.8666 41.7449 92.6656 41.7449V42.4966H66.9751V41.7449C69.2742 41.7449 70.1239 40.8929 70.1239 39.4897C70.1239 38.5376 69.4242 37.2346 68.4246 35.8815L61.2272 25.4579C56.0792 32.9248 54.6797 35.3303 54.6797 37.4351C54.6797 39.9408 56.6789 41.7449 60.1776 41.7449V42.4966L40.0351 42.4465ZM233.963 18.2916C234.363 6.16401 236.712 2.90661 239.561 2.90661C242.41 2.90661 245.259 5.56264 245.159 18.2916H233.963ZM218.269 21.8497C218.269 39.4897 236.212 48.41 251.706 40.6925L251.207 40.1913C241.06 43.6492 233.863 36.0319 233.863 21.8497C233.863 21.1982 233.863 20.5467 233.863 19.9453H258.704C258.704 7.5672 251.706 0 239.511 0C228.065 0 218.269 9.92255 218.269 21.8497ZM144.396 5.31207V4.61048L163.539 0V6.76538C167.788 3.55809 172.286 0.0501139 177.134 0.0501139C182.282 0.0501139 185.681 2.50569 186.931 7.11617C191.329 3.85877 195.977 0.0501139 200.975 0.0501139C207.623 0.0501139 211.321 4.10934 211.321 11.6765V37.5353C211.321 41.0934 212.071 41.7449 214.52 41.7449V42.4966H193.678V41.7449C195.877 41.7449 196.727 40.6925 196.727 38.0364V9.52164C196.727 4.41002 191.579 5.0615 187.23 8.36902C187.43 9.47153 187.53 10.574 187.48 11.6765V37.5353C187.48 41.0934 188.23 41.7449 190.679 41.7449V42.4966H169.837V41.7449C172.086 41.7449 172.886 40.6925 172.886 38.0364V9.52164C172.886 4.46014 167.888 5.0615 163.539 8.21868V38.738C163.539 41.0433 164.939 41.7449 166.738 41.7449V42.4966H144.396V41.7449C147.445 41.7449 148.895 39.5399 148.895 36.1321V10.123C148.895 6.91572 145.796 5.31207 144.396 5.31207ZM109.509 31.9727C109.509 26.7608 111.808 21.6993 119.306 19.9954L119.356 32.4738C119.106 35.6811 116.657 37.4852 114.357 37.4351C111.658 37.4351 109.509 35.7312 109.509 31.9727ZM94.3649 34.1276C94.3649 41.795 101.762 43.6993 105.211 43.6993C111.409 43.6993 117.556 40.1913 119.506 35.3804C120.255 41.0934 123.654 43.6993 130.002 43.6993C135.6 43.6993 139.198 41.3941 141.497 37.0843L140.948 36.6834C137.899 39.3394 133.95 37.3349 133.95 31.9727V12.3781C133.95 2.45558 121.355 -2.65604 109.909 1.40319L110.009 2.10478C116.457 2.1549 119.206 6.51481 119.206 14.1321V19.1435C100.713 21.3986 94.3649 26.3599 94.3649 34.1276ZM15.6442 18.2916C16.044 6.16401 18.3932 2.90661 21.2921 2.90661C24.191 2.90661 26.99 5.56264 26.89 18.2916H15.6442ZM0 21.8497C0 41.0934 21.392 50.2141 37.636 38.4374L37.1362 37.9362C24.6408 45.3531 15.5942 37.9863 15.5942 21.8497C15.5942 21.1982 15.5942 20.5467 15.5942 19.9453H40.485C40.485 7.5672 33.4876 0 21.2921 0C9.79636 0 0 9.92255 0 21.8497ZM104.311 16.1868C107.66 16.2369 110.409 13.5809 110.459 10.2232C110.459 10.1731 110.459 10.0729 110.459 10.0228C110.459 6.61503 107.71 3.85877 104.311 3.85877C100.912 3.85877 98.1635 6.61503 98.1635 10.0228C98.1135 13.4305 100.912 16.1868 104.311 16.1868ZM262.802 44C266.151 44.0501 268.9 41.3941 268.95 38.0364C268.95 37.9863 268.95 37.8861 268.95 37.836C268.95 34.4282 266.201 31.672 262.802 31.6219C259.404 31.6219 256.655 34.3781 256.605 37.7859C256.555 41.1936 259.404 44 262.802 44Z" fill="#9F9F9F"/>
</g>
<defs>
<clipPath id="clip0_15_52">
<rect width="269" height="44" fill="white"/>
</clipPath>
</defs>
</svg>
