<svg width="124" height="66" viewBox="0 0 124 66" fill="none" xmlns="http://www.w3.org/2000/svg">
<g clip-path="url(#clip0_417_188)">
<path d="M0.782623 37.2337H10.1022L15.3197 11.4681H5.99893L0.782623 37.2337Z" fill="#9F9F9F"/>
<path d="M6.82291 7.42244H16.1387L17.6419 0H8.31488L6.82291 7.42244Z" fill="#9F9F9F"/>
<path d="M13.7887 44.4891H23.1083L28.7636 16.6044H35.5644L36.6349 11.4686H29.7766L30.0116 10.2779C30.4506 8.08121 31.1622 5.5262 34.6764 5.5262C36.7587 5.5262 38.7547 5.75276 40.6905 6.56913L41.7511 1.14268C39.596 0.384385 37.324 -0.00217209 35.0353 9.17995e-06C27.5455 9.17995e-06 22.3867 4.47219 20.4983 11.4686H17.2616L16.25 16.6044H19.4389L13.7887 44.4891Z" fill="#9F9F9F"/>
<path d="M43.3133 37.8083C54.3186 37.8083 61.9549 27.7263 61.9549 19.5022C61.9549 13.5131 56.3097 10.894 50.9432 10.894C38.8673 10.894 32.2967 21.7359 32.2967 29.2014C32.2967 35.1905 37.9994 37.8083 43.3133 37.8083Z" fill="#9F9F9F"/>
<path d="M72.7143 37.8083C83.7196 37.8083 91.3559 27.7263 91.3559 19.5022C91.3559 13.5131 85.6994 10.894 80.338 10.894C68.2684 10.894 61.6877 21.7359 61.6877 29.2014C61.6877 35.1905 67.3966 37.8083 72.7092 37.8083" fill="#9F9F9F"/>
<path d="M106.508 37.2331H115.775L123.218 0.574097H113.897L111.676 11.4676C110.438 11.1991 109.177 11.0543 107.91 11.0354C98.7807 11.0354 90.4779 22.6825 90.4779 31.0064C90.4779 34.4307 92.6976 37.807 96.4657 37.807C101.821 37.807 105.528 35.178 107.075 32.7142H107.652L106.508 37.2331Z" fill="#9F9F9F"/>
<path d="M77.7964 56.6519C70.9806 62.4724 61.8687 65.4608 51.9651 64.8439C39.4777 64.0743 30.8197 54.3777 29.0788 44.5419H29.6716C32.4805 50.8215 39.3188 56.6199 47.9006 57.5729C56.2797 58.5001 66.5471 54.7028 72.1812 49.2823L65.8605 44.4877L84.6298 44.5419L80.5903 64.4696L77.7964 56.6519Z" fill="#9F9F9F"/>
</g>
<defs>
<clipPath id="clip0_417_188">
<rect width="122.435" height="66" fill="white" transform="translate(0.782623)"/>
</clipPath>
</defs>
</svg>
