<svg width="231" height="29" viewBox="0 0 231 29" fill="none" xmlns="http://www.w3.org/2000/svg">
<path d="M22.5284 0.703003L0 13.2558H45.0569L22.5284 0.703003ZM40.7549 16.6198C39.5208 16.0161 38.1572 15.7039 36.7765 15.7039C35.3957 15.7039 34.0321 16.0161 32.7981 16.6198C31.8272 17.1028 30.7484 17.3526 29.6524 17.3526C28.5564 17.3526 27.482 17.1028 26.5068 16.6198C25.2728 16.0161 23.9092 15.7039 22.5284 15.7039C21.1476 15.7039 19.7841 16.0161 18.55 16.6198C17.5749 17.1028 16.5004 17.3526 15.4044 17.3526C14.3084 17.3526 13.234 17.1028 12.2588 16.6198C11.0247 16.0161 9.66121 15.7039 8.28042 15.7039C6.89963 15.7039 5.5361 16.0161 4.30202 16.6198C3.72382 16.9196 3.09815 17.1319 2.4509 17.2527L4.68605 18.5017C4.84139 18.4351 4.99242 18.3643 5.13481 18.2977C6.10999 17.8147 7.18442 17.5649 8.28042 17.5649C9.37642 17.5649 10.4508 17.8147 11.426 18.2977C12.6601 18.9014 14.0236 19.2136 15.4044 19.2136C16.7852 19.2136 18.1487 18.9014 19.3828 18.2977C20.358 17.8147 21.4324 17.5649 22.5284 17.5649C23.6244 17.5649 24.6989 17.8147 25.674 18.2977C26.9081 18.9014 28.2717 19.2136 29.6524 19.2136C31.0332 19.2136 32.3968 18.9014 33.6308 18.2977C34.606 17.8147 35.6805 17.5649 36.7765 17.5649C37.8725 17.5649 38.9469 17.8147 39.9221 18.2977C40.0688 18.3643 40.2155 18.4309 40.3708 18.5017L42.606 17.2527C41.9587 17.1361 41.3331 16.9196 40.7549 16.6198ZM32.7937 21.0705C31.8186 21.5535 30.7441 21.8033 29.6481 21.8033C28.5564 21.8033 27.4777 21.5535 26.5025 21.0705C25.2684 20.4668 23.9049 20.1546 22.5241 20.1546C21.1433 20.1546 19.7798 20.4668 18.5457 21.0705C17.5705 21.5535 16.4961 21.8033 15.4001 21.8033C14.3084 21.8033 13.2297 21.5535 12.2545 21.0705C11.0291 20.4419 9.66121 20.1296 8.2761 20.1587C8.06036 20.1587 7.85755 20.1587 7.66338 20.1754L12.5911 22.9274C13.4368 23.4062 14.3947 23.6602 15.3699 23.6685H15.3958C16.7809 23.7018 18.1531 23.3854 19.3742 22.7567C20.3494 22.2738 21.4238 22.024 22.5198 22.024C23.6158 22.024 24.6902 22.2738 25.6654 22.7567C26.8866 23.3854 28.2587 23.6977 29.6438 23.6685H29.6654C30.6449 23.6602 31.6028 23.4021 32.4442 22.9274L37.3719 20.1754C37.1691 20.1629 36.9663 20.1587 36.7635 20.1587C35.3827 20.1296 34.0149 20.4419 32.7937 21.0705ZM27.5899 25.642L22.5284 28.469L27.5899 25.642ZM17.467 25.642L22.5284 28.469L27.5899 25.642C26.0236 24.8759 24.2889 24.4721 22.5284 24.4721C20.7679 24.4721 19.0376 24.8759 17.467 25.642Z" fill="#9F9F9F"/>
<path d="M75.9477 21.5743C75.1279 23.452 72.7935 27.8236 68.7978 27.8236H64.4268C62.5541 27.8236 62.3599 26.7287 62.3211 23.8351V5.37855C62.3599 2.45166 62.5541 1.34835 64.4268 1.34835H64.7418V0.586438H55.9479V1.34418H56.2629C58.1787 1.34418 58.3686 2.50995 58.3686 5.37439V23.8351C58.3686 26.6704 58.1787 27.8236 56.2629 27.8236H55.9479V28.5814H75.0632L76.7288 21.7325L76.8107 21.387H76.0254L75.9477 21.5743ZM99.4125 1.34835H99.7275C101.643 1.34835 101.833 2.51411 101.833 5.37855V19.7591C101.833 23.5811 100.405 28.1401 93.5916 28.1401C89.993 28.1401 87.5766 24.9634 87.5766 20.2337V5.37439C87.6197 2.25181 87.8916 1.34418 89.6823 1.34418H89.9973V0.582275H81.1991V1.34002H81.514C83.4299 1.34002 83.6198 2.50578 83.6198 5.37023V19.7549C83.6198 26.5621 88.9919 28.9769 93.5916 28.9769C95.8441 29.0685 98.0533 28.3649 99.8138 27.0034C100.806 26.0708 101.574 24.9342 102.066 23.681C102.554 22.4278 102.752 21.0872 102.644 19.7507V5.36606C102.644 2.50162 102.834 1.33586 104.75 1.33586H105.065V0.578111H99.4212L99.4125 1.34835ZM127.326 16.3617H127.641C129.423 16.3617 129.708 17.2735 129.747 20.3877V26.3873C128.189 27.3157 126.437 27.8986 124.616 28.0984C122.67 28.2566 120.733 27.7362 119.149 26.6371C117.384 25.3131 115.939 23.6352 114.908 21.72C113.876 19.8049 113.289 17.6982 113.186 15.5415C112.556 8.09311 116.621 1.60232 122.26 1.0694C124.237 0.944494 126.208 1.39415 127.921 2.3559C129.151 3.13446 130.191 4.16283 130.968 5.37023C131.745 6.57762 132.241 7.93074 132.422 9.33798V9.62526H133.143V9.45456H133.13L131.973 1.58566C131.986 1.58566 131.995 1.57734 132.003 1.56901L131.96 1.49823L131.917 1.42745C131.602 1.60648 131.076 1.52737 130.312 1.34418C127.676 0.603092 124.936 0.257526 122.187 0.315815C118.321 0.615582 114.722 2.34757 112.142 5.14124C110.843 6.62342 109.872 8.34708 109.289 10.2081C108.707 12.0692 108.526 14.0218 108.759 15.9495C108.871 17.9896 109.449 19.9839 110.455 21.7825C111.46 23.5811 112.867 25.1424 114.575 26.354C117.54 28.3066 121.121 29.1976 124.694 28.8728C125.578 28.7854 126.459 28.6397 127.326 28.444L127.399 28.4315C129.419 28.0235 131.706 27.5613 132.56 28.1026C132.664 28.165 132.75 28.2566 132.806 28.3649C132.862 28.4731 132.884 28.5897 132.875 28.7105V28.9936H133.686V20.3961C133.686 17.5316 133.876 16.37 135.792 16.37H136.107V15.6123H127.322L127.326 16.3617ZM188.784 1.34835H189.099C191.718 1.34835 193.544 4.27941 193.544 8.47615V22.2238L177.272 0.698851L177.177 0.586438H170.303V1.34418H170.618C171.77 1.34418 173.164 2.34757 174.756 4.32937V20.7C174.756 24.8926 172.944 27.8236 170.355 27.8236H170.04V28.5814H180.322V27.8236H180.007C177.393 27.8236 175.563 24.8926 175.563 20.7V5.35357C177.276 7.55187 182.312 14.1218 186.389 19.4385L187.235 20.5418C190.575 24.9009 193.211 28.3399 193.341 28.4856L193.436 28.5939H194.355V8.47199C194.355 4.27524 196.167 1.34418 198.756 1.34418H199.071V0.586438H188.788L188.784 1.34835ZM230.911 13.2683C230.795 11.1699 230.191 9.12565 229.142 7.28541C228.093 5.44517 226.631 3.85474 224.862 2.63069C222.519 1.03609 219.753 0.124296 216.887 0.0118837C214.022 -0.100529 211.187 0.586438 208.719 1.99368C206.251 3.40092 204.258 5.46599 202.976 7.93907C201.694 10.4121 201.181 13.1933 201.496 15.9412C201.643 19.4884 203.231 22.84 205.919 25.2715C208.603 27.7029 212.171 29.0144 215.852 28.9311C216.387 28.9311 216.918 28.9061 217.44 28.8562C221.315 28.5772 224.922 26.8536 227.507 24.0516C228.805 22.5694 229.772 20.8499 230.359 18.9972C230.941 17.1444 231.131 15.1959 230.911 13.2683ZM217.384 28.0984C217.168 28.1192 216.944 28.1276 216.698 28.1276C214.954 28.1026 213.259 27.5613 211.843 26.5746C210.091 25.2548 208.659 23.5853 207.645 21.6784C206.626 19.7716 206.048 17.6773 205.953 15.5373C205.28 8.05564 209.354 1.56901 215.032 1.0694C215.278 1.04442 215.528 1.03193 215.766 1.03193C217.479 1.05691 219.144 1.58566 220.538 2.55158C222.298 3.87139 223.74 5.54925 224.762 7.46027C225.785 9.37545 226.367 11.478 226.462 13.6305C227.127 21.0747 223.058 27.5655 217.379 28.0984H217.384ZM165.328 27.8236C163.183 27.8236 162.126 25.1632 161.194 22.815L161.173 22.7567C160.262 20.5668 154.631 5.4535 152.927 0.873715L152.815 0.582275H152.029L143.865 21.9407C142.476 25.5837 140.771 27.4031 138.351 27.8278L138.096 27.8694V28.5897H146.886V27.832H146.571C146.346 27.8361 146.122 27.7903 145.915 27.7029C145.708 27.6155 145.522 27.4822 145.376 27.3199C144.323 26.1999 144.236 23.3604 145.181 20.7208C145.272 20.4752 145.544 19.7549 145.919 18.7807L146.976 16.0203C148.124 13.006 149.6 9.1423 150.752 6.12797C151.317 7.64763 152.638 11.1491 154.014 14.8171L154.799 16.9071H149.419L149.147 17.6732H152.81C154.955 17.6732 156.012 20.3336 156.948 22.6818L156.97 22.7401C157.022 22.8692 157.095 23.044 157.177 23.2605C157.388 23.8267 157.561 24.2931 157.669 24.597C158.277 26.279 158.402 27.1866 158.074 27.5405C157.889 27.7404 157.522 27.8278 156.888 27.8278H156.573V28.5856H165.639V27.8278L165.328 27.8236Z" fill="#9F9F9F"/>
</svg>
