<svg width="222" height="76" viewBox="0 0 222 76" fill="none" xmlns="http://www.w3.org/2000/svg">
<g clip-path="url(#clip0_417_190)">
<path d="M44.2354 25.1543C45.3064 13.6742 38.8938 3.23897 27.4006 0.535475C26.7999 0.391811 26.0293 0.666078 25.5461 0C23.4433 0 21.3537 0 19.251 0C19.0551 0.182845 18.82 0.195905 18.5718 0.195905C8.78962 0.169785 -0.0783622 10.8532 0.195905 19.1465C0.130604 19.1595 0.0653018 19.1726 0 19.1857C0 19.7995 0 20.4133 0 21.0272C0 22.8687 0 24.7102 0 26.5648C0.404871 26.7868 0.313449 27.1917 0.37875 27.5312C2.80798 41.2054 16.1557 49.2245 29.3597 44.7448C38.6456 41.5842 43.3473 34.6622 44.2354 25.1543ZM3.33039 22.9862C3.33039 11.676 11.3103 3.30427 22.1112 3.27815C32.9252 3.25203 40.9573 11.5845 41.0226 22.8687C41.0748 34.2573 33.0558 42.6682 22.1373 42.6551C11.2842 42.6421 3.34345 34.3357 3.33039 22.9862Z" fill="#9F9F9F"/>
<path d="M141.718 0.444052C141.757 0.300388 141.796 0.143664 141.822 0C140.347 0 138.858 0 137.382 0C137.395 0.143664 137.421 0.274268 137.434 0.417931C137.421 10.0042 137.552 19.5905 137.343 29.1768C137.082 40.9834 125.549 43.9873 118.497 40.2912C113.873 37.875 111.901 33.8133 111.862 28.7981C111.784 19.3293 111.81 9.86057 111.797 0.404871C109.093 0.391811 106.194 0.339569 103.49 0.313449C103.49 0.313449 103.477 0.796682 103.477 1.03177C103.464 10.3046 103.32 19.5905 103.503 28.8634C103.673 37.5485 108.714 43.3865 117.204 45.228C120.56 45.9463 123.943 45.8549 127.325 45.3717C135.958 44.131 141.587 38.1493 141.731 29.5817C141.888 19.8648 141.731 10.161 141.718 0.444052Z" fill="#9F9F9F"/>
<path d="M175.388 20.8574C175.087 13.1649 168.87 9.32511 161.609 11.9502C159.441 12.7339 157.521 13.9485 155.784 15.4374C155.379 15.7769 154.987 16.1426 154.282 16.7695C154.282 15.4243 154.204 14.4578 154.295 13.5175C154.426 12.1984 154.086 11.6107 152.61 11.7413C151.148 11.8849 149.646 11.8588 148.17 11.7413C146.89 11.6499 146.511 12.0155 146.524 13.3346C146.589 20.6484 146.563 27.9622 146.563 35.2891C146.563 38.2407 146.629 41.1924 146.537 44.144C146.498 45.4631 146.916 45.8549 148.196 45.7504C149.541 45.646 150.926 45.6198 152.271 45.7504C153.838 45.9072 154.373 45.5023 154.347 43.7914C154.23 37.64 154.609 31.4755 154.191 25.3502C153.916 21.5104 155.666 19.6559 158.631 18.0756C164.299 15.0586 167.721 17.0438 167.734 23.4564C167.734 30.4045 167.76 37.3526 167.708 44.3007C167.695 45.3978 167.943 45.8288 169.132 45.7504C170.856 45.646 172.593 45.6982 174.317 45.7374C175.139 45.7635 175.544 45.5807 175.531 44.6403C175.466 36.7127 175.701 28.772 175.388 20.8574Z" fill="#9F9F9F"/>
<path d="M221.033 31.2665C219.584 30.5351 218.852 30.7441 218.434 32.3505C218.239 33.108 217.781 33.8002 217.39 34.4924C213.733 41.0357 205.413 41.5711 201.064 35.4719C198.047 31.2534 197.185 26.4734 198.256 21.4451C199.236 16.7956 202.788 13.9746 207.111 14.066C210.246 14.1313 211.669 15.4112 211.8 18.5065C211.891 20.5831 212.766 22.0459 214.699 22.7773C216.58 23.4956 219.114 22.6989 220.38 21.1055C221.451 19.7603 221.491 17.736 220.446 15.9075C219.257 13.8309 217.377 12.6033 215.209 11.7543C203.075 6.93505 190.498 15.4373 190.381 28.7067C190.302 29.7515 190.511 30.9661 190.733 32.1807C192.444 41.7801 202.462 48.0229 211.408 44.9929C217.207 43.0339 220.119 38.515 221.882 32.9905C222.209 31.9718 221.909 31.7106 221.033 31.2665Z" fill="#9F9F9F"/>
<path d="M97.3389 40.8136C96.4508 40.6438 96.3855 41.532 96.2549 42.198C95.628 45.4109 94.6876 48.5192 93.1073 51.3925C86.76 62.9118 77.1606 69.9382 63.8652 70.7872C49.7338 71.6753 38.3844 66.3075 30.6396 54.1874C29.8952 53.0251 28.9809 52.4243 27.6357 52.4243C26.5256 52.4243 25.4155 52.359 24.3053 52.4504C22.6728 52.5941 22.294 53.3255 23.0123 54.8013C23.2213 55.2453 23.4695 55.6633 23.7307 56.0812C31.8673 69.024 43.8959 75.0187 56.3946 75.6326C70.6565 75.6456 81.5489 70.7088 89.1892 61.8147C93.9954 56.2118 96.8556 49.7208 97.809 42.407C97.8874 41.8323 98.1094 40.9573 97.3389 40.8136Z" fill="#9F9F9F"/>
<path d="M69.4681 46.4818C73.5298 46.7169 76.9386 45.3456 79.8641 42.0935C80.1776 45.868 80.1776 45.8157 82.5415 45.7504C83.5602 45.7243 83.5471 45.3586 83.4296 44.5358C83.0508 41.8585 82.9072 39.155 82.9464 36.4515C82.9855 32.886 83.0247 29.3205 82.9202 25.755C82.8158 22.0328 81.5489 18.8069 77.9442 17.1352C73.138 14.9019 68.4885 15.581 64.035 18.2976C63.0293 18.9114 63.4081 19.4861 63.9566 20.0215C64.479 20.5309 64.5182 22.072 65.9157 21.0272C67.0127 20.2044 68.2535 19.6689 69.5856 19.3424C74.5616 18.1017 78.6364 20.2958 79.4723 24.658C80.0339 27.5835 79.9033 27.7141 76.9517 27.7663C73.2556 27.8447 69.5334 27.91 66.0854 29.5295C63.4734 30.7571 61.3968 32.4942 60.7176 35.4589C59.3855 41.2969 63.2252 46.1161 69.4681 46.4818ZM65.4063 33.8002C66.9997 32.2983 69.011 31.7106 71.1006 31.3971C72.7985 31.149 74.5224 30.9139 75.9852 31.0053C80.0861 30.9531 80.0992 30.9661 79.4723 34.845C79.198 36.5559 78.754 38.2016 77.7745 39.6643C75.3714 43.2559 69.9513 44.4705 66.2552 42.2241C63.3558 40.4479 62.9118 36.138 65.4063 33.8002Z" fill="#9F9F9F"/>
<path d="M186.907 11.036C185.496 10.4091 180.808 11.7021 179.828 12.9951C179.58 13.3216 179.619 13.6873 179.619 14.0399C179.619 24.2401 179.632 34.4271 179.593 44.6273C179.593 45.5284 179.893 45.7897 180.755 45.7505C182.414 45.6982 184.086 45.646 185.744 45.7635C187.05 45.855 187.403 45.437 187.377 44.1441C187.299 38.9199 187.351 33.7088 187.351 28.4847C187.351 23.143 187.364 17.8013 187.338 12.4596C187.338 11.9764 187.651 11.3625 186.907 11.036Z" fill="#9F9F9F"/>
<path d="M89.4112 45.7243C90.2732 45.7635 91.0699 45.9072 91.0699 44.4967C91.0046 29.8168 91.0046 15.137 90.9915 0.444086C89.9206 0.417965 88.8496 0.404905 87.7787 0.378784C87.7526 15.1239 87.7264 29.856 87.6611 44.6012C87.6611 46.1031 88.6276 45.6852 89.4112 45.7243Z" fill="#9F9F9F"/>
<path d="M47.3177 44.0656C47.3307 45.4892 47.7487 45.7373 49.0808 45.7765C50.5828 45.8288 50.7656 45.241 50.7395 43.9611C50.6742 39.4161 50.7003 34.8711 50.7134 30.313C50.7264 27.6879 51.288 25.1803 52.6594 22.9209C53.9915 20.7137 55.8461 19.0942 58.5888 19.1203C60.4434 19.1334 59.7903 17.8796 59.9079 16.9784C60.0907 15.6985 59.2287 15.7899 58.3929 15.8422C55.2714 16.025 52.79 17.4617 50.4914 20.126C50.4391 19.0028 50.3999 18.3367 50.3738 17.6706C50.2824 15.7638 48.8327 16.8478 47.9968 16.6389C46.9651 16.3907 46.9781 17.1351 47.0304 17.8665C47.6573 26.617 47.2654 35.3413 47.3177 44.0656Z" fill="#9F9F9F"/>
<path d="M184.438 0.326509C184.399 0.222026 184.399 0.117543 184.412 0C183.798 0 183.172 0 182.558 0C182.532 0.104483 182.519 0.195905 182.519 0.300388C179.893 0.744441 178.326 4.11401 180.259 6.47794C181.369 7.83622 183.067 8.33251 184.713 7.77091C186.319 7.22238 187.364 5.85104 187.403 4.20544C187.481 2.37699 186.606 1.22767 184.438 0.326509Z" fill="#9F9F9F"/>
<path d="M145.101 57.2435C145.179 55.7808 145.127 54.305 145.114 52.8291C145.114 52.4634 145.127 52.0325 144.617 52.0063C144.095 51.9802 144.095 52.4243 144.095 52.7899C144.095 54.3833 144.095 55.9636 144.095 57.557C143.977 57.5831 143.873 57.6092 143.755 57.6353C142.606 55.9767 141.457 54.3311 140.321 52.6593C140.033 52.2414 139.746 51.8757 139.145 51.9672C138.401 52.0847 138.597 52.6724 138.583 53.1165C138.57 54.8927 138.57 56.6689 138.583 58.4581C138.583 58.8761 138.518 59.4377 139.119 59.4377C139.772 59.4246 139.563 58.8238 139.576 58.4451C139.602 56.904 139.589 55.3628 139.589 53.8217C140.843 55.1669 141.744 56.5513 142.75 57.8574C143.259 58.5234 143.481 59.8687 144.683 59.3985C145.584 59.0589 145.061 57.988 145.101 57.2435Z" fill="#9F9F9F"/>
<path d="M216.711 55.8461C216.867 55.9244 217.024 56.0942 217.168 56.0812C218.226 55.9767 218.487 56.473 218.487 57.4656C218.487 58.4973 217.938 58.6932 217.142 58.7846C215.822 58.9283 214.673 58.6279 213.994 57.4002C213.276 56.1073 213.328 54.7882 214.281 53.6258C215.169 52.5418 216.384 52.4896 217.651 52.8422C218.108 52.9728 218.683 53.7695 218.97 52.8814C219.179 52.2414 218.382 52.1108 217.886 51.9541C216.227 51.4186 214.425 51.9149 213.38 53.1818C212.335 54.4617 212.231 56.5905 213.158 58.001C214.085 59.4115 215.849 60.0384 217.716 59.6205C219.27 59.2809 220.015 57.8051 219.296 55.8852C218.787 54.5792 217.638 55.4543 216.711 55.8461Z" fill="#9F9F9F"/>
<path d="M206.628 52.79C206.628 52.5027 206.68 52.1109 206.302 52.0586C205.766 51.9803 205.766 52.4243 205.766 52.79C205.753 54.3703 205.766 55.9637 205.766 57.7138C205.074 57.4787 204.943 57.0346 204.695 56.6951C203.742 55.3368 202.801 53.9785 201.861 52.6202C201.561 52.1892 201.234 51.8497 200.659 52.0195C200.072 52.2023 200.281 52.7247 200.281 53.1035C200.255 54.8144 200.255 56.5383 200.281 58.2493C200.294 58.6541 200.006 59.4247 200.751 59.3724C201.404 59.3202 201.103 58.5758 201.117 58.1448C201.156 56.7081 201.13 55.2584 201.13 53.3908C201.743 54.2005 202.122 54.6446 202.449 55.1278C203.324 56.3816 204.199 57.6485 205.061 58.9153C205.335 59.3202 205.648 59.5161 206.132 59.4639C206.785 59.3855 206.641 58.8762 206.641 58.4843C206.641 56.6036 206.641 54.6968 206.628 52.79Z" fill="#9F9F9F"/>
<path d="M168.596 52.0586C167.891 52.0977 168.126 52.8552 168.191 53.2601C168.426 54.8404 167.773 55.18 166.258 55.18C164.717 55.1669 163.868 54.8926 164.208 53.1687C164.234 53.0511 164.221 52.9205 164.208 52.803C164.182 52.4504 164.247 51.9932 163.686 52.0455C163.255 52.0847 163.32 52.4634 163.307 52.7507C163.294 53.7303 163.307 54.7229 163.307 55.7024C163.307 56.2509 163.215 56.8256 163.333 57.3611C163.477 58.0533 162.758 59.2809 163.816 59.3332C164.561 59.3724 164.09 58.1055 164.221 57.4394C164.325 56.9039 163.921 56.0811 164.952 56.0681C165.932 56.055 167.042 55.833 167.865 56.1987C168.583 56.5252 168.074 57.6484 168.178 58.4059C168.231 58.7977 168.022 59.4246 168.635 59.4246C169.38 59.4246 169.171 58.7324 169.171 58.2883C169.197 56.6297 169.21 54.971 169.158 53.3123C169.145 52.8552 169.497 52.0194 168.596 52.0586Z" fill="#9F9F9F"/>
<path d="M118.993 56.264C120.691 55.0624 121.109 54.1221 120.469 53.0119C119.986 52.163 117.282 51.5361 116.224 52.0063C115.976 52.1108 115.832 52.2675 115.832 52.5418C115.832 54.6837 115.832 56.8256 115.845 58.9675C115.845 59.2287 115.963 59.4376 116.276 59.4376C116.616 59.4376 116.655 59.1764 116.655 58.9413C116.681 58.2753 116.655 57.5961 116.681 56.917C116.694 56.6427 116.577 56.277 116.995 56.1725C117.373 56.0811 117.752 56.1203 117.974 56.4729C118.405 57.139 118.797 57.8312 119.228 58.4973C119.541 58.9805 119.698 59.6988 120.795 59.3332C120.482 58.7716 120.221 58.3014 119.946 57.8312C119.633 57.3088 119.306 56.7864 118.993 56.264ZM117.778 55.2975C116.616 55.5195 116.681 54.7751 116.629 53.9915C116.577 53.0511 116.864 52.6463 117.844 52.7638C118.719 52.8683 119.672 52.8813 119.633 54.0698C119.62 55.2714 118.601 55.2061 117.778 55.2975Z" fill="#9F9F9F"/>
<path d="M130.342 52.6724C130.042 51.9541 129.415 51.5753 129.023 52.359C127.952 54.4878 127.077 56.7211 126.124 58.9022C125.941 59.3201 126.137 59.4507 126.568 59.4899C126.672 59.4246 126.934 59.3724 126.96 59.2548C127.312 58.0141 128.057 57.5831 129.389 57.6223C130.656 57.6615 131.688 57.7006 132.04 59.1634C132.106 59.4377 132.51 59.5944 132.811 59.3985C133.15 59.1765 132.954 58.85 132.837 58.5888C132.001 56.6166 131.165 54.6445 130.342 52.6724ZM128.044 56.7734C128.527 55.6241 128.945 54.5923 129.428 53.443C130.277 54.4094 130.486 55.5457 130.956 56.7734C129.911 56.7734 129.115 56.7734 128.044 56.7734Z" fill="#9F9F9F"/>
<path d="M185.274 55.3759C184.987 55.2714 184.7 55.1669 184.412 55.0624C183.72 54.8274 183.145 54.4486 183.341 53.6127C183.563 52.6985 184.334 52.6202 185.104 52.7116C185.457 52.7508 185.771 52.9597 186.123 53.0773C186.397 53.1687 186.567 52.9989 186.724 52.7899C186.881 52.581 186.763 52.4373 186.633 52.3328C185.849 51.7321 184.987 51.5753 184.034 51.8496C183.041 52.1239 182.401 52.7377 182.283 53.7434C182.179 54.6053 182.545 55.3106 183.354 55.7024C183.955 55.9897 184.608 56.1987 185.222 56.4599C185.784 56.695 186.149 57.0999 186.032 57.7398C185.914 58.4451 185.366 58.7716 184.713 58.8108C184.308 58.8369 183.851 58.7455 183.472 58.5757C183.093 58.4059 182.688 57.9618 182.388 58.4973C182.022 59.1634 182.727 59.2809 183.132 59.4638C183.511 59.6336 183.942 59.7119 184.256 59.7903C185.601 59.6728 186.737 59.3854 187.024 57.9749C187.312 56.5644 186.515 55.8069 185.274 55.3759Z" fill="#9F9F9F"/>
<path d="M156.254 58.419C155.105 59.0459 154.008 59.0067 153.002 58.1709C151.827 57.1914 151.605 55.3498 152.454 53.9785C153.263 52.6594 154.465 52.3329 156.11 53.0773C156.528 53.2602 156.933 53.5736 157.181 53.0512C157.443 52.5288 156.842 52.3329 156.528 52.1631C155.301 51.5362 154.047 51.5493 152.832 52.2545C151.474 53.0512 150.952 54.292 150.952 55.807C150.965 57.3089 151.618 58.5235 152.793 59.1896C154.06 59.921 155.379 59.9601 156.659 59.2418C157.012 59.0459 157.743 58.8239 157.299 58.1839C156.907 57.6223 156.581 58.2492 156.254 58.419Z" fill="#9F9F9F"/>
<path d="M107.199 55.3106C106.05 55.3237 106.364 54.5401 106.311 53.9132C106.259 53.234 106.337 52.7508 107.252 52.7508C108.166 52.7638 109.132 52.9859 110.007 52.5679C109.994 52.372 109.994 52.1631 109.981 51.9672C108.832 51.9672 107.696 52.0194 106.546 51.9541C105.632 51.9019 105.384 52.2675 105.41 53.1165C105.462 54.6445 105.384 56.1726 105.449 57.7007C105.475 58.2753 105.058 59.3201 105.946 59.3201C106.638 59.3201 106.337 58.2884 106.285 57.766C106.115 56.3554 106.664 55.9114 108.035 56.0681C108.623 56.1334 109.341 56.3032 110.06 55.5457C108.976 55.1408 108.061 55.2976 107.199 55.3106Z" fill="#9F9F9F"/>
<path d="M193.959 52.6332C193.959 52.2937 193.829 52.0194 193.45 52.0194C193.058 52.0325 192.993 52.3459 192.98 52.6594C192.98 54.6837 192.98 56.7081 192.98 58.7194C192.98 59.0198 192.993 59.3855 193.385 59.4116C193.881 59.4508 193.959 59.072 193.959 58.6802C193.959 57.7007 193.959 56.7211 193.959 55.7416C193.959 55.7416 193.959 55.7416 193.946 55.7416C193.959 54.7098 193.959 53.6781 193.959 52.6332Z" fill="#9F9F9F"/>
<path d="M176.302 52.6464C176.302 52.346 176.263 52.0064 175.832 52.0456C175.531 52.0717 175.466 52.3329 175.466 52.5811C175.453 54.6577 175.453 56.7343 175.466 58.8108C175.466 59.1112 175.518 59.4639 175.949 59.3986C176.354 59.3463 176.302 58.9676 176.315 58.6802C176.328 57.7007 176.315 56.7212 176.315 55.7417C176.302 54.723 176.315 53.6912 176.302 52.6464Z" fill="#9F9F9F"/>
</g>
<defs>
<clipPath id="clip0_417_190">
<rect width="222" height="75.6325" fill="white"/>
</clipPath>
</defs>
</svg>
