<svg width="214" height="78" viewBox="0 0 214 78" fill="none" xmlns="http://www.w3.org/2000/svg">
<path d="M165.129 9.17441C163.421 8.75943 161.842 8.27867 160.227 8.01045C158.253 7.68151 156.264 7.70175 154.351 8.44061C151.347 9.59444 149.511 12.7169 149.952 16.062C153.741 16.062 157.551 16.062 161.422 16.062C161.422 18.6783 161.422 21.1631 161.422 23.7643C157.592 23.7643 153.782 23.7643 149.845 23.7643C149.845 34.1944 149.845 44.5131 149.845 54.9684C146.563 54.9684 143.415 54.9684 140.165 54.9684C140.144 54.7913 140.078 54.518 140.078 54.2448C140.078 40.92 140.031 27.6003 140.108 14.2756C140.149 6.62383 144.882 1.40121 152.521 0.277745C156.484 -0.304232 160.36 0.034833 164.18 1.23421C164.882 1.45688 165.175 1.75546 165.154 2.52468C165.093 4.7362 165.129 6.94265 165.129 9.17441Z" fill="#9F9F9F"/>
<path d="M64.5247 47.1649C62.3764 47.1649 60.2999 47.1649 58.0697 47.1649C58.0697 46.7752 58.0697 46.3906 58.0697 46.006C58.0697 41.3603 58.0697 36.7146 58.0697 32.0689C58.0697 31.7805 58.0799 31.487 58.0697 31.1985C57.9415 27.5902 55.6189 26.067 52.2607 27.5447C51.0148 28.0912 49.933 29.0376 48.8614 29.903C48.5691 30.1358 48.482 30.743 48.482 31.1783C48.4563 36.077 48.4666 40.9757 48.4666 45.8745C48.4666 46.2692 48.4666 46.6639 48.4666 47.1295C46.2978 47.1295 44.2009 47.1295 41.9911 47.1295C41.9911 46.755 41.9911 46.3603 41.9911 45.9706C41.9911 41.1427 41.9962 36.3148 41.9911 31.492C41.986 27.5649 39.6275 25.9809 35.9821 27.5902C34.808 28.1115 33.8031 29.0376 32.8085 29.8827C32.5213 30.1256 32.4342 30.7228 32.4291 31.1631C32.4034 36.0517 32.4137 40.9454 32.4137 45.834C32.4137 46.2287 32.4137 46.6285 32.4137 47.1143C30.3116 47.1143 28.2556 47.1143 26.1279 47.1143C26.1279 38.7743 26.1279 30.409 26.1279 21.9628C27.7429 21.9628 29.3477 21.9628 31.055 21.9628C31.296 22.9294 31.5472 23.9314 31.8343 25.065C34.321 23.3342 36.905 22.0691 39.889 21.9223C42.9293 21.7705 45.5852 22.5549 47.2053 25.2117C49.0562 24.3109 50.7584 23.2785 52.6042 22.6409C54.0244 22.15 55.6292 21.9122 57.1365 21.9729C61.2843 22.1348 63.6787 24.3919 64.3145 28.4354C64.4119 29.0427 64.5247 29.6601 64.5298 30.2724C64.5298 35.8594 64.5247 41.4514 64.5247 47.1649Z" fill="#9F9F9F"/>
<path d="M205.961 47.1294C205.961 49.8115 205.961 52.3064 205.961 54.9431C205.32 54.9431 204.71 54.9481 204.094 54.9431C200.782 54.8975 197.445 55.0949 194.168 54.7356C189.569 54.2346 186.99 51.355 186.524 46.8156C186.421 45.844 186.37 44.8622 186.37 43.8804C186.36 33.0101 186.365 22.1448 186.365 11.2745C186.365 10.9203 186.365 10.561 186.365 10.1359C188.877 10.1359 191.292 10.1359 193.779 10.1359C194.148 11.6186 194.604 13.1115 194.876 14.6399C195.071 15.733 195.486 16.1429 196.665 16.0822C198.757 15.9759 200.859 16.0518 202.961 16.0518C203.356 16.0518 203.751 16.0518 204.192 16.0518C204.192 18.6833 204.192 21.1783 204.192 23.7997C201.562 23.7997 198.972 23.7997 196.317 23.7997C196.291 24.2804 196.26 24.6347 196.26 24.9889C196.255 30.4342 196.24 35.8795 196.276 41.3197C196.281 42.2863 196.388 43.2833 196.645 44.2144C197.147 46.0464 198.398 47.0282 200.321 47.1091C202.146 47.1901 203.987 47.1294 205.961 47.1294Z" fill="#9F9F9F"/>
<path d="M214 55.5504C203.346 70.6009 188.775 78.3336 170.045 77.3012C153.946 76.4156 141.503 68.7689 132.402 55.7174C144.21 65.5351 157.966 69.9379 173.245 69.9733C188.575 70.0138 202.249 65.4288 214 55.5504Z" fill="#9F9F9F"/>
<path d="M86.2738 31.9271C86.6122 29.0223 85.6534 27.7672 82.8028 27.2915C79.5214 26.745 76.2811 27.1144 73.0613 27.8178C72.5999 27.919 72.1384 28.0304 71.4873 28.1822C71.4873 26.5273 71.4719 24.9585 71.5129 23.3897C71.518 23.2328 71.8308 23.0001 72.041 22.9494C77.5321 21.6539 83.0335 21.2187 88.4016 23.3897C91.3291 24.5739 92.8467 26.8613 92.8467 30.0344C92.8519 35.4392 92.8467 40.849 92.8467 46.2538C92.8467 46.5372 92.8467 46.8206 92.8467 47.1192C90.9959 47.2862 89.2629 47.3925 87.8171 46.0767C87.2172 45.5302 86.6071 45.5453 85.8278 45.8996C82.1106 47.5646 78.2602 47.5949 74.4148 46.4563C71.1181 45.4796 69.4621 43.0555 69.4108 39.4624C69.3595 35.9453 70.9541 33.587 74.2149 32.4534C77.568 31.2894 81.0288 31.5222 84.4845 31.7449C85.0587 31.7803 85.6381 31.8613 86.2738 31.9271ZM81.4954 36.3552C81.4954 36.3754 81.4902 36.4007 81.4902 36.421C80.9006 36.421 80.311 36.3855 79.7265 36.4311C79.142 36.4766 78.5524 36.5525 77.9936 36.7044C76.4657 37.1193 75.712 38.1163 75.794 39.5383C75.8709 40.925 76.7733 42.013 78.3268 42.0585C79.988 42.1092 81.721 42.0231 83.3155 41.6081C86.1303 40.8693 86.2943 40.429 86.2328 37.595C86.2174 36.9169 85.9406 36.7094 85.3407 36.6689C84.0589 36.5728 82.7771 36.4614 81.4954 36.3552Z" fill="#9F9F9F"/>
<path d="M178.961 54.9078C175.649 54.9078 172.455 54.9078 169.189 54.9078C169.189 41.998 169.189 29.1287 169.189 16.1582C172.43 16.1582 175.675 16.1582 178.961 16.1582C178.961 29.068 178.961 41.9423 178.961 54.9078Z" fill="#9F9F9F"/>
<path d="M20.4522 28.2684C18.3757 27.8079 16.4377 27.1905 14.4535 26.9982C12.3924 26.8008 10.2698 26.8717 8.20869 27.0994C6.61929 27.2765 5.90663 28.314 5.99891 29.6095C6.09633 30.9354 7.00895 31.7451 8.665 31.8159C10.3211 31.8868 11.9771 31.8159 13.6332 31.8615C14.474 31.8868 15.3302 31.9576 16.1506 32.1297C19.9549 32.9293 22.0262 35.8341 21.7699 39.9434C21.5032 44.2196 19.1653 46.5374 14.2125 47.251C9.88012 47.8735 5.62976 47.3168 1.45631 46.1123C1.35377 46.082 1.26661 46.0061 1.14355 45.9352C1.14355 44.2804 1.14355 42.6154 1.14355 40.9454C2.95342 41.3654 4.73252 41.9474 6.55777 42.1498C8.65988 42.3826 10.8081 42.418 12.9205 42.2662C14.4176 42.16 15.0995 41.1681 15.0995 39.8523C15.0995 38.4201 14.4022 37.5649 12.9359 37.489C10.7722 37.3675 8.59322 37.4485 6.42959 37.3017C2.76372 37.0689 0.492414 35.0092 0.0822464 31.406C-0.0818206 29.9637 -0.0100413 28.3949 0.384745 27.0032C1.17944 24.1743 3.5174 22.8839 6.22963 22.3019C10.7825 21.3252 15.2995 21.6642 19.7395 23.0002C20.0215 23.0863 20.4112 23.4355 20.4214 23.6733C20.483 25.2219 20.4522 26.7654 20.4522 28.2684Z" fill="#9F9F9F"/>
<path d="M127.655 42.2206C127.655 43.9564 127.655 45.5758 127.655 47.4482C125.086 47.3217 122.533 47.4128 120.067 47.0181C117.611 46.6233 116.442 44.7256 116.037 42.3926C115.924 41.7499 115.873 41.092 115.873 40.4443C115.862 33.1873 115.862 25.9303 115.867 18.6783C115.867 18.4303 115.898 18.1874 115.919 17.8838C117.534 17.8838 119.092 17.8838 120.754 17.8838C121.092 19.1743 121.441 20.49 121.81 21.8918C123.743 21.8918 125.645 21.8918 127.624 21.8918C127.624 23.6327 127.624 25.2774 127.624 27.0183C125.958 27.0183 124.317 27.0183 122.517 27.0183C122.517 28.248 122.517 29.3816 122.517 30.5203C122.522 33.2227 122.486 35.9251 122.548 38.6275C122.61 41.421 123.491 42.2206 126.311 42.2256C126.747 42.2206 127.178 42.2206 127.655 42.2206Z" fill="#9F9F9F"/>
<path d="M104.972 24.9536C108.643 22.3878 109.664 21.9526 111.971 21.9577C111.971 23.6024 111.971 25.2522 111.971 27.0032C109.782 27.0993 107.849 27.904 106.336 29.493C105.936 29.9131 105.623 30.6013 105.618 31.1681C105.562 36.0668 105.588 40.9656 105.588 45.8643C105.588 46.259 105.588 46.6538 105.588 47.1193C103.439 47.1193 101.373 47.1193 99.2659 47.1193C99.2659 38.749 99.2659 30.3786 99.2659 21.9425C100.917 21.9425 102.522 21.9425 104.214 21.9425C104.455 22.9142 104.701 23.8858 104.972 24.9536Z" fill="#9F9F9F"/>
<path d="M169.184 10.0095C169.184 7.33745 169.184 4.74133 169.184 2.08447C172.44 2.08447 175.629 2.08447 178.91 2.08447C178.91 4.68566 178.91 7.30709 178.91 10.0095C175.721 10.0095 172.501 10.0095 169.184 10.0095Z" fill="#9F9F9F"/>
</svg>
