<svg width="221" height="66" viewBox="0 0 221 66" fill="none" xmlns="http://www.w3.org/2000/svg">
<path fill-rule="evenodd" clip-rule="evenodd" d="M217.084 32.265C215.105 32.2692 213.496 30.6746 213.492 28.698C213.492 28.6897 213.492 28.6814 213.492 28.6731C213.492 26.7006 215.084 25.0646 217.105 25.0646C219.083 25.0604 220.692 26.655 220.696 28.6316C220.696 28.6399 220.696 28.6482 220.696 28.6565C220.7 30.6497 219.079 32.265 217.084 32.265ZM217.109 25.4217C215.334 25.4092 213.883 26.8294 213.87 28.6066C213.87 28.6274 213.87 28.6565 213.87 28.6772C213.87 30.467 215.255 31.9079 217.088 31.9079C218.863 31.9203 220.314 30.4877 220.326 28.7188C220.326 28.698 220.326 28.6772 220.326 28.6565C220.351 26.8958 218.95 25.4466 217.192 25.4217C217.155 25.4217 217.134 25.4217 217.109 25.4217ZM217.899 29.0219L218.917 30.4462H218.061L217.15 29.1423H216.361V30.4462H215.637V26.6757H217.321C218.198 26.6757 218.772 27.1284 218.772 27.8758C218.776 28.4945 218.422 28.8766 217.899 29.0219ZM217.296 27.3194H216.356V28.5111H217.296C217.766 28.5111 218.04 28.2827 218.04 27.9132C218.04 27.5311 217.757 27.3194 217.296 27.3194ZM172.342 14.9781C170.322 14.9781 168.68 16.6142 168.68 18.6323C168.68 20.6504 170.317 22.2907 172.338 22.2907C174.358 22.2907 176 20.6504 176 18.6323C176 16.6142 174.362 14.974 172.342 14.9781ZM174.865 25.1102H169.76C169.552 25.1102 169.39 25.2763 169.39 25.484V47.7456C169.39 47.9573 169.552 48.1193 169.76 48.1193H174.869C175.077 48.1193 175.243 47.9532 175.243 47.7456V25.4881C175.243 25.2805 175.077 25.1102 174.865 25.1102ZM186.222 25.131V24.4292C186.222 22.353 187.02 21.427 188.804 21.427C189.864 21.427 190.72 21.6387 191.684 21.9626C191.88 22.0291 192.092 21.9211 192.158 21.7301C192.171 21.6886 192.179 21.647 192.175 21.6055V17.3077C192.175 17.1457 192.063 17.0004 191.909 16.9505C190.533 16.5311 189.099 16.3235 187.66 16.3401C182.946 16.3401 180.448 18.9894 180.448 24.0098V25.0895H177.991C177.783 25.0895 177.621 25.2556 177.617 25.459V29.869C177.617 30.0766 177.783 30.2427 177.991 30.2427H180.448V47.7456C180.448 47.949 180.61 48.1151 180.818 48.1151H185.927C186.135 48.1151 186.297 47.949 186.297 47.7414V30.2427H191.065L198.373 47.7414C197.546 49.5768 196.731 49.9422 195.617 49.9422C194.715 49.9422 193.767 49.6723 192.799 49.1408C192.711 49.091 192.603 49.0827 192.503 49.1159C192.408 49.1533 192.32 49.2239 192.283 49.3194L190.554 53.1106C190.471 53.2892 190.541 53.5009 190.712 53.5964C192.52 54.5723 194.154 54.9917 196.166 54.9917C199.936 54.9917 202.023 53.2393 203.86 48.5138L212.727 25.6418C212.806 25.4507 212.715 25.2348 212.524 25.1559C212.478 25.1393 212.432 25.131 212.382 25.131H207.065C206.907 25.131 206.766 25.2307 206.716 25.3843L201.266 40.9271L195.297 25.376C195.243 25.2307 195.102 25.131 194.948 25.131H186.222ZM166.643 25.1102H161.026V19.3673C161.026 19.1638 160.86 18.9977 160.656 18.9977H160.652H155.543C155.34 18.9977 155.173 19.1638 155.173 19.3673V25.1061H152.712C152.509 25.1061 152.342 25.2722 152.342 25.4757V25.4798V29.8649C152.342 30.0725 152.509 30.2386 152.712 30.2386H155.173V41.5832C155.173 46.1718 157.456 48.4889 161.962 48.4889C163.795 48.4889 165.312 48.1151 166.742 47.3054C166.863 47.239 166.934 47.1144 166.934 46.9774V42.8041C166.938 42.6006 166.776 42.4304 166.568 42.4304C166.505 42.4304 166.447 42.4428 166.393 42.4719C165.412 42.966 164.46 43.1903 163.392 43.1903C161.75 43.1903 161.022 42.4511 161.022 40.786V30.2469H166.638C166.842 30.2469 167.008 30.0849 167.013 29.8815C167.013 29.8773 167.013 29.8773 167.013 29.8732V25.4881C167.013 25.2805 166.85 25.1102 166.643 25.1102ZM139.709 24.641C132.825 24.641 127.434 29.9354 127.434 36.6957C127.434 43.3813 132.792 48.6176 139.626 48.6176C146.531 48.6176 151.943 43.3398 151.943 36.6127C151.939 29.9022 146.564 24.641 139.709 24.641ZM139.709 43.4519C136.047 43.4519 133.287 40.5119 133.287 36.6127C133.287 32.701 135.955 29.8649 139.626 29.8649C143.309 29.8649 146.086 32.8048 146.086 36.704C146.082 40.6116 143.405 43.4519 139.709 43.4519ZM115.083 24.641C112.202 24.641 109.845 25.7705 107.9 28.0917V25.4881C107.9 25.2805 107.733 25.1185 107.53 25.1144H102.421C102.213 25.1144 102.051 25.2805 102.051 25.4881V54.4892C102.051 54.6927 102.217 54.8588 102.421 54.8588H107.53C107.733 54.8588 107.9 54.6927 107.9 54.4892V45.3371C109.845 47.5172 112.206 48.5802 115.083 48.5802C120.429 48.5802 125.837 44.4692 125.837 36.6127C125.837 28.7561 120.429 24.641 115.083 24.641ZM119.901 36.6127C119.901 40.6116 117.432 43.4062 113.902 43.4062C110.406 43.4062 107.775 40.487 107.775 36.6127C107.775 32.7384 110.406 29.8192 113.902 29.8192C117.374 29.8192 119.905 32.6761 119.901 36.6127ZM90.2822 30.2635C84.5788 28.9015 83.5686 27.9464 83.5686 25.9449C83.5686 24.0472 85.352 22.7765 88.0042 22.7765C90.5732 22.7765 93.1256 23.7399 95.7986 25.7331C95.9649 25.8577 96.2018 25.8203 96.3265 25.6542L99.1117 21.7301C99.224 21.5723 99.1907 21.3481 99.0411 21.2276C95.8609 18.6738 92.2776 17.4364 88.0873 17.4364C81.9266 17.4364 77.6241 21.128 77.6241 26.41C77.6241 32.074 81.3363 34.0797 87.7506 35.6285C93.2046 36.8826 94.1316 37.9332 94.1316 39.8184C94.1316 41.8988 92.2693 43.1944 89.2679 43.1944C85.9423 43.1944 83.2236 42.0732 80.1848 39.4488C80.11 39.3824 80.0102 39.3533 79.9104 39.3575C79.8107 39.3658 79.7151 39.4156 79.6527 39.4904L76.5308 43.2027C76.3978 43.3564 76.4144 43.5889 76.5724 43.7218C80.0144 46.8362 84.4998 48.5553 89.1432 48.5387C95.7778 48.5387 100.068 44.9136 100.068 39.3118C100.068 34.5738 97.2328 31.9536 90.2822 30.2635ZM33.3393 0C15.0983 0 0.303467 14.7746 0.303467 33C0.303467 51.2254 15.0983 66 33.3393 66C51.5803 66 66.3752 51.2212 66.3752 33C66.3752 14.7788 51.5887 0 33.3393 0ZM48.4958 47.5961C47.9055 48.5636 46.6376 48.8751 45.6691 48.2854L45.6649 48.2812C37.9037 43.5474 28.1472 42.4802 16.6447 45.1004C15.5348 45.3537 14.4332 44.6644 14.1796 43.5557C13.926 42.447 14.6161 41.3465 15.726 41.0932C28.3052 38.2156 39.1051 39.453 47.8099 44.7724C48.7785 45.362 49.0861 46.6285 48.4958 47.5961ZM52.5323 38.61C51.7882 39.8226 50.2044 40.1963 48.9947 39.4572C40.1111 34.0049 26.5758 32.4311 16.0711 35.6119C14.6868 35.94 13.2942 35.0846 12.9658 33.6976C12.6665 32.4353 13.3565 31.1397 14.5745 30.6871C26.5759 27.0495 41.4871 28.8143 51.6843 35.0721C52.8981 35.8154 53.2764 37.4017 52.5323 38.61C52.5365 38.6142 52.5365 38.6142 52.5323 38.61ZM52.8856 29.2544C42.2395 22.9343 24.6678 22.3571 14.5039 25.4424C12.8785 25.9615 11.1408 25.0604 10.6212 23.4409C10.1016 21.8214 11.0036 20.0815 12.6249 19.5625C12.6498 19.5542 12.6831 19.5459 12.708 19.5376C24.3726 15.9955 43.7776 16.6848 56.0325 23.9475C57.4999 24.8196 57.9822 26.7089 57.1133 28.1748C56.2404 29.6406 54.3489 30.1223 52.8815 29.2544" fill="#9F9F9F"/>
</svg>
