<svg width="220" height="46" viewBox="0 0 220 46" fill="none" xmlns="http://www.w3.org/2000/svg">
<path d="M130.829 45.2899H119.351V11.4749H130.829V45.2899ZM156.398 45.2899V26.0981C156.398 21.715 154.934 20.5606 152.574 20.5606C150.214 20.5606 148.689 21.715 148.689 25.9709V45.2899H137.211V11.4749H148.689V13.7323C151.04 11.7615 154.03 10.7093 157.101 10.7715C164.432 10.7715 167.941 15.7241 167.941 24.6155L167.964 45.2899H156.398ZM201.76 37.9504C197.868 43.7492 194.234 46 188.302 46C178.483 46 172.619 39.6854 172.619 28.2886C172.619 17.9168 177.845 10.7715 188.562 10.7715C194.872 10.7715 198.506 13.7323 201.437 18.4951L193.548 24.5507C191.959 21.5877 190.875 20.1743 188.389 20.1743C185.456 20.1743 183.992 23.1351 183.992 28.4807C183.992 33.8262 185.581 36.5973 188.705 36.5973C190.875 36.5973 192.407 35.3759 194.509 32.2141L201.76 37.9526V37.9504ZM220 38.5957C219.945 40.5165 219.148 42.3419 217.776 43.6912C216.415 45.0311 214.58 45.7834 212.667 45.7856C210.761 45.7856 208.927 45.0332 207.559 43.6912C206.187 42.3419 205.391 40.5165 205.336 38.5957C205.336 34.3376 208.457 31.2896 212.664 31.2896C216.872 31.2896 220 34.3376 220 38.5957Z" fill="#9F9F9F"/>
<path d="M63.6153 0C74.1305 0 81.0921 4.07728 81.0921 15.014C81.0921 26.5291 73.5393 30.6064 62.7778 30.6064H56.5663V45.2899H111.713L137.593 0H63.613H63.6153Z" fill="#BCBCBC"/>
<path d="M62.7845 30.6064C73.5393 30.6064 81.0988 26.5291 81.0988 15.014C81.0988 4.07728 74.117 0 63.6108 0H44.3381V45.2899H56.573V30.6064H62.7845ZM56.573 10.2267H63.2973C67.2405 10.2267 68.7385 12.2184 68.7385 15.2061C68.7385 18.6336 67.1353 20.3797 63.1003 20.3797H56.573V10.2267ZM40.1396 45.2899L26.9329 22.1727L39.6067 0.00669875H25.8805L20.0698 10.1664L14.2591 0.00669875H1.07033L13.4754 21.7016L0 45.2899H13.7195L20.3385 33.7146L26.9531 45.2899H40.1396Z" fill="#9F9F9F"/>
</svg>
